/* XPM */
static char *result[] = {
/* columns rows colors chars-per-pixel */
"36 64 215 2 ",
"   c #000000",
".  c #080000",
"X  c #040D0C",
"o  c #170507",
"O  c #000117",
"+  c #001B1A",
"@  c #041915",
"#  c #1E1617",
"$  c #00100D",
"%  c #230000",
"&  c #2A0807",
"*  c #3B0102",
"=  c #2C1916",
"-  c #2A1817",
";  c #321412",
":  c #331A16",
">  c #3C1A16",
",  c #331C1B",
"<  c #3B1D18",
"1  c #2D100D",
"2  c #00211F",
"3  c #3C221E",
"4  c #2B241D",
"5  c #00002C",
"6  c #000D27",
"7  c #010236",
"8  c #02133C",
"9  c #0A1636",
"0  c #161638",
"q  c #131B26",
"w  c #271B29",
"e  c #391E27",
"r  c #20193E",
"t  c #351E37",
"y  c #00282C",
"u  c #002F38",
"i  c #00303A",
"p  c #2F2222",
"a  c #3B2627",
"s  c #36263B",
"d  c #23233D",
"f  c #470000",
"g  c #540400",
"h  c #580C0E",
"j  c #4B160F",
"k  c #4D1914",
"l  c #4D1A18",
"z  c #541A19",
"x  c #6A0002",
"c  c #690F0F",
"v  c #720001",
"b  c #7B0000",
"n  c #71011A",
"m  c #6F1511",
"M  c #48231F",
"N  c #59241E",
"B  c #782400",
"V  c #551E25",
"C  c #4B1F24",
"Z  c #6E1D21",
"A  c #412424",
"S  c #4A2526",
"D  c #5D2B24",
"F  c #532E2A",
"G  c #542926",
"H  c #58302A",
"J  c #5A3936",
"K  c #492C36",
"L  c #632A24",
"P  c #6C312B",
"I  c #673926",
"U  c #70332C",
"Y  c #78372F",
"T  c #602E31",
"R  c #693732",
"E  c #7D3931",
"W  c #69473B",
"Q  c #774239",
"!  c #744525",
"~  c #00004A",
"^  c #030046",
"/  c #021443",
"(  c #00144F",
")  c #071A47",
"_  c #000056",
"`  c #011A54",
"'  c #041E5C",
"]  c #001355",
"[  c #12004D",
"{  c #3E0E5A",
"}  c #031F65",
"|  c #032064",
" . c #05246D",
".. c #062672",
"X. c #062876",
"o. c #07297B",
"O. c #032778",
"+. c #102257",
"@. c #5A1B5C",
"#. c #71184C",
"$. c #5D1F6A",
"%. c #402678",
"&. c #6D297B",
"*. c #3F4253",
"=. c #5A5455",
"-. c #524B4E",
";. c #644E48",
":. c #74685D",
">. c #676867",
",. c #77797D",
"<. c #706763",
"1. c #840003",
"2. c #880D0D",
"3. c #950001",
"4. c #9C0002",
"5. c #9D0D0D",
"6. c #950A08",
"7. c #88110F",
"8. c #92100E",
"9. c #841112",
"0. c #A30002",
"q. c #AC0102",
"w. c #A80B0B",
"e. c #B40003",
"r. c #BC0004",
"t. c #B90B0A",
"y. c #A7120F",
"u. c #B81412",
"i. c #9C0C3C",
"p. c #C40003",
"a. c #CC0001",
"s. c #C30108",
"d. c #D30205",
"f. c #DD0000",
"g. c #DC0609",
"h. c #DA0B0C",
"j. c #D7100E",
"k. c #CB1311",
"l. c #C8120F",
"z. c #EB0303",
"x. c #E3070A",
"c. c #EC0609",
"v. c #E50A0B",
"b. c #EE0A0C",
"n. c #E70106",
"m. c #F00102",
"M. c #F30B0D",
"N. c #FE0D0E",
"B. c #F60704",
"V. c #EA0810",
"C. c #85443F",
"Z. c #A4463F",
"A. c #8B1F67",
"S. c #8B2066",
"D. c #A22978",
"F. c #8A4741",
"G. c #974C47",
"H. c #9E524C",
"J. c #A4534E",
"K. c #A84D49",
"L. c #9A695A",
"P. c #AA6759",
"I. c #B26B5D",
"U. c #896D62",
"Y. c #8D7063",
"T. c #BB7464",
"R. c #A57065",
"E. c #C47C6B",
"W. c #C77869",
"Q. c #CD6F6A",
"!. c #9C8174",
"~. c #83807E",
"^. c #CF8472",
"/. c #D48774",
"(. c #052B84",
"). c #082D88",
"_. c #093194",
"`. c #02329A",
"'. c #09349C",
"]. c #013092",
"[. c #123295",
"{. c #0936A1",
"}. c #0639A8",
"|. c #173DAD",
" X c #2F3FB3",
".X c #433392",
"XX c #442981",
"oX c #0E40B4",
"OX c #0042BA",
"+X c #0F42B8",
"@X c #1043B9",
"#X c #7B7D83",
"$X c #6E40AF",
"%X c #004CCB",
"&X c #074AC8",
"*X c #134BC9",
"=X c #1248C4",
"-X c #3349C6",
";X c #4148C3",
":X c #87389C",
">X c #858483",
",X c #A89D9B",
"<X c #A3A19E",
"1X c #A9AAA8",
"2X c #B2B0B0",
"3X c #D28381",
"4X c #ECAA96",
"5X c #C4BCB9",
"6X c #EABEAB",
"7X c #D0D3D0",
"8X c #E1D5D3",
"9X c #E8EAE7",
"0X c #FFFFFF",
"qX c #F5F7F4",
"wX c None",
/* pixels */
"wXwXwXwXwXwXwXwXwXwXwXwXwXwXwXwXwXwXwXwXwXwXwXwXwXwXwXwXwXwXwXwXwXwXwXwX",
"wXwXwXwXwXwXwXwXwXwXwXwXwXwXwXwXwXwXwXwXwXwXwXwXwXwXwXwXwXwXwXwXwXwXwXwX",
"wXwXwXwXwXwXwXwXwXwXwXwXwX@ + + @ + + @ + @ @ wXwXwXwXwXwXwXwXwXwXwXwXwX",
"wXwXwXwXwXwXwXwXwXwXwXwXV 2.y.u.u.u.u.u.u.y.9.G wXwXwXwXwXwXwXwXwXwXwXwX",
"wXwXwXwXwXwXwXwXwX3 ; = 7.s.c.N.N.N.N.N.N.c.s.7.: : < wXwXwXwXwXwXwXwXwX",
"wXwXwXwXwXwXwXwXA 9.w.l.v.b.N.N.N.N.N.N.N.N.v.j.l.w.7.A wXwXwXwXwXwXwXwX",
"wXwXwXwXwXwXwXp m r.n.N.N.N.N.N.N.N.N.N.N.N.N.N.N.n.r.m p wXwXwXwXwXwXwX",
"wXwXwXwXwXwXC 9.r.c.N.N.N.N.N.N.N.N.N.N.N.N.N.N.N.N.x.e.9.S wXwXwXwXwXwX",
"wXwXwXwXwXy j t.n.N.N.N.N.N.N.N.N.N.N.N.N.N.N.N.N.N.N.n.t.j 2 wXwXwXwXwX",
"wXwXwXwXwXwXk j.N.N.N.N.N.N.N.N.N.N.N.M.N.N.N.N.N.N.N.N.j.k wXwXwXwXwXwX",
"wXwXwXwXwXG 8.v.N.N.N.N.N.N.N.N.N.N.N.N.N.N.N.N.N.N.N.N.v.8.G wXwXwXwXwX",
"wXwXwXwX: 2.p.b.N.N.N.N.N.N.N.N.N.N.N.N.N.N.N.N.N.N.N.N.b.s.8.: wXwXwXwX",
"wXwXwXwX: t.c.N.N.N.N.N.N.N.N.M.N.M.N.N.N.N.N.N.N.N.N.N.N.b.t.: wXwXwXwX",
"wXwXwXwX: k.N.N.N.M.N.N.N.N.N.N.N.N.N.N.N.M.N.N.N.N.N.N.N.N.k.= wXwXwXwX",
"wXwXwXwX, k.N.N.N.N.N.N.N.N.N.N.N.N.N.N.N.N.N.N.N.N.N.N.N.N.k.: wXwXwXwX",
"wXwXwXwX1 t.N.N.N.N.N.N.N.N.N.N.N.N.N.N.N.N.N.N.N.N.N.N.N.N.s.1 wXwXwXwX",
"wXwXwXwX  3.h.M.N.N.N.N.N.N.N.N.N.N.N.N.N.N.N.N.N.N.N.N.M.h.4.  wXwXwXwX",
"wXwXwX<.U.Z.p.f.M.v.M.N.N.N.N.N.N.N.N.N.N.N.N.N.N.c.v.M.f.p.K.Y.<.wXwXwX",
"wXwX  !.6XQ.p.p.p.r.h.N.N.N.N.N.N.N.N.N.N.N.N.N.N.h.r.p.p.p.W.6X!.. wXwX",
"wXwX  R.4XW.0.e.r.e.p.x.v.x.x.v.v.x.x.x.v.x.v.v.x.p.e.r.e.0.W.4XR.  wXwX",
"wXwX  P./.P.v 0.p.r.r.r.r.r.r.r.r.r.r.r.r.r.r.r.r.r.r.s.q.v P./.L.  wXwX",
"wXwX. L.4XR.g q.a.p.r.r.r.r.r.r.4.1.1.4.r.r.r.r.r.p.p.a.0.g L.4XL.. wXwX",
"wXwXo Y.wX:.* 3.r.e.r.r.r.r.p.e.6.n v 3.r.r.r.r.r.r.e.r.4.* :.wXU.o wXwX",
"wXwXwX;.;.K ; f x 1.0.s.a.p.p.r.e.q.q.e.r.p.p.a.p.0.1.x f ; K ;.wXwXwXwX",
"wXwXwXwX  o 3 J W N b w.e.q.r.p.s.p.p.p.p.r.q.e.w.b N W W 4 o   wXwXwXwX",
"wXwXwXwXwX  G T.^.W % k c 1.q.p.p.p.p.p.p.q.1.c k % Q E.T.F   wXwXwXwXwX",
"wXwXwXwXwXwXJ P.I.J   $ # h 2.5.5.5.5.5.5.2.h - $   J P.P.J wXwXwXwXwXwX",
"wXwXwXwXwXwXwXK < , : = : : : > > > > > > > : : = : : 3 K wXwXwXwXwXwXwX",
"wXwXwXwXwXwXwXO . o H F.R @                 $ R F.H o . . wXwXwXwXwXwXwX",
"wXwXwXwXwXwXwXp = X R J.F.M M F F F F F F A M F.J.R X , p wXwXwXwXwXwXwX",
"wXwXwXwXwXwXwXwXwX+ p R C.G.I.W.E.E.E.E.^.P.G.Q H 4 y wXwXwXwXwXwXwXwXwX",
"wXwXwXwXwXwXwXwXwXL g % P H.T.^.^.^.^.^.^.T.H.P & g Z wXwXwXwXwXwXwXwXwX",
"wXwXwXwXwXwXwXwXl 5.4.x z H ! ! W W W Q ! ! H z x 4.w.S wXwXwXwXwXwXwXwX",
"wXwXwXwXwXwXwXz 6.h.d.0.x * ^ ~ 5 % % 5 _ ^ f v 0.d.a.6.z wXwXwXwXwXwXwX",
"wXwXwXwXwXwXk 6.a.M.b.s.4.v %._.@.v x @._.%.v 4.s.V.M.d.5.l wXwXwXwXwXwX",
"wXwXwXwXwXu j l.M.N.B.d.i.$.oX XS.q.q.A. X{.$.i.d.B.N.B.t.k y wXwXwXwXwX",
"wXwXwXwXwXi m j.N.N.z.a.S.}.OX-XD.p.a.D.-X&X{.S.a.z.N.N.h.m i wXwXwXwXwX",
"wXwXwXwXs Z w.b.N.V.a.0.&.OX%X-X$X:X:X$X-X%XOX&.0.a.b.N.M.w.Z s wXwXwXwX",
"wXwXwXwX; 3.d.z.m.p.3.n .X*X%X*X%X%X%X%X=X&X*X.Xn 3.p.m.m.a.3.; wXwXwXwX",
"wXwXwXwX: 4.a.f.a.0.#.XX@X*X*X*X%X%X%X%X*X*X*XoXXX#.0.a.d.p.3.: wXwXwXwX",
"wXwXwXwX: G.Q.I.J.7.{ `.OX*X*X*X=X*X=X*X*X*X*XOX`.{ B J.Q.3XR.> wXwXwXwX",
"wXwXwXwX, ,XwX8X,X;.[ [.OX*X*X*X*X*X*X*X*X*X*XOX_.[ W <X8XqX5X: wXwXwXwX",
"wXwXwXwX; >XwXqX7X>.~ `.oX@X@X*X*X*X*X*X*X=X@X|.`.~ >.7XqX9X1X, wXwXwXwX",
"wXwXwXwX: =.2XqX9X,.~ `.'.'.@X*X*X*X*X*X*X+X'.{.`.~ ,.9XqX1X=.4 wXwXwXwX",
"wXwXwXwX: ~.8X0X9X#X7 (._.'.}.oXoXoXoX+X+X}.{._.(.5 #XqXqX9X,X: wXwXwXwX",
"wXwXwXwX: ,XwX0X9X#X5 } ).'.'.'.'.'.'.'.'.'.`.).} 5 ,.9X0XqX7X: wXwXwXwX",
"wXwXwXwX: >XwXwXwX-.^ | o.(._.{.'.'.{.{.'._.(.o.| 7 >.9X0XqX1X: wXwXwXwX",
"wXwXwXwX, =.wXwXwX7 +. ... .).'._.'._._.'.(. ... ._ *.wXwX2X>X3 wXwXwXwX",
"wXwXwXwXwXK a ; & 9 ` ......X.o.o.o.o.o.o.o..... .] d -.-.=.-.wXwXwXwXwX",
"wXwXwXwXwXwX& ; w 0 `  ....... .| } | |  .....X. .' 7 .     wXwXwXwXwXwX",
"wXwXwXwXwXwXwXwXwX8 ` ..........' / / ' ........ .` 9 wXwXwXwXwXwXwXwXwX",
"wXwXwXwXwXwXwXwXwX8 `  ..... .' ` wXwX) +. .....| ` ) wXwXwXwXwXwXwXwXwX",
"wXwXwXwXwXwXwXwXwX8 `  .X...' 9 wXwXwXwX8 ' ..O...` ) wXwXwXwXwXwXwXwXwX",
"wXwXwXwXwXwXwXwXwX9 | _.)...' 8 wXwXwXwX8 '  .)._.| 9 wXwXwXwXwXwXwXwXwX",
"wXwXwXwXwXwXwXwXwX9 | _._.X.| 8 wXwXwXwX8 | O._._.| 9 wXwXwXwXwXwXwXwXwX",
"wXwXwXwXwXwXwXwXq 8 ( ' (.'.o.8 wXwXwXwX8 o.'.(.' ( 8 w wXwXwXwXwXwXwXwX",
"wXwXwXwXwXwXwXS S t 0 6  .].O.8 wXwXwXwX8 o.]. .6 0 t M S wXwXwXwXwXwXwX",
"wXwXwXwXwXwX3 P U G s ^ ( ` ] / wXwXwXwX/ ` ] ( 8 t H U P a wXwXwXwXwXwX",
"wXwXwXwXwX# > P C.U L K K e r / wXwXwXwX/ 0 3 K K T U E U > # wXwXwXwXwX",
"wXwXwXwXwX- > I Y Y Y Y P F t / wXwXwXwX/ { F I E E Y E P > p wXwXwXwXwX",
"wXwXwXwXwXw < N D D L L G C t w wXwXwXwXw a M D L L D D G > w wXwXwXwXwX",
"wXwXwXwXwXwX: : = = = = ; : : : wXwXwXwX: : : = = = = = : : wXwXwXwXwXwX",
"wXwXwXwXwXwXwXwXwXwXwXwXwXwXwXwXwXwXwXwXwXwXwXwXwXwXwXwXwXwXwXwXwXwXwXwX",
"wXwXwXwXwXwXwXwXwXwXwXwXwXwXwXwXwXwXwXwXwXwXwXwXwXwXwXwXwXwXwXwXwXwXwXwX"
};
