/* XPM */
static char *result[] = {
/* columns rows colors chars-per-pixel */
"36 64 225 2 ",
"   c #000001",
".  c #050706",
"X  c #150102",
"o  c #1A0B07",
"O  c #00110E",
"+  c #070018",
"@  c #151A17",
"#  c #1E1614",
"$  c #0F1512",
"%  c #2B0200",
"&  c #270706",
"*  c #350001",
"=  c #390000",
"-  c #29100D",
";  c #3E1504",
":  c #2C1513",
">  c #2B1716",
",  c #311513",
"<  c #3F1612",
"1  c #331A16",
"2  c #351B18",
"3  c #3B1D1A",
"4  c #3D1916",
"5  c #0C211E",
"6  c #3D201C",
"7  c #21201D",
"8  c #000C37",
"9  c #1D003B",
"0  c #03133D",
"q  c #051534",
"w  c #151B39",
"e  c #06102B",
"r  c #2D1C3B",
"t  c #331D3A",
"y  c #27172E",
"u  c #002628",
"i  c #042B36",
"p  c #0B2F3B",
"a  c #3C2928",
"s  c #292B31",
"d  c #3B2033",
"f  c #32383B",
"g  c #23252C",
"h  c #4C0000",
"j  c #550202",
"k  c #510A09",
"l  c #401B09",
"z  c #421A16",
"x  c #471A19",
"c  c #521212",
"v  c #581A18",
"b  c #58150E",
"n  c #6C0000",
"m  c #620607",
"M  c #750004",
"N  c #7B0005",
"B  c #72060C",
"V  c #781413",
"C  c #6B0D14",
"Z  c #45261C",
"A  c #532F13",
"S  c #4C1826",
"D  c #521726",
"F  c #661C21",
"G  c #6D1731",
"H  c #482924",
"J  c #54292E",
"K  c #572A26",
"L  c #4A312B",
"P  c #513128",
"I  c #432635",
"U  c #483B3A",
"Y  c #652E29",
"T  c #642E24",
"R  c #6A3026",
"E  c #65312D",
"W  c #6C322A",
"Q  c #75352D",
"!  c #653932",
"~  c #763631",
"^  c #7D3931",
"/  c #793E39",
"(  c #7C2525",
")  c #5A423A",
"_  c #72463C",
"`  c #6C4137",
"'  c #021545",
"]  c #031749",
"[  c #03184D",
"{  c #081949",
"}  c #161949",
"|  c #001753",
" . c #021952",
".. c #031D5C",
"X. c #0D1B50",
"o. c #0A0552",
"O. c #321F41",
"+. c #08215F",
"@. c #16244E",
"#. c #202951",
"$. c #000769",
"%. c #011E63",
"&. c #011F68",
"*. c #052164",
"=. c #04236C",
"-. c #062672",
";. c #052876",
":. c #072A7C",
">. c #082876",
",. c #451D5F",
"<. c #671650",
"1. c #431E63",
"2. c #631D61",
"3. c #522577",
"4. c #6F246D",
"5. c #314745",
"6. c #4A4244",
"7. c #594C4C",
"8. c #5D5755",
"9. c #4D5757",
"0. c #665753",
"q. c #735045",
"w. c #59605C",
"e. c #79635B",
"r. c #6C6B67",
"t. c #830000",
"y. c #8C0001",
"u. c #8E0D0D",
"i. c #8A0E07",
"p. c #950102",
"a. c #9C0002",
"s. c #960C0C",
"d. c #9D0D0B",
"f. c #8C1110",
"g. c #A60002",
"h. c #AC0002",
"j. c #A30709",
"k. c #B40003",
"l. c #BC0003",
"z. c #BB0C0B",
"x. c #B8080A",
"c. c #AE0A12",
"v. c #9C082B",
"b. c #B03130",
"n. c #C20003",
"m. c #CB0002",
"M. c #D30204",
"N. c #DB0508",
"B. c #DA0507",
"V. c #D9100F",
"C. c #CD1312",
"Z. c #D01312",
"A. c #C0041C",
"S. c #EF0307",
"D. c #EB0B0C",
"F. c #E4090B",
"G. c #F40609",
"H. c #F30A0C",
"J. c #FD0D0E",
"K. c #C00622",
"L. c #8F403F",
"P. c #981B5B",
"I. c #A21349",
"U. c #931F66",
"Y. c #A92773",
"T. c #8E216D",
"R. c #944D47",
"E. c #8A594D",
"W. c #9D524B",
"Q. c #975F51",
"!. c #8C4F4B",
"~. c #B85953",
"^. c #BA534E",
"/. c #996355",
"(. c #A46658",
"). c #B46D5D",
"_. c #8F7168",
"`. c #BE7565",
"'. c #A07C6F",
"]. c #CA534E",
"[. c #C57D6A",
"{. c #C36363",
"}. c #A58173",
"|. c #CE8371",
" X c #D18673",
".X c #DB907C",
"XX c #CB806F",
"oX c #072E8C",
"OX c #072B81",
"+X c #083295",
"@X c #08349C",
"#X c #043399",
"$X c #17359E",
"%X c #372E8B",
"&X c #0936A3",
"*X c #0C3CAC",
"=X c #003AA8",
"-X c #1E3EAE",
";X c #3C3FB2",
":X c #233CAE",
">X c #412B83",
",X c #6E3FAE",
"<X c #0E41B5",
"1X c #0043BB",
"2X c #6A40B0",
"3X c #024BCA",
"4X c #094AC8",
"5X c #1349C6",
"6X c #134BCA",
"7X c #1147C2",
"8X c #004FD3",
"9X c #0D4DD0",
"0X c #144DD0",
"qX c #2E4AC7",
"wX c #4B49C3",
"eX c #813AA1",
"rX c #908C8A",
"tX c #A4A29F",
"yX c #E19481",
"uX c #CFA898",
"iX c #F4BBA7",
"pX c #CC9291",
"aX c #C6C6C4",
"sX c #FBFBF8",
"dX c None",
/* pixels */
"dXdXdXdXdXdXdXdXdXdXdXdXdXdXdXdXdXdXdXdXdXdXdXdXdXdXdXdXdXdXdXdXdXdXdXdX",
"dXdXdXdXdXdXdXdXdXdXdXdXdXdXdXdXdXdXdXdXdXdXdXdXdXdXdXdXdXdXdXdXdXdXdXdX",
"dXdXdXdXdXdXdXdXdXdXdXdXdXdXdXdXdXdXdXdXdXdXdXdXdXdXdXdXdXdXdXdXdXdXdXdX",
"dXdXdXdXdXdXdXdXdXdXdXdXdXdXdXdXdXdXdXdXdXdXdXdXdXdXdXdXdXdXdXdXdXdXdXdX",
"dXdXdXdXdXdXdXdXdXdXdXdXdX4 < z z z z z z z 4 dXdXdXdXdXdXdXdXdXdXdXdXdX",
"dXdXdXdXdXdXdXdXdXdXu i K s.z.Z.Z.Z.Z.Z.Z.z.s.K u u dXdXdXdXdXdXdXdXdXdX",
"dXdXdXdXdXdXdXdXdXK b C d.m.G.J.J.J.J.J.J.G.m.d.v b v dXdXdXdXdXdXdXdXdX",
"dXdXdXdXdXdXdXdXx u.x.V.D.G.J.J.J.J.J.J.J.J.D.F.F.z.f.S dXdXdXdXdXdXdXdX",
"dXdXdXdXdXdXdXZ i.n.S.J.J.J.J.J.J.J.J.J.J.J.J.J.J.S.n.f.v dXdXdXdXdXdXdX",
"dXdXdXdXdXdXv u.n.D.J.J.J.J.J.J.J.H.J.J.J.J.J.J.J.J.D.n.f.x dXdXdXdXdXdX",
"dXdXdXdXdXu c x.S.J.J.J.J.J.J.J.J.J.J.J.J.J.J.J.J.J.J.S.z.x u dXdXdXdXdX",
"dXdXdXdXdXi v V.J.J.J.J.J.J.J.J.J.J.J.J.J.J.J.J.J.J.J.J.V.b i dXdXdXdXdX",
"dXdXdXdXdXF d.F.J.J.J.J.J.J.J.J.J.J.J.J.J.J.J.J.J.J.J.J.F.d.F dXdXdXdXdX",
"dXdXdXdX1 s.M.H.J.J.J.J.J.J.J.J.J.J.J.J.J.J.J.J.J.J.J.J.H.m.s.1 dXdXdXdX",
"dXdXdXdX2 z.G.J.J.J.J.H.J.J.J.J.J.J.J.J.J.J.J.J.J.J.J.J.J.H.z.1 dXdXdXdX",
"dXdXdXdX2 C.J.J.J.J.J.J.J.J.J.J.J.J.J.J.J.J.J.J.J.J.J.J.J.J.C.1 dXdXdXdX",
"dXdXdXdX2 C.J.J.J.J.J.J.J.J.J.J.J.J.J.J.J.J.J.J.J.J.J.J.J.J.C.2 dXdXdXdX",
"dXdXdXdX: x.H.J.J.J.J.J.J.J.J.J.J.J.J.J.J.J.J.J.J.J.J.J.J.H.c.- dXdXdXdX",
"dXdXdXdX- y.m.H.J.J.J.J.J.J.J.J.J.J.J.J.J.J.J.J.J.J.J.J.H.m.p.& dXdXdXdX",
"dXdXdXdX0.b.m.B.F.F.D.J.J.J.J.J.J.J.J.J.J.J.J.J.J.D.F.F.B.m.b.e.dXdXdXdX",
"dXdX& 0.dX].m.n.l.x.M.H.J.J.J.J.J.J.J.J.J.J.J.J.H.B.k.l.n.n.{.dXe.& dXdX",
"dXdXX E..X~.a.k.l.k.n.N.N.N.N.N.N.N.N.N.V.N.N.N.B.m.x.k.k.j.]..X/.  dXdX",
"dXdX  /..X(.n g.n.n.l.l.k.k.l.l.k.k.c.k.l.l.k.l.k.l.n.n.g.m (..X(.  dXdX",
"dXdX  '.iX}.h g.M.n.l.l.l.l.l.l.p.N N p.k.l.l.l.l.n.n.m.g.h }.iX}.  dXdX",
"dXdX+ '.uXe.% y.h.k.k.l.n.n.n.l.a.N N a.l.n.l.n.n.k.h.h.y.% _.uX}.. dXdX",
"dXdXdX7.) L 1 * j M a.n.n.n.l.l.x.k.k.x.l.n.n.n.l.j.M j * , L 7.8.dXdXdX",
"dXdXdXdX    a q.E.K M s.j.h.k.n.n.m.n.m.n.k.g.j.s.n K E.q.H     dXdXdXdX",
"dXdXdXdXdX+ H `.[.!   1 c N g.n.n.l.l.n.n.g.M c 2   ` XX`.P   dXdXdXdXdX",
"dXdXdXdXdXdXdX/.E.P . O o c V f.f.f.f.f.f.V c # O   P Q./.dXdXdXdXdXdXdX",
"dXdXdXdXdXdXdXX - : 2 H 6 > # @ @ @ @ @ @ # > 6 H 3 : o   dXdXdXdXdXdXdX",
"dXdXdXdX% % : - - o K R./ O       .         O ~ R.E           X dXdXdXdX",
"dXdXdX6.U a 2 > > O ! W.!.K ! _ q._ _ _ _ ! K R.W.Y 7 6.8.0.7.6.dXdXdXdX",
"dXdX2 8.dXdXdXdXdX5 7 H _ W.{. X X|.|.|.|.`.W./ H   5.dXdXdXdXdX8.% dXdX",
"dXdX& 8.dXdXdXdXdXf.m * R R.).[.[.[.[.XX[.).R.Y = j R.pXdXdXdXdXrXX dXdX",
"dXdX: 7.dXdXdX].l.l.j.N c H A A P L K P A Z a c N g.l.n.{.dXdXsXtX  dXdX",
"dXdX2 U dXdX/.b.M.m.k.g.t.j $.$.9 * = 9 $.o.j t.j.l.m.m.b._.aXdXrX  dXdX",
"dXdX2 a dX( t.h.n.l.n.n.h.B >X$X2.N t.2.$X3.B g.n.l.n.n.k.t./.dXr.% dXdX",
"dXdX1 #.dXb.l.n.m.l.l.m.I.>X=X;XP.k.n.P.;X=X3.I.m.n.l.n.n.k.~.dXw.* dXdX",
"dXdX1 5.dXb.m.k.k.l.n.l.T.=X3XwXY.A.A.Y.wX3X=XU.l.n.l.l.l.n.^.dX9.- dXdX",
"dXdXdXdXL V p.p.a.n.l.a.4.1X3XqX2XeXeX,XqXdX1X4.a.l.n.a.y.p.( U dXdXdXdX",
"dXdXdXdX, k m k B j.v.<.%X0X9X3X8X8X8X8X3XdX6X>XG v.v.B j j h % dXdXdXdX",
"dXdXdXdXdX6 l l 4 S 1.%X-X6X6X5X4X4X4X5X5X6X6X:X%X1.S < l z < dXdXdXdXdX",
"dXdXdXdXdXdXg s p e =.#X=X6X0X5X6X5X6X5X6X6X6X1X#X=.u @.f s dXdXdXdXdXdX",
"dXdXdXdXdXdXdXdXdXq &.+X7X6X6X6X5X6X5X6X6X6X6X<X#X%.w dXdXdXdXdXdXdXdXdX",
"dXdXdXdXdXdXdXdXdXw *.@X*X<X5X6X6X6X6X6X0X7X<X*X@X%.w dXdXdXdXdXdXdXdXdX",
"dXdXdXdXdXdXdXdXdXq =.+X@X@X<X6X6X5X5X5X6X<X@X@X+X=.w dXdXdXdXdXdXdXdXdX",
"dXdXdXdXdXdXdXdXX.+.-.:.+X@X&X*X*X<X*X*X*X*X&X+X:.-.+.@.dXdXdXdXdXdXdXdX",
"dXdXdXdXdXdXdX{ ..-.-.=.OX@X@X@X@X@X@X@X@X@X+X:.=.-.-...' dXdXdXdXdXdXdX",
"dXdXdXdXdXdX{ *.-.-.-.-.-.:.+X&X&X&X&X&X&X+X:.;.-.-.-.=.*.[ dXdXdXdXdXdX",
"dXdXdXdXdX8 ] =.>.-.-.-.*.*.;.oXoXoXoXoXoX>.+.*.-.-.-.>.=.] 0 dXdXdXdXdX",
"dXdXdXdXdX0 ] *.-.-.-.-.+.' ] [  . .X. .[ ' ' +.;.-.-.>.*.] 0 dXdXdXdXdX",
"dXdXdXdXdX8 ] =.;.-.-.-.*...' q e dXdXe 8 ] ..*.-.-.-.;.=.' 8 dXdXdXdXdX",
"dXdXdXdXdXdX] *.-.-.-.-.;.-.*.0 dXdXdXdX' %.-.-.-.-.-.-.*.{ dXdXdXdXdXdX",
"dXdXdXdXdXdXdX#.X. .*.-.>.>.*.0 dXdXdXdX0 %.-.:.=.*. .X.#.dXdXdXdXdXdXdX",
"dXdXdXdXdXdXdXH l y X.=.-.=.+.0 dXdXdXdX0 ..=.-.=.X.y ; L dXdXdXdXdXdXdX",
"dXdXdXdXdXdXI T R J r  .|  .[ ' dXdXdXdX'  .| |  .r J R E I dXdXdXdXdXdX",
"dXdXdXdXdXo z Q ^ R J I t r } ' dXdXdXdX' } r t I K W ^ Q l o dXdXdXdXdX",
"dXdXdXdXdX# 4 W L.~ ~ ~ W J t ' dXdXdXdX' t J E ~ ~ ~ ^ W z # dXdXdXdXdX",
"dXdXdXdXdX> 3 K T T R R T K t w dXdXdXdXw t A T W R R Y K 3 > dXdXdXdXdX",
"dXdXdXdXdX1 1 2 , 1 2 2 1 2 4 1 dXdXdXdX2 4 2 2 2 2 2 2 2 2 2 dXdXdXdXdX",
"dXdXdXdXdXdXdXdXdXdXdXdXdXdXdXdXdXdXdXdXdXdXdXdXdXdXdXdXdXdXdXdXdXdXdXdX",
"dXdXdXdXdXdXdXdXdXdXdXdXdXdXdXdXdXdXdXdXdXdXdXdXdXdXdXdXdXdXdXdXdXdXdXdX",
"dXdXdXdXdXdXdXdXdXdXdXdXdXdXdXdXdXdXdXdXdXdXdXdXdXdXdXdXdXdXdXdXdXdXdXdX",
"dXdXdXdXdXdXdXdXdXdXdXdXdXdXdXdXdXdXdXdXdXdXdXdXdXdXdXdXdXdXdXdXdXdXdXdX"
};
