/* XPM */
static char *result[] = {
/* columns rows colors chars-per-pixel */
"64 64 192 2 ",
"   c #000000",
".  c #01010B",
"X  c #06090D",
"o  c #0C0800",
"O  c #130A00",
"+  c #1A0F00",
"@  c #1A1200",
"#  c #000212",
"$  c #050A12",
"%  c #0A0E13",
"&  c #00001D",
"*  c #0C1115",
"=  c #0D1318",
"-  c #06111B",
";  c #1A1917",
":  c #221600",
">  c #251900",
",  c #2F2402",
"<  c #352600",
"1  c #3D2B00",
"2  c #34260A",
"3  c #28231A",
"4  c #000123",
"5  c #00022C",
"6  c #00082E",
"7  c #00142A",
"8  c #00192D",
"9  c #000335",
"0  c #000A33",
"q  c #00003B",
"w  c #000D38",
"e  c #001235",
"r  c #00173C",
"t  c #292722",
"y  c #2D2A26",
"u  c #2B303E",
"i  c #37393B",
"p  c #412D00",
"a  c #453100",
"s  c #4F3B00",
"d  c #523C00",
"f  c #4F3F30",
"g  c #554300",
"h  c #5B4200",
"j  c #614700",
"k  c #664A00",
"l  c #6B4E00",
"z  c #7A4400",
"x  c #6F5200",
"c  c #6F510B",
"v  c #755500",
"b  c #785700",
"n  c #745A01",
"m  c #7D5B00",
"M  c #745F1E",
"N  c #7D6300",
"B  c #5D4F2F",
"V  c #534A37",
"C  c #554D3C",
"Z  c #634A20",
"A  c #000045",
"S  c #001D44",
"D  c #001545",
"F  c #002242",
"G  c #3E4144",
"H  c #464748",
"J  c #76614C",
"K  c #834F00",
"L  c #855300",
"P  c #8A5701",
"I  c #825F00",
"U  c #8C5B00",
"Y  c #905D00",
"T  c #85551E",
"R  c #846200",
"E  c #8A6700",
"W  c #8C6F01",
"Q  c #936300",
"!  c #936B00",
"~  c #9B6C00",
"^  c #986700",
"/  c #8E7105",
"(  c #967100",
")  c #9A7100",
"_  c #9D7D00",
"`  c #966A19",
"'  c #A06F00",
"]  c #A57500",
"[  c #A57B00",
"{  c #AA7C00",
"}  c #A87700",
"|  c #8A6930",
" . c #A77D3B",
".. c #867349",
"X. c #8E6E4C",
"o. c #A28200",
"O. c #AE8201",
"+. c #AE8B00",
"@. c #B38400",
"#. c #B88700",
"$. c #B58901",
"%. c #BA8B00",
"&. c #BC9100",
"*. c #B48716",
"=. c #BD9119",
"-. c #BA9537",
";. c #B0873B",
":. c #C18F00",
">. c #C49500",
",. c #C89600",
"<. c #C49900",
"1. c #CB9A00",
"2. c #D19E00",
"3. c #C99E15",
"4. c #CDA500",
"5. c #D4A400",
"6. c #D9A600",
"7. c #D5A900",
"8. c #DBAC00",
"9. c #D5A60F",
"0. c #DDB000",
"q. c #DCAD11",
"w. c #E0AF00",
"e. c #E4B400",
"r. c #E7B900",
"t. c #EBBB00",
"y. c #E8B400",
"u. c #F0BE00",
"i. c #EDBF14",
"p. c #E7B818",
"a. c #C49827",
"s. c #DBAF24",
"d. c #DDB129",
"f. c #DDB13B",
"g. c #D0A439",
"h. c #E7B934",
"j. c #EFC000",
"k. c #F4C300",
"l. c #F8C700",
"z. c #F7C800",
"x. c #FBCA00",
"c. c #F9C90B",
"v. c #F2C30F",
"b. c #FFD200",
"n. c #FFDA00",
"m. c #FACA14",
"M. c #F5C61C",
"N. c #F7C91F",
"B. c #FACB1D",
"V. c #FFD011",
"C. c #FFE100",
"Z. c #F7C923",
"A. c #F9CA23",
"S. c #FCCD2B",
"D. c #F3C527",
"F. c #FFD124",
"G. c #FFD22D",
"H. c #EDC03C",
"J. c #FACC35",
"K. c #FACC3B",
"L. c #F5C83A",
"P. c #FFD335",
"I. c #FFD239",
"U. c #FFD93C",
"Y. c #9E884E",
"T. c #DFB64F",
"R. c #C4A05B",
"E. c #D1AC5C",
"W. c #E2B94C",
"Q. c #E3BC54",
"!. c #F6CB4D",
"~. c #F9CD4D",
"^. c #F6C944",
"/. c #FFD342",
"(. c #FED24C",
"). c #F9CE52",
"_. c #F5CC5D",
"`. c #F9CF5C",
"'. c #F7CD54",
"]. c #FFD953",
"[. c #FBD159",
"{. c #FFE14C",
"}. c #F7CE62",
"|. c #F8CE61",
" X c #FBD161",
".X c #FFD969",
"XX c #F8D26E",
"oX c #FBD572",
"OX c #EAC576",
"+X c #F9D683",
"@X c #F7D894",
"#X c None",
/* pixels */
"#X#X#X#X#X#X#X#X#X#X#X#X#X#X#X#X#X#X#X#X                                                #X#X#X#X#X#X#X#X#X#X#X#X#X#X#X#X#X#X#X#X",
"#X#X#X#X#X#X#X#X#X#X#X#X#X#X#X#X#X#X#X#X                                                #X#X#X#X#X#X#X#X#X#X#X#X#X#X#X#X#X#X#X#X",
"#X#X#X#X#X#X#X#X#X#X#X#X#X#X#X#X#X#X#X#X      X $ % * * = = = = - = ; 3 2 1 p p p p 1 1 #X#X#X#X#X#X#X#X#X#X#X#X#X#X#X#X#X#X#X#X",
"#X#X#X#X#X#X#X#X#X#X#X#X#X#X#X#X#X#X#X        # 5 e r F F F F F S F u f Z c b m m b v k d #X#X#X#X#X#X#X#X#X#X#X#X#X#X#X#X#X#X#X",
"#X#X#X#X#X#X#X#X#X#X#X#X#X                  o 7 q #X#X#X#X#X#X#X#X#X#XJ | ` ) [ ] ) ! I h             #X#X#X#X#X#X#X#X#X#X#X#X#X",
"#X#X#X#X#X#X#X#X#X#X#X#X                      8 #X#X#X#X#X#X#X#X#X#X#X#X;.*.%.>.:.%.{ ! l :             #X#X#X#X#X#X#X#X#X#X#X#X",
"#X#X#X#X#X#X#X#X#X#X#X#X      X X X * $ . # y H #X#X#X#X#X#X#X#X#X#X#X#Xg.3.2.6.5.1.>.O.E h : O < a 1 1 #X#X#X#X#X#X#X#X#X#X#X#X",
"#X#X#X#X#X#X#X#X#X#X#X        # 4 6 e A A D H X.#X#X#X#X#X#X#X#X#X#X#X^.h.q.w.y.e.e.5.<.{ R l l m I v l h #X#X#X#X#X#X#X#X#X#X#X",
"#X#X#X#X#X#X#X#X#X            & q #X#X#X#X#X#X#XQ.^.P.P.P.S.S.S.G.S.S.M.i.t.t.u.u.t.e.5.%.[ ! ~ [ [ ) R l 1   #X#X#X#X#X#X#X#X#X",
"#X#X#X#X#X#X#X#X            . 7 #X#X#X#X#X#X#X#X!.Z.x.x.x.l.x.x.l.x.l.l.z.z.k.l.l.z.k.8.4.%.O.@.%.&.O.) v 1     #X#X#X#X#X#X#X#X",
"#X#X#X#X#X#X#X#X            3 V #X#X#X#X#X#X#X#XK.m.n.n.c.B.Z.A.A.A.A.B.m.c.x.x.b.x.z.t.8.5.,.,.1.1.%.{ R p     #X#X#X#X#X#X#X#X",
"#X#X#X#X#X#X#X#X    X . & 7 V #X#X#X#X#X#X#X#X(.A.b.n.m.J.~.`.|.}.|.`.~.I.V.b.x.b.x.x.u.t.8.6.6.5.1.&.[ m <     #X#X#X#X#X#X#X#X",
"#X#X#X#X#X#X#X#X    X & 9 #X#X#X#XL.I./.(.(./.S.x.n.x.J.`.+X#X#X#X#X@XoX].F.b.n.b.x.l.z.u.t.e.8.6.1.#.] v O     #X#X#X#X#X#X#X#X",
"#X#X#X#X#X#X#X#X    X 5 #X#X#X#XJ.N.c.m.B.N.m.x.b.n.m.!.+X#X#X#X#X#X#X@X`.S.b.n.x.x.l.x.l.z.u.e.8.1.@.! v >     #X#X#X#X#X#X#X#X",
"#X#X#X#X#X#X#X#X    $ 9 #X#X#X#XP.c.n.n.n.b.x.x.x.c.L.`.#X#X#X#X#X#X#X@X_.D.c.x.x.l.x.x.x.x.x.t.8.1.@.) I h >   #X#X#X#X#X#X#X#X",
"#X#X#X#X#X#X#X      # 9 #X#X#X#XP.c.n.C.n.b.x.N.J.~.`.oX#X#X#X#X#X#X@XOXT.s.e.t.k.l.x.x.b.x.l.t.8.1.@.} ) R x j d #X#X#X#X#X#X#X",
"#X#X#X#X#X          . 9 #X#X#X#XI.m.x.n.n.x.m.K. X#X#X#XXX|.[. X.X.X|.W.g.=.,.5.e.k.x.x.b.x.k.t.5.>.@.{ { { ) R l 1   #X#X#X#X#X",
"#X#X#X#X            . 9 #X#X#X#XI.m.x.n.b.l.A.).#X#X#X#X`.J.N.B.F.P.D.s.=.) ] %.8.z.x.b.x.x.k.e.5.,.%.@.%.:.O.( v 1     #X#X#X#X",
"#X#X#X#X            3 i #X#X#X#XK.m.x.b.b.x.Z.|.#X#X#X#X'.m.n.n.n.b.k.6.@.U U *.7.k.x.b.x.x.k.e.8.1.>.>.1.1.%.o.R p     #X#X#X#X",
"#X#X#X#X    X # 4 8 V ..#X#X#X/.S.c.z.x.x.l.A._.#X#X#X#X).c.n.n.b.l.t.1.[ P U O.7.t.x.b.x.x.z.t.e.8.5.2.2.1.>.[ R a     #X#X#X#X",
"#X#X#X#X    X 4 q #X#X#XW.L.J.A.m.c.x.x.x.l.Z.'.#X#X#X#X(.m.b.x.k.e.5.%.~ U Q $.8.j.x.x.x.x.z.k.t.t.e.8.6.1.%.] m p     #X#X#X#X",
"#X#X#X#X    % 5 #X#X#X#XL.M.c.l.x.l.z.l.x.x.N.).#X#X#X#X(.B.x.l.e.2.:.{ ^ U ~ $.8.j.x.b.x.l.z.l.x.z.t.e.8.1.@.) m p     #X#X#X#X",
"#X#X#X#X    % 0 #X#X#X#XP.c.b.n.x.x.z.z.x.z.N.~.#X#X#X#X(.B.x.u.w.,.@.] Q U ~ %.8.k.x.x.x.z.l.x.x.x.x.t.8.1.@.~ b 1     #X#X#X#X",
"#X#X#X#X    % 0 #X#X#X#XP.x.n.n.x.z.x.z.x.z.N.~.#X#X#X#X(.B.x.k.6.,.{ ' Q U ~ %.7.k.x.b.x.z.x.x.x.b.z.t.w.1.@.) b p     #X#X#X#X",
"#X#X#X#X    % 0 #X#X#X#XP.c.b.n.x.x.x.z.x.l.Z.!.#X#X#X#X(.B.x.k.w.,.@.] Q U ~ %.7.k.x.x.x.x.z.x.x.x.k.t.8.1.@.) b 1     #X#X#X#X",
"#X#X#X#X    % 0 #X#X#X#XJ.m.x.x.x.x.z.z.x.l.N.~.#X#X#X#X(.B.x.k.w.,.#.] Q U ~ %.8.j.x.x.x.x.z.z.x.x.k.r.8.1.@.) b p     #X#X#X#X",
"#X#X#X#X    % 0 #X#X#X#XP.m.x.b.x.l.l.x.x.l.N.~.#X#X#X#X(.B.l.l.w.1.#.] ^ U ~ %.7.k.x.x.x.z.z.x.x.x.k.t.8.1.@.) b 1     #X#X#X#X",
"#X#X#X#X    X 0 #X#X#X#XK.m.l.x.x.l.z.z.x.l.B.!.#X#X#X#X(.A.l.l.w.,.#.] Q U ~ %.8.k.b.x.x.x.x.x.b.x.k.t.8.1.@.~ b 1     #X#X#X#X",
"#X#X#X#X    % 6 #X#X#X#XI.m.x.x.l.x.l.x.x.x.Z.~.#X#X#X#X(.B.l.k.8.1.#.] Q U ~ %.8.j.x.b.x.l.z.x.x.x.z.t.8.1.@.) b p     #X#X#X#X",
"#X#X#X#X    % 0 #X#X#X#XK.m.x.x.l.z.l.l.x.z.Z.!.#X#X#X#X(.B.x.k.w.,.%.] ^ U ~ %.7.k.x.b.x.z.z.x.x.x.k.t.8.1.@.) b p     #X#X#X#X",
"#X#X#X#X    % 0 #X#X#X#XP.m.l.x.l.l.l.x.x.x.N.!.#X#X#X#X(.B.x.k.w.1.%.] Q U ~ %.8.j.x.x.x.l.z.x.x.x.k.t.8.1.@.( b 1     #X#X#X#X",
"#X#X#X#X    % 0 #X#X#X#XI.m.l.x.x.z.l.x.x.x.N.~.#X#X#X#X(.B.x.l.8.1.$.[ Q U ~ %.8.k.x.x.x.x.x.x.x.x.k.r.8.1.@.~ m 1     #X#X#X#X",
"#X#X#X#X    % 0 #X#X#X#XI.m.x.x.z.l.l.x.x.l.N.~.#X#X#X#X(.B.x.u.8.1.#.] Q U ~ %.7.k.x.b.x.x.z.x.x.x.z.r.8.1.@.) b p     #X#X#X#X",
"#X#X#X#X    % 6 #X#X#X#XI.m.z.x.l.x.l.x.x.l.B.~.#X#X#X#X(.B.x.k.8.1.%.] Q U ~ %.8.j.x.x.x.z.z.x.x.x.k.r.8.1.@.) b p     #X#X#X#X",
"#X#X#X#X    % 0 #X#X#X#XI.m.x.x.x.z.l.l.x.x.N.~.#X#X#X#X(.B.x.k.w.1.@.] ^ U ~ %.8.j.x.b.x.z.z.x.x.x.k.t.8.1.@.) b p     #X#X#X#X",
"#X#X#X#X    * w #X#X#X#XI.m.x.x.z.z.l.x.x.x.N.~.#X#X#X#X(.A.l.k.w.1.%.] Q U ~ &.8.k.x.x.x.x.z.x.x.x.k.r.8.1.@.) b 1     #X#X#X#X",
"#X#X#X#X    % e #X#X#X#XK.m.x.x.l.z.l.l.x.x.N.~.#X#X#X#X(.B.x.k.8.1.%.] Q U ~ %.8.j.x.b.x.l.z.z.x.x.k.t.8.1.@.) b p     #X#X#X#X",
"#X#X#X#X    % e #X#X#X#XI.m.x.x.l.x.x.l.x.l.N.~.#X#X#X#X(.B.x.k.8.1.#.] Q U ~ %.8.j.x.b.x.l.z.x.x.x.k.r.8.1.@.~ b p     #X#X#X#X",
"#X#X#X#X    % e #X#X#X#XI.m.x.x.x.z.z.z.x.x.N.~.#X#X#X#X(.B.l.k.w.1.%.] ^ U ~ %.8.j.x.x.x.x.x.x.x.x.z.r.6.1.@.) b 1     #X#X#X#X",
"#X#X#X#X    * e #X#X#X#XI.c.x.b.x.x.l.l.x.x.B.).#X#X#X#X].B.x.k.8.1.$.] Q U ~ %.8.k.x.x.x.z.z.x.b.x.z.t.w.1.@.~ b 1     #X#X#X#X",
"#X#X#X#X    * w #X#X#X#XU.l.n.n.b.l.z.l.x.l.Z.).#X#X#X#X].F.x.k.e.1.@.} Q U ~ %.8.k.x.x.x.z.x.x.b.x.z.t.0.1.@.) b p     #X#X#X#X",
"#X#X#X#X    % 0 #X#X#X#XP.l.b.n.x.x.z.x.x.x.B.[.#X#X#X#X].S.x.k.8.1.#.] Q U ~ %.8.j.x.x.x.z.z.x.x.x.z.t.8.1.@.) b 1     #X#X#X#X",
"#X#X#X#X    % 5 #X#X#X#XK.Z.m.c.c.x.z.x.x.x.N.!.#X#X#X#X!.M.k.u.8.1.#.} Q U ~ %.7.k.x.b.x.x.z.z.x.l.k.e.8.1.@.) m 1     #X#X#X#X",
"#X#X#X#X    X 4 9 #X#X#XW.^.J.S.B.c.x.x.x.x.M.h.E.#X#XR.f.p.e.e.5.,.%.} Q L ^ $.8.k.x.b.x.x.z.k.u.t.e.8.5.1.$.] m p     #X#X#X#X",
"#X#X#X#X    . . & 7 C ..#X#X#X(.S.m.x.b.x.x.v.d.-.X.X. .a.9.8.6.5.,.:.} Y z E @.5.k.x.b.x.x.z.t.e.8.5.4.5.1.:.{ R a     #X#X#X#X",
"#X#X#X#X            t H #X#X#X#XK.B.x.b.x.x.k.q.*.` T ` *.>.1.2.1.,.:.{ Y L Q @.8.t.x.b.b.x.z.t.8.1.>.>.1.1.%.{ I a     #X#X#X#X",
"#X#X#X#X            # q #X#X#X#X/.B.x.b.b.x.k.8.>.} ~ ' } @.#.%.%.%.%.{ ] ~ ] >.0.j.x.x.x.x.z.e.6.:.@.#.%.%.@.( b 1     #X#X#X#X",
"#X#X#X#X#X          . q #X#X#X#XI.m.n.n.b.x.k.e.6.1.%.@.{ } ] ] ] { { @.@.%.,.7.r.k.x.b.b.x.z.e.5.>.@.{ { [ ( R k 1   #X#X#X#X#X",
"#X#X#X#X#X#X#X      # q #X#X#X#XU.x.n.n.n.l.l.u.t.e.5.>.O.~ U P P Q ) @.>.5.e.t.u.k.x.x.b.x.z.t.8.,.@.] ! R v j d #X#X#X#X#X#X#X",
"#X#X#X#X#X#X#X#X    % 0 #X#X#X#XU.c.n.n.b.x.l.l.x.z.r.5.%.~ K z z K ~ %.5.t.k.x.l.z.x.x.x.x.k.t.8.1.@.) I h >   #X#X#X#X#X#X#X#X",
"#X#X#X#X#X#X#X#X    % 6 #X#X#X#XI.Z.m.x.z.x.x.x.b.x.z.e.<.[ E U P Y { <.0.z.x.b.x.x.z.z.x.x.k.e.8.1.#.~ v :     #X#X#X#X#X#X#X#X",
"#X#X#X#X#X#X#X#X    X 4 q #X#X#X#X^.U.G.B.c.b.n.n.b.x.r.5.,.#.@.O.$.<.7.t.x.b.b.b.x.z.z.k.t.e.8.6.1.%.) v +     #X#X#X#X#X#X#X#X",
"#X#X#X#X#X#X#X#X      # & 8 C #X#X#X#X{.G.m.n.n.b.x.z.t.r.8.5.5.5.7.0.t.k.x.x.n.x.x.x.k.t.w.6.5.5.2.&.{ m <     #X#X#X#X#X#X#X#X",
"#X#X#X#X#X#X#X#X            t G #X#X#X#XU.m.n.n.x.x.z.z.k.k.k.k.k.j.k.k.z.l.x.x.b.x.x.t.w.2.,.,.1.1.%.[ R a     #X#X#X#X#X#X#X#X",
"#X#X#X#X#X#X#X#X            . q #X#X#X#XH.v.x.b.x.x.x.x.x.x.x.x.b.x.x.x.z.z.k.k.z.z.t.e.4.%.{ @.%.%.@.) v 1     #X#X#X#X#X#X#X#X",
"#X#X#X#X#X#X#X#X#XX           4 A #X#XY.-.3.0.t.z.l.x.b.b.x.n.b.b.b.x.z.k.t.e.t.t.t.e.5.%.[ ! ~ ] [ ) R l 1   #X#X#X#X#X#X#X#X#X",
"#X#X#X#X#X#X#X#X#X#X#X        & 5 9 i B M / +.4.r.z.b.b.n.b.b.b.n.b.x.z.t.8.8.8.w.w.5.>.[ R l x m m v l h #X#X#X#X#X#X#X#X#X#X#X",
"#X#X#X#X#X#X#X#X#X#X#X#X      . # $ ; # . , n +.7.k.b.n.x.x.x.b.b.x.x.j.8.5.,.,.2.2.>.O.E h : O < a 1 1 #X#X#X#X#X#X#X#X#X#X#X#X",
"#X#X#X#X#X#X#X#X#X#X#X#X                    , W &.r.k.z.z.t.j.j.k.j.t.7.4.%.@.@.%.%.{ ! x :             #X#X#X#X#X#X#X#X#X#X#X#X",
"#X#X#X#X#X#X#X#X#X#X#X#X#X      o             n o.4.7.7.7.4.4.4.7.4.4.&.O.) Q ! ) ) ! m h             #X#X#X#X#X#X#X#X#X#X#X#X#X",
"#X#X#X#X#X#X#X#X#X#X#X#X#X#X#X#X#X#X#X        g N / o.o._ _ _ _ _ _ _ W R n v v b b v j s #X#X#X#X#X#X#X#X#X#X#X#X#X#X#X#X#X#X#X",
"#X#X#X#X#X#X#X#X#X#X#X#X#X#X#X#X#X#X#X#X    O < a g g g g g g g g g g s a 1 1 1 a p 1 1 #X#X#X#X#X#X#X#X#X#X#X#X#X#X#X#X#X#X#X#X",
"#X#X#X#X#X#X#X#X#X#X#X#X#X#X#X#X#X#X#X#X@ o                                             #X#X#X#X#X#X#X#X#X#X#X#X#X#X#X#X#X#X#X#X",
"#X#X#X#X#X#X#X#X#X#X#X#X#X#X#X#X#X#X#X#X@ o                                             #X#X#X#X#X#X#X#X#X#X#X#X#X#X#X#X#X#X#X#X"
};
