/* XPM */
static char *result[] = {
/* columns rows colors chars-per-pixel */
"64 64 165 2 ",
"   c #000000",
".  c #00000D",
"X  c #05090F",
"o  c #080B0F",
"O  c #120700",
"+  c #1B0F00",
"@  c #1D1200",
"#  c #000414",
"$  c #050A12",
"%  c #090D12",
"&  c #00001B",
"*  c #000918",
"=  c #1F1B15",
"-  c #221600",
";  c #201C16",
":  c #342300",
">  c #392700",
",  c #3B2900",
"<  c #26221C",
"1  c #372D11",
"2  c #000024",
"3  c #000C26",
"4  c #00002C",
"5  c #000828",
"6  c #00132B",
"7  c #000132",
"8  c #000A34",
"9  c #00013B",
"0  c #272520",
"q  c #3A3B3C",
"w  c #353738",
"e  c #402D00",
"r  c #443100",
"t  c #4B3400",
"y  c #4E3900",
"u  c #483909",
"i  c #47390A",
"p  c #553C00",
"a  c #6C300C",
"s  c #743D0C",
"d  c #6B3014",
"f  c #642321",
"g  c #602333",
"h  c #6F3C31",
"j  c #534101",
"k  c #5D4200",
"l  c #624600",
"z  c #644800",
"x  c #6C4E00",
"c  c #7A4403",
"v  c #775700",
"b  c #795700",
"n  c #7D5B00",
"m  c #7A481A",
"M  c #4A412E",
"N  c #4D4432",
"B  c #504735",
"V  c #7A4720",
"C  c #6E5C2E",
"Z  c #794D3F",
"A  c #72443D",
"S  c #000040",
"D  c #5A2B4D",
"F  c #693E4B",
"G  c #3F4042",
"H  c #69404E",
"J  c #794E41",
"K  c #7A5145",
"L  c #805D00",
"P  c #8F5D00",
"I  c #865619",
"U  c #876400",
"Y  c #8B6500",
"T  c #8E6900",
"R  c #956500",
"E  c #936B00",
"W  c #9A6900",
"Q  c #9B7100",
"!  c #9C7B00",
"~  c #997B0A",
"^  c #996C1B",
"/  c #8B711E",
"(  c #A37300",
")  c #A57B00",
"_  c #AB7E00",
"`  c #836E3B",
"'  c #9C743C",
"]  c #806D44",
"[  c #817047",
"{  c #987148",
"}  c #AE8200",
"|  c #B38500",
" . c #B78800",
".. c #BA8B00",
"X. c #BD9000",
"o. c #BD9017",
"O. c #BF9E2D",
"+. c #C59400",
"@. c #C89600",
"#. c #C69801",
"$. c #CC9B00",
"%. c #C0920C",
"&. c #D09E00",
"*. c #CCA300",
"=. c #D4A400",
"-. c #D3A800",
";. c #DDAC00",
":. c #DBAD0C",
">. c #DFB000",
",. c #CCA612",
"<. c #E1AF00",
"1. c #E1B100",
"2. c #EAB700",
"3. c #EBBB00",
"4. c #F0BF00",
"5. c #E3B617",
"6. c #C79D2F",
"7. c #C39937",
"8. c #C2A02F",
"9. c #E1B422",
"0. c #E6BB38",
"q. c #EFC000",
"w. c #F3C300",
"e. c #F8C700",
"r. c #FDCC00",
"t. c #F4C50C",
"y. c #FBCA0B",
"u. c #FFD200",
"i. c #FFDB00",
"p. c #FFD30A",
"a. c #EFC316",
"s. c #F6C712",
"d. c #F9CA13",
"f. c #F7C819",
"g. c #F8C919",
"h. c #FFD314",
"j. c #FFD61D",
"k. c #FFE200",
"l. c #EDC02E",
"z. c #F9C921",
"x. c #FCCD2C",
"c. c #FFD32D",
"v. c #FFDA2D",
"b. c #FFD124",
"n. c #EEC439",
"m. c #FECE36",
"M. c #F4C63D",
"N. c #F7CA38",
"B. c #FACC3B",
"V. c #FFD234",
"C. c #FFD63C",
"Z. c #FFD83A",
"A. c #A58C49",
"S. c #DFB844",
"D. c #DFB84A",
"F. c #DBB34C",
"G. c #D6AF55",
"H. c #FCCF42",
"J. c #F2C743",
"K. c #FDD143",
"L. c #FFDA45",
"P. c #FFD64A",
"I. c #FDD250",
"U. c #FFE048",
"Y. c None",
/* pixels */
"Y.Y.Y.Y.Y.Y.Y.Y.Y.Y.Y.Y.Y.Y.Y.Y.Y.Y.Y.Y.Y.Y.Y.Y.                                Y.Y.Y.Y.Y.Y.Y.Y.Y.Y.Y.Y.Y.Y.Y.Y.Y.Y.Y.Y.Y.Y.Y.Y.",
"Y.Y.Y.Y.Y.Y.Y.Y.Y.Y.Y.Y.Y.Y.Y.Y.Y.Y.Y.Y.Y.Y.Y.Y.                                Y.Y.Y.Y.Y.Y.Y.Y.Y.Y.Y.Y.Y.Y.Y.Y.Y.Y.Y.Y.Y.Y.Y.Y.",
"Y.Y.Y.Y.Y.Y.Y.Y.Y.Y.Y.Y.Y.Y.Y.Y.Y.Y.Y.Y.Y.Y.Y.Y.X $ $ # & * ; 1 i j j j y r , > Y.Y.Y.Y.Y.Y.Y.Y.Y.Y.Y.Y.Y.Y.Y.Y.Y.Y.Y.Y.Y.Y.Y.Y.",
"Y.Y.Y.Y.Y.Y.Y.Y.Y.Y.Y.Y.Y.Y.Y.Y.Y.Y.Y.Y.Y.Y.Y.& 2 4 7 9 S S q C / ~ } ! E n x k t Y.Y.Y.Y.Y.Y.Y.Y.Y.Y.Y.Y.Y.Y.Y.Y.Y.Y.Y.Y.Y.Y.Y.",
"Y.Y.Y.Y.Y.Y.Y.Y.Y.Y.Y.Y.Y.Y.Y.Y.Y.Y.Y.Y.Y.    & Y.Y.Y.Y.Y.Y.Y.A.6.,.-.*.X.) Y v y     Y.Y.Y.Y.Y.Y.Y.Y.Y.Y.Y.Y.Y.Y.Y.Y.Y.Y.Y.Y.Y.",
"Y.Y.Y.Y.Y.Y.Y.Y.Y.Y.Y.Y.Y.Y.Y.Y.Y.Y.Y.Y.      3 Y.Y.Y.Y.Y.Y.Y.Y.n.a.w.w.;.X.) L l @     Y.Y.Y.Y.Y.Y.Y.Y.Y.Y.Y.Y.Y.Y.Y.Y.Y.Y.Y.Y.",
"Y.Y.Y.Y.Y.Y.Y.Y.Y.Y.Y.Y.Y.Y.Y.Y.Y.Y.Y.Y.    < M Y.Y.Y.Y.Y.Y.Y.Y.C.j.u.r.4.=.+.) T k @   Y.Y.Y.Y.Y.Y.Y.Y.Y.Y.Y.Y.Y.Y.Y.Y.Y.Y.Y.Y.",
"Y.Y.Y.Y.Y.Y.Y.Y.Y.Y.Y.Y.Y.Y.Y.Y.Y.Y.Y.& 2 3 M ` Y.Y.Y.Y.Y.Y.Y.L.v.h.u.u.4.1.=.+.} T x p t Y.Y.Y.Y.Y.Y.Y.Y.Y.Y.Y.Y.Y.Y.Y.Y.Y.Y.Y.",
"Y.Y.Y.Y.Y.Y.Y.Y.Y.Y.Y.Y.Y.Y.Y.Y.Y.  X 2 9 Y.Y.Y.0.N.V.V.V.m.c.b.h.u.u.u.e.q.1.-.#.| E b z ,   Y.Y.Y.Y.Y.Y.Y.Y.Y.Y.Y.Y.Y.Y.Y.Y.Y.",
"Y.Y.Y.Y.Y.Y.Y.Y.Y.Y.Y.Y.Y.Y.Y.Y.    % 4 Y.Y.Y.Y.N.g.y.e.e.y.e.e.r.r.r.r.r.e.q.1.-.+._ E x ,     Y.Y.Y.Y.Y.Y.Y.Y.Y.Y.Y.Y.Y.Y.Y.Y.",
"Y.Y.Y.Y.Y.Y.Y.Y.Y.Y.Y.Y.Y.Y.Y.Y.    $ 7 Y.Y.Y.Y.V.e.u.i.r.d.g.t.t.w.w.w.r.r.w.3.<.&. .( L e     Y.Y.Y.Y.Y.Y.Y.Y.Y.Y.Y.Y.Y.Y.Y.Y.",
"Y.Y.Y.Y.Y.Y.Y.Y.Y.Y.Y.Y.Y.Y.Y.Y.    . 7 Y.Y.Y.Y.V.r.i.d.x.B.N.0.9.:.>.3.w.r.r.w.1.&. .Q b :     Y.Y.Y.Y.Y.Y.Y.Y.Y.Y.Y.Y.Y.Y.Y.Y.",
"Y.Y.Y.Y.Y.Y.Y.Y.Y.Y.Y.Y.Y.Y.Y.Y.    . 7 Y.Y.Y.Y.V.e.p.x.I.Y.Y.G.7.o.+.;.3.e.e.q.<.$.| E x O     Y.Y.Y.Y.Y.Y.Y.Y.Y.Y.Y.Y.Y.Y.Y.Y.",
"Y.Y.Y.Y.Y.Y.Y.Y.Y.Y.Y.Y.Y.Y.Y.Y.    # 7 Y.Y.Y.Y.V.e.d.B.Y.Y.Y.Y.{ ^ _ $.2.w.e.3.;.@.} E x -     Y.Y.Y.Y.Y.Y.Y.Y.Y.Y.Y.Y.Y.Y.Y.Y.",
"Y.Y.Y.Y.Y.Y.Y.Y.Y.Y.Y.Y.Y.Y.Y.Y.    < q Y.Y.Y.Y.c.e.g.K.Y.Y.Y.Y.F m W +.>.w.e.w.1.&...) U k -   Y.Y.Y.Y.Y.Y.Y.Y.Y.Y.Y.Y.Y.Y.Y.Y.",
"Y.Y.Y.Y.Y.Y.Y.Y.Y.Y.Y.Y.Y.Y.Y.& 2 6 B [ Y.Y.Y.C.g.e.f.K.Y.Y.Y.Y.D h R +.>.w.r.w.3.;.=..._ U x p y Y.Y.Y.Y.Y.Y.Y.Y.Y.Y.Y.Y.Y.Y.Y.",
"Y.Y.Y.Y.Y.Y.Y.Y.Y.Y.Y.Y.Y.  o 2 Y.Y.Y.Y.D.J.m.z.e.e.g.K.Y.Y.Y.Y.H m W +.;.w.e.r.w.3.>.=.+.} E b z ,   Y.Y.Y.Y.Y.Y.Y.Y.Y.Y.Y.Y.Y.",
"Y.Y.Y.Y.Y.Y.Y.Y.Y.Y.Y.Y.    % 7 Y.Y.Y.Y.B.g.y.r.u.r.g.K.Y.Y.Y.Y.K I W +.>.w.r.r.r.e.3.2.-.+.} E x ,     Y.Y.Y.Y.Y.Y.Y.Y.Y.Y.Y.Y.",
"Y.Y.Y.Y.Y.Y.Y.Y.Y.Y.Y.Y.    % 7 Y.Y.Y.Y.V.y.i.k.i.u.f.H.Y.Y.Y.Y.Z I ( +.;.w.r.u.u.r.e.3.;.&. .( n r     Y.Y.Y.Y.Y.Y.Y.Y.Y.Y.Y.Y.",
"Y.Y.Y.Y.Y.Y.Y.Y.Y.Y.Y.Y.    % 7 Y.Y.Y.Y.c.e.k.k.k.r.f.C.Y.Y.Y.Y.Z I ( +.>.q.r.u.u.u.e.3.<.=...) L r     Y.Y.Y.Y.Y.Y.Y.Y.Y.Y.Y.Y.",
"Y.Y.Y.Y.Y.Y.Y.Y.Y.Y.Y.Y.    % 8 Y.Y.Y.Y.V.y.i.k.i.u.g.H.Y.Y.Y.Y.Z I ( @.>.w.r.u.r.r.w.3.;.$. .Q n e     Y.Y.Y.Y.Y.Y.Y.Y.Y.Y.Y.Y.",
"Y.Y.Y.Y.Y.Y.Y.Y.Y.Y.Y.Y.    % 8 Y.Y.Y.Y.V.d.u.i.i.u.g.H.Y.Y.Y.Y.Z I ( @.;.w.r.r.u.r.w.3.;.$.| Q b e     Y.Y.Y.Y.Y.Y.Y.Y.Y.Y.Y.Y.",
"Y.Y.Y.Y.Y.Y.Y.Y.Y.Y.Y.Y.    % 8 Y.Y.Y.Y.V.d.u.i.i.u.g.H.Y.Y.Y.Y.Z I ( @.;.w.r.u.r.r.w.3.;.$.| Q b e     Y.Y.Y.Y.Y.Y.Y.Y.Y.Y.Y.Y.",
"Y.Y.Y.Y.Y.Y.Y.Y.Y.Y.Y.Y.    % 8 Y.Y.Y.Y.V.d.u.i.i.r.g.H.Y.Y.Y.Y.J I ( @.<.w.r.r.u.e.w.3.;.$.| Q b e     Y.Y.Y.Y.Y.Y.Y.Y.Y.Y.Y.Y.",
"Y.Y.Y.Y.Y.Y.Y.Y.Y.Y.Y.Y.    % 8 Y.Y.Y.Y.V.s.u.i.i.u.g.H.Y.Y.Y.Y.J I ( $.<.w.r.r.r.r.w.3.;.$.| Q v e     Y.Y.Y.Y.Y.Y.Y.Y.Y.Y.Y.Y.",
"Y.Y.Y.Y.Y.Y.Y.Y.Y.Y.Y.Y.    % 8 Y.Y.Y.Y.m.d.u.i.i.u.d.K.Y.Y.Y.Y.Z I ( @.<.w.r.r.u.r.w.3.;.$.| Q v e     Y.Y.Y.Y.Y.Y.Y.Y.Y.Y.Y.Y.",
"Y.Y.Y.Y.Y.Y.Y.Y.Y.Y.Y.Y.    % 8 Y.Y.Y.Y.V.g.u.i.i.u.f.K.Y.Y.Y.Y.Z I ( @.;.w.r.r.u.e.w.2.;.$.| Q v e     Y.Y.Y.Y.Y.Y.Y.Y.Y.Y.Y.Y.",
"Y.Y.Y.Y.Y.Y.Y.Y.Y.Y.Y.Y.    % 8 Y.Y.Y.Y.V.g.u.k.i.u.d.H.Y.Y.Y.Y.Z I ( @.1.w.r.u.r.r.w.2.-.$.| W v e     Y.Y.Y.Y.Y.Y.Y.Y.Y.Y.Y.Y.",
"Y.Y.Y.Y.Y.Y.Y.Y.Y.Y.Y.Y.    % 7 Y.Y.Y.Y.m.g.u.i.i.u.f.H.Y.Y.Y.Y.Z I ( @.1.w.r.r.r.r.w.3.;.$.| Q v e     Y.Y.Y.Y.Y.Y.Y.Y.Y.Y.Y.Y.",
"Y.Y.Y.Y.Y.Y.Y.Y.Y.Y.Y.Y.    % 7 Y.Y.Y.Y.m.d.u.k.i.u.f.H.Y.Y.Y.Y.Z I ( @.;.w.r.r.u.r.w.3.;.$.| Q v e     Y.Y.Y.Y.Y.Y.Y.Y.Y.Y.Y.Y.",
"Y.Y.Y.Y.Y.Y.Y.Y.Y.Y.Y.Y.    % 7 Y.Y.Y.Y.m.d.u.i.i.u.g.C.Y.Y.Y.Y.J I ( @.<.w.r.u.u.e.w.2.;.$.| Q v e     Y.Y.Y.Y.Y.Y.Y.Y.Y.Y.Y.Y.",
"Y.Y.Y.Y.Y.Y.Y.Y.Y.Y.Y.Y.    % 7 Y.Y.Y.Y.m.g.u.i.i.r.g.K.Y.Y.Y.Y.Z I ( @.>.w.r.r.r.r.w.2.;.@.| Q v e     Y.Y.Y.Y.Y.Y.Y.Y.Y.Y.Y.Y.",
"Y.Y.Y.Y.Y.Y.Y.Y.Y.Y.Y.Y.    % 7 Y.Y.Y.Y.V.s.u.i.i.u.g.H.Y.Y.Y.Y.Z I ( @.<.w.r.r.r.r.w.2.;.$.| Q v r     Y.Y.Y.Y.Y.Y.Y.Y.Y.Y.Y.Y.",
"Y.Y.Y.Y.Y.Y.Y.Y.Y.Y.Y.Y.    % 7 Y.Y.Y.Y.m.d.u.i.i.r.g.H.Y.Y.Y.Y.Z I ( @.<.w.r.r.r.r.w.3.;.$.| Q v ,     Y.Y.Y.Y.Y.Y.Y.Y.Y.Y.Y.Y.",
"Y.Y.Y.Y.Y.Y.Y.Y.Y.Y.Y.Y.    % 7 Y.Y.Y.Y.V.g.u.i.i.r.g.H.Y.Y.Y.Y.K I ( @.<.w.r.u.r.r.w.2.;.$.| W v ,     Y.Y.Y.Y.Y.Y.Y.Y.Y.Y.Y.Y.",
"Y.Y.Y.Y.Y.Y.Y.Y.Y.Y.Y.Y.    % 4 Y.Y.Y.Y.V.s.u.i.i.r.g.K.Y.Y.Y.Y.Z I ( $.;.w.r.r.u.r.w.2.;.#.| Q v r     Y.Y.Y.Y.Y.Y.Y.Y.Y.Y.Y.Y.",
"Y.Y.Y.Y.Y.Y.Y.Y.Y.Y.Y.Y.    % 7 Y.Y.Y.Y.m.d.u.i.i.r.g.K.Y.Y.Y.Y.J I ( @.1.q.r.r.r.r.w.3.;.$.| Q b r     Y.Y.Y.Y.Y.Y.Y.Y.Y.Y.Y.Y.",
"Y.Y.Y.Y.Y.Y.Y.Y.Y.Y.Y.Y.    % 7 Y.Y.Y.Y.m.d.r.i.i.r.g.K.Y.Y.Y.Y.K I ( @.1.w.r.u.u.e.w.3.;.$.| Q v ,     Y.Y.Y.Y.Y.Y.Y.Y.Y.Y.Y.Y.",
"Y.Y.Y.Y.Y.Y.Y.Y.Y.Y.Y.Y.    % 4 Y.Y.Y.Y.m.d.r.i.i.r.g.H.Y.Y.Y.Y.J I ( @.>.w.r.r.r.r.q.2.;.$.| Q v ,     Y.Y.Y.Y.Y.Y.Y.Y.Y.Y.Y.Y.",
"Y.Y.Y.Y.Y.Y.Y.Y.Y.Y.Y.Y.    $ 7 Y.Y.Y.Y.V.d.u.i.i.r.g.H.Y.Y.Y.Y.K I ( +.>.w.r.r.u.r.w.2.;.$.| Q v r     Y.Y.Y.Y.Y.Y.Y.Y.Y.Y.Y.Y.",
"Y.Y.Y.Y.Y.Y.Y.Y.Y.Y.Y.Y.    % 7 Y.Y.Y.Y.m.d.u.i.i.r.g.K.Y.Y.Y.Y.Z I ( @.>.w.r.u.r.r.w.3.;.@.| W b ,     Y.Y.Y.Y.Y.Y.Y.Y.Y.Y.Y.Y.",
"Y.Y.Y.Y.Y.Y.Y.Y.Y.Y.Y.Y.    % 7 Y.Y.Y.Y.m.g.u.i.u.r.g.K.Y.Y.Y.Y.K I ( @.;.w.r.r.r.r.w.3.;.$.| Q v r     Y.Y.Y.Y.Y.Y.Y.Y.Y.Y.Y.Y.",
"Y.Y.Y.Y.Y.Y.Y.Y.Y.Y.Y.Y.    % 7 Y.Y.Y.Y.m.s.u.i.i.r.f.H.Y.Y.Y.Y.J I ( +.;.w.r.r.r.e.w.3.;.$.| Q b r     Y.Y.Y.Y.Y.Y.Y.Y.Y.Y.Y.Y.",
"Y.Y.Y.Y.Y.Y.Y.Y.Y.Y.Y.Y.    % 7 Y.Y.Y.Y.V.y.i.k.i.r.g.P.Y.Y.Y.Y.K I ( @.<.w.r.u.u.r.w.3.<.&. .Q b r     Y.Y.Y.Y.Y.Y.Y.Y.Y.Y.Y.Y.",
"Y.Y.Y.Y.Y.Y.Y.Y.Y.Y.Y.Y.    % 7 Y.Y.Y.Y.c.e.k.k.k.u.g.P.Y.Y.Y.Y.K I ( +.<.4.r.u.u.r.e.q.1.=...) n r     Y.Y.Y.Y.Y.Y.Y.Y.Y.Y.Y.Y.",
"Y.Y.Y.Y.Y.Y.Y.Y.Y.Y.Y.Y.    $ 4 Y.Y.Y.Y.c.e.i.k.i.u.g.P.Y.Y.Y.Y.K I ( +.;.w.r.u.u.r.e.3.<.&. .( n r     Y.Y.Y.Y.Y.Y.Y.Y.Y.Y.Y.Y.",
"Y.Y.Y.Y.Y.Y.Y.Y.Y.Y.Y.Y.    % 4 Y.Y.Y.Y.N.z.d.r.u.r.g.H.Y.Y.Y.Y.J I W +.;.w.e.u.r.e.q.1.-.+._ T x ,     Y.Y.Y.Y.Y.Y.Y.Y.Y.Y.Y.Y.",
"Y.Y.Y.Y.Y.Y.Y.Y.Y.Y.Y.Y.Y.  $ 2 Y.Y.Y.Y.D.J.m.x.d.e.t.l.F.Y.Y.F h I W ..;.w.r.e.w.3.1.-.+.} E b z ,   Y.Y.Y.Y.Y.Y.Y.Y.Y.Y.Y.Y.Y.",
"Y.Y.Y.Y.Y.Y.Y.Y.Y.Y.Y.Y.Y.Y.Y.& & 5 B [ Y.Y.Y.P.c.y.w.5.6.' A g f s R ..;.w.e.e.3.;.*...} Y x k p Y.Y.Y.Y.Y.Y.Y.Y.Y.Y.Y.Y.Y.Y.Y.",
"Y.Y.Y.Y.Y.Y.Y.Y.Y.Y.Y.Y.Y.Y.Y.Y.    0 G Y.Y.Y.Y.C.g.w.2.%.^ m d d c E X.>.w.r.w.1.=...) U k -   Y.Y.Y.Y.Y.Y.Y.Y.Y.Y.Y.Y.Y.Y.Y.Y.",
"Y.Y.Y.Y.Y.Y.Y.Y.Y.Y.Y.Y.Y.Y.Y.Y.    # 9 Y.Y.Y.Y.L.j.r.4.&._ W P P R _ #.1.w.e.3.;.@._ E x @     Y.Y.Y.Y.Y.Y.Y.Y.Y.Y.Y.Y.Y.Y.Y.Y.",
"Y.Y.Y.Y.Y.Y.Y.Y.Y.Y.Y.Y.Y.Y.Y.Y.    . 9 Y.Y.Y.Y.L.d.u.r.2.=.@... ...#.-.q.e.e.3.<.$.| E x O     Y.Y.Y.Y.Y.Y.Y.Y.Y.Y.Y.Y.Y.Y.Y.Y.",
"Y.Y.Y.Y.Y.Y.Y.Y.Y.Y.Y.Y.Y.Y.Y.Y.    # 7 Y.Y.Y.Y.Z.y.i.i.r.4.3.1.;.;.;.3.w.r.r.w.<.&. .( b :     Y.Y.Y.Y.Y.Y.Y.Y.Y.Y.Y.Y.Y.Y.Y.Y.",
"Y.Y.Y.Y.Y.Y.Y.Y.Y.Y.Y.Y.Y.Y.Y.Y.    % 7 Y.Y.Y.Y.V.y.i.i.u.r.e.w.q.q.w.w.e.r.e.3.<.&. .Q n r     Y.Y.Y.Y.Y.Y.Y.Y.Y.Y.Y.Y.Y.Y.Y.Y.",
"Y.Y.Y.Y.Y.Y.Y.Y.Y.Y.Y.Y.Y.Y.Y.Y.    % 4 Y.Y.Y.Y.N.g.y.y.d.d.d.y.y.r.y.r.r.e.4.1.-.+._ E x ,     Y.Y.Y.Y.Y.Y.Y.Y.Y.Y.Y.Y.Y.Y.Y.Y.",
"Y.Y.Y.Y.Y.Y.Y.Y.Y.Y.Y.Y.Y.Y.Y.Y.Y.  o 2 9 Y.Y.Y.S.N.C.Z.C.L.Z.v.j.p.r.u.e.4.1.-.+.| E n l ,   Y.Y.Y.Y.Y.Y.Y.Y.Y.Y.Y.Y.Y.Y.Y.Y.Y.",
"Y.Y.Y.Y.Y.Y.Y.Y.Y.Y.Y.Y.Y.Y.Y.Y.Y.Y.Y.& 2 3 N ` Y.Y.Y.Y.Y.Y.Y.U.v.h.u.u.w.1.=.+.} E z p y Y.Y.Y.Y.Y.Y.Y.Y.Y.Y.Y.Y.Y.Y.Y.Y.Y.Y.Y.",
"Y.Y.Y.Y.Y.Y.Y.Y.Y.Y.Y.Y.Y.Y.Y.Y.Y.Y.Y.Y.    < M Y.Y.Y.Y.Y.Y.Y.Y.Z.h.u.r.2.=.X._ T l @   Y.Y.Y.Y.Y.Y.Y.Y.Y.Y.Y.Y.Y.Y.Y.Y.Y.Y.Y.Y.",
"Y.Y.Y.Y.Y.Y.Y.Y.Y.Y.Y.Y.Y.Y.Y.Y.Y.Y.Y.Y.    . 6 Y.Y.Y.Y.Y.Y.Y.Y.n.a.w.3.-.+.) U z @     Y.Y.Y.Y.Y.Y.Y.Y.Y.Y.Y.Y.Y.Y.Y.Y.Y.Y.Y.Y.",
"Y.Y.Y.Y.Y.Y.Y.Y.Y.Y.Y.Y.Y.Y.Y.Y.Y.Y.Y.Y.Y.    2 Y.Y.Y.Y.Y.Y.Y.A.O.,.*.*...( Y v t     Y.Y.Y.Y.Y.Y.Y.Y.Y.Y.Y.Y.Y.Y.Y.Y.Y.Y.Y.Y.Y.",
"Y.Y.Y.Y.Y.Y.Y.Y.Y.Y.Y.Y.Y.Y.Y.Y.Y.Y.Y.Y.Y.Y.Y.& 4 7 8 9 S S w C / ~ ! ! T n x l t Y.Y.Y.Y.Y.Y.Y.Y.Y.Y.Y.Y.Y.Y.Y.Y.Y.Y.Y.Y.Y.Y.Y.",
"Y.Y.Y.Y.Y.Y.Y.Y.Y.Y.Y.Y.Y.Y.Y.Y.Y.Y.Y.Y.Y.Y.Y.Y.% % % * # * = 1 i j j j y r , , Y.Y.Y.Y.Y.Y.Y.Y.Y.Y.Y.Y.Y.Y.Y.Y.Y.Y.Y.Y.Y.Y.Y.Y.",
"Y.Y.Y.Y.Y.Y.Y.Y.Y.Y.Y.Y.Y.Y.Y.Y.Y.Y.Y.Y.Y.Y.Y.Y.                                Y.Y.Y.Y.Y.Y.Y.Y.Y.Y.Y.Y.Y.Y.Y.Y.Y.Y.Y.Y.Y.Y.Y.Y.",
"Y.Y.Y.Y.Y.Y.Y.Y.Y.Y.Y.Y.Y.Y.Y.Y.Y.Y.Y.Y.Y.Y.Y.Y.                                Y.Y.Y.Y.Y.Y.Y.Y.Y.Y.Y.Y.Y.Y.Y.Y.Y.Y.Y.Y.Y.Y.Y.Y."
};
