/* XPM */
static char *result[] = {
/* columns rows colors chars-per-pixel */
"64 64 77 1 ",
"  c black",
". c #0A0700",
"X c #040D00",
"o c #1E0B00",
"O c #2D1C00",
"+ c #301F00",
"@ c #2E2500",
"# c #322600",
"$ c #352900",
"% c #3A2B00",
"& c #3F3300",
"* c #422F00",
"= c #453200",
"- c #463900",
"; c #4A3B00",
": c #553700",
"> c #563900",
", c #5B3C00",
"< c #544200",
"1 c #594500",
"2 c #5D4A00",
"3 c #624400",
"4 c #664A00",
"5 c #6A4B00",
"6 c #6E5000",
"7 c #735300",
"8 c #745D00",
"9 c #7C5C00",
"0 c #7D6400",
"q c #815E00",
"w c #816400",
"e c #8E6600",
"r c #896E00",
"t c #906700",
"y c #936B00",
"u c #996F00",
"i c #8E7200",
"p c #947600",
"a c #9D7300",
"s c #967800",
"d c #9D7E00",
"f c #A17600",
"g c #A17C00",
"h c #AD7F00",
"j c #A38300",
"k c #AA8300",
"l c #AD8B00",
"z c #B38400",
"x c #B58C00",
"c c #BA8B00",
"v c #B69200",
"b c #BB9500",
"n c #BC9900",
"m c #C59500",
"M c #C89700",
"N c #C39D00",
"B c #CC9B00",
"V c #D19F00",
"C c #C7A000",
"Z c #CCA500",
"A c #D1A300",
"S c #D4AB00",
"D c #DAAE00",
"F c #DDB200",
"G c #E1AF00",
"H c #E3B500",
"J c #E9B500",
"K c #E6BA00",
"L c #EABD00",
"P c #F1BF00",
"I c #EFC100",
"U c #F1C100",
"Y c #FAC700",
"T c #FCCB00",
"R c #FFD300",
"E c #FFD800",
"W c None",
/* pixels */
"WWWWWWWWWWWWWWWWWWWWWWWWWWWW        WWWWWWWWWWWWWWWWWWWWWWWWWWWW",
"WWWWWWWWWWWWWWWWWWWWWWWWWWWW        WWWWWWWWWWWWWWWWWWWWWWWWWWWW",
"WWWWWWWWWWWWWWWWWWWWWWWWWWWW<<1222<<WWWWWWWWWWWWWWWWWWWWWWWWWWWW",
"WWWWWWWWWWWWWWWWWWWWWWWWWWW9ipjlljdp0WWWWWWWWWWWWWWWWWWWWWWWWWWW",
"WWWWWWWWWWWWWWWWWWWWWWWWW <rlNZFFDZvi< WWWWWWWWWWWWWWWWWWWWWWWWW",
"WWWWWWWWWWWWWWWWWWWWWWWW  ;pNHUTTYKNs<  WWWWWWWWWWWWWWWWWWWWWWWW",
"WWWWWWWWWWWWWWWWWWWWWWWW  2lDURERRUSk1  WWWWWWWWWWWWWWWWWWWWWWWW",
"WWWWWWWWWWWWWWWWWWWWWWWW  2lFURETYHZj<  WWWWWWWWWWWWWWWWWWWWWWWW",
"WWWWWWWWWWWWWWWWWWWWWWWW  2lFUTTUJAxy>  WWWWWWWWWWWWWWWWWWWWWWWW",
"WWWWWWWWWWWWWWWWWWWWWWWW  1jSUTUHAcfq*  WWWWWWWWWWWWWWWWWWWWWWWW",
"WWWWWWWWWWWWWWWWWWWWWWWW  <jDIYPGMzy6%  WWWWWWWWWWWWWWWWWWWWWWWW",
"WWWWWWWWWWWWWWWWWWWWWWWd- -jSITPDMkt5@X2jWWWWWWWWWWWWWWWWWWWWWWW",
"WWWWWWWWWWWWWWWWWWWWWRLb8.=pSITPGmht3o@0nKRWWWWWWWWWWWWWWWWWWWWW",
"WWWWWWWWWWWWWWWWWWWWRRICr@%pZITLGBzt, &pZIREWWWWWWWWWWWWWWWWWWWW",
"WWWWWWWWWWWWWWWWWWWWRRRFj$$iZITPGBht: -jHRTRWWWWWWWWWWWWWWWWWWWW",
"WWWWWWWWWWWWWWWWWWWWRTEKd%@iZIYUGBzt: ;kKRTRWWWWWWWWWWWWWWWWWWWW",
"WWWWWWWWWWWWWWWWWWWWRRTHd$$iZIYUGBze: -jHRRRWWWWWWWWWWWWWWWWWWWW",
"WWWWWWWWWWWWWWWWWWWWRTTFs$$iZITUGBze> -dFTTRWWWWWWWWWWWWWWWWWWWW",
"WWWWWWWWWWWWWWWWWWWWRTTDp$$iZUTUGBze> -dFTTRWWWWWWWWWWWWWWWWWWWW",
"WWWWWWWWWWWWWWWWWWWWRTTFp$$iZUTIGBze> -jFTTRWWWWWWWWWWWWWWWWWWWW",
"WWWWWWWWWWWWWWWWWWWWRRTDp$$iZUYUGBzt> -dFTTRWWWWWWWWWWWWWWWWWWWW",
"WWWWWWWWWWWWWWWWWWWWRTTDp%$iZUYPGBze> -dHTTRWWWWWWWWWWWWWWWWWWWW",
"WWWWWWWWWWWWWWWWWWWWRRYDp$$iZUYPGBze> -dHTRRWWWWWWWWWWWWWWWWWWWW",
"WWWWWWWWWWWWWWWWWWWWRTYDp$$iZUTUGBze> -jFYTRWWWWWWWWWWWWWWWWWWWW",
"WWWWWWWWWWWWWWWWWWWWRTTDp$$iZUTUGBze: -gFTRRWWWWWWWWWWWWWWWWWWWW",
"WWWWWWWWWWWWWWWWWWWWRTTFp$$iZITLGBze> -jFTTRWWWWWWWWWWWWWWWWWWWW",
"WWWWWWWWWWWWWWWWWWWWRRYDp$$iZUTUGBze> -dFYTRWWWWWWWWWWWWWWWWWWWW",
"WWWWWWWWWWWWWWWWWWWWRTYDp$$iZUYUGBzt> -dHTTRWWWWWWWWWWWWWWWWWWWW",
"WWWWWWWWWWWWWWWWWWWWRTTDp$$iZUTLGBze> -dFTRRWWWWWWWWWWWWWWWWWWWW",
"WWWWWWWWWWWWWWWWWWWWRRTDp$$iZUTUGBze> -dFTTRWWWWWWWWWWWWWWWWWWWW",
"WWWWWWWWWWWWWWWWWWWWRRTDp$$iZITUGBze> -jFYTRWWWWWWWWWWWWWWWWWWWW",
"WWWWWWWWWWWWWWWWWWWWRTYDp$$iZUTIGBze> -dHTTRWWWWWWWWWWWWWWWWWWWW",
"WWWWWWWWWWWWWWWWWWWWRRYDp$$iZUYPGBze: -gFTRRWWWWWWWWWWWWWWWWWWWW",
"WWWWWWWWWWWWWWWWWWWWRRYDs$$iZUYUGBze> -jFTTRWWWWWWWWWWWWWWWWWWWW",
"WWWWWWWWWWWWWWWWWWWWRTYDp$$iZUYPGBze> -dFYTRWWWWWWWWWWWWWWWWWWWW",
"WWWWWWWWWWWWWWWWWWWWRRYDp$$iZUTUGBzt> -dHTTRWWWWWWWWWWWWWWWWWWWW",
"WWWWWWWWWWWWWWWWWWWWRTTDs%$iZUTUGBze> -dFTRRWWWWWWWWWWWWWWWWWWWW",
"WWWWWWWWWWWWWWWWWWWWRRTDp$$iZITLGBze> -dFTTRWWWWWWWWWWWWWWWWWWWW",
"WWWWWWWWWWWWWWWWWWWWRTYFp$$iZUTUGBze> -jFTTRWWWWWWWWWWWWWWWWWWWW",
"WWWWWWWWWWWWWWWWWWWWRRYFp$$iZUYUGBze> -dHTTRWWWWWWWWWWWWWWWWWWWW",
"WWWWWWWWWWWWWWWWWWWWRTYFp$$iZUTLGBzt> -dFTTRWWWWWWWWWWWWWWWWWWWW",
"WWWWWWWWWWWWWWWWWWWWRTTFp$$iZUTUGBze> -dHTTRWWWWWWWWWWWWWWWWWWWW",
"WWWWWWWWWWWWWWWWWWWWRTYDp$$iZURIGBze> -dFTTRWWWWWWWWWWWWWWWWWWWW",
"WWWWWWWWWWWWWWWWWWWWRTYFp$$iZUYIGBze> -dFTTRWWWWWWWWWWWWWWWWWWWW",
"WWWWWWWWWWWWWWWWWWWWRTTFp$$iZUYPGBze: -jHTTRWWWWWWWWWWWWWWWWWWWW",
"WWWWWWWWWWWWWWWWWWWWRTTFp$$iZUYUGBze> -gFTRRWWWWWWWWWWWWWWWWWWWW",
"WWWWWWWWWWWWWWWWWWWWRRTFp$$iZUTLGBze> -dFTTRWWWWWWWWWWWWWWWWWWWW",
"WWWWWWWWWWWWWWWWWWWWRTRFd%$iZUTUGBze: -jKRTRWWWWWWWWWWWWWWWWWWWW",
"WWWWWWWWWWWWWWWWWWWWRTEKd%#iZITUHBze> -jLETRWWWWWWWWWWWWWWWWWWWW",
"WWWWWWWWWWWWWWWWWWWWRTRHd%#iZUTUGNze> -jLRTRWWWWWWWWWWWWWWWWWWWW",
"WWWWWWWWWWWWWWWWWWWWRRLNr@$pZUTUGBzt, &pCITRWWWWWWWWWWWWWWWWWWWW",
"WWWWWWWWWWWWWWWWWWWWWRLb8.=pALTUGBzy3o$wnLRWWWWWWWWWWWWWWWWWWWWW",
"WWWWWWWWWWWWWWWWWWWWWWWd- ;dSUYUGBzu5+X2jWWWWWWWWWWWWWWWWWWWWWWW",
"WWWWWWWWWWWWWWWWWWWWWWWW  <jDUTUGBzu7%  WWWWWWWWWWWWWWWWWWWWWWWW",
"WWWWWWWWWWWWWWWWWWWWWWWW  1lSUTUGBzu9*  WWWWWWWWWWWWWWWWWWWWWWWW",
"WWWWWWWWWWWWWWWWWWWWWWWW  2lFUTYHVzf9=  WWWWWWWWWWWWWWWWWWWWWWWW",
"WWWWWWWWWWWWWWWWWWWWWWWW  2xFTRYJAcfq=  WWWWWWWWWWWWWWWWWWWWWWWW",
"WWWWWWWWWWWWWWWWWWWWWWWW  2lFTTYJVcf9*  WWWWWWWWWWWWWWWWWWWWWWWW",
"WWWWWWWWWWWWWWWWWWWWWWWW  <dZKUKDmhe6%  WWWWWWWWWWWWWWWWWWWWWWWW",
"WWWWWWWWWWWWWWWWWWWWWWWWW ;ivZZZmhtq5% WWWWWWWWWWWWWWWWWWWWWWWWW",
"WWWWWWWWWWWWWWWWWWWWWWWWWWW0pdgdpw75,WWWWWWWWWWWWWWWWWWWWWWWWWWW",
"WWWWWWWWWWWWWWWWWWWWWWWWWWWW<<11:=%%WWWWWWWWWWWWWWWWWWWWWWWWWWWW",
"WWWWWWWWWWWWWWWWWWWWWWWWWWWW        WWWWWWWWWWWWWWWWWWWWWWWWWWWW",
"WWWWWWWWWWWWWWWWWWWWWWWWWWWW        WWWWWWWWWWWWWWWWWWWWWWWWWWWW"
};
