/* XPM */
static char *result[] = {
/* columns rows colors chars-per-pixel */
"64 64 142 2 ",
"   c #000000",
".  c #110600",
"X  c #1B0F00",
"o  c #1D1200",
"O  c #17140F",
"+  c #1A1814",
"@  c #221600",
"#  c #342600",
"$  c #352800",
"%  c #3B2900",
"&  c #31270B",
"*  c #342A0F",
"=  c #3F3000",
"-  c #3B362B",
";  c #412D00",
":  c #443201",
">  c #4C3500",
",  c #4E3B01",
"<  c #473908",
"1  c #4A3B08",
"2  c #503501",
"3  c #523E00",
"4  c #423D33",
"5  c #544200",
"6  c #5B4300",
"7  c #5C4800",
"8  c #624600",
"9  c #644800",
"0  c #6C4D00",
"q  c #734F01",
"w  c #6E5700",
"e  c #6E5800",
"r  c #765600",
"t  c #785700",
"y  c #745C01",
"u  c #7D5B00",
"i  c #7D6301",
"p  c #6D5921",
"a  c #6F5C28",
"s  c #715D27",
"d  c #805D00",
"f  c #846500",
"g  c #8A6501",
"h  c #856900",
"j  c #8D6B00",
"k  c #926B00",
"l  c #927300",
"z  c #9B7100",
"x  c #977800",
"c  c #9D7D00",
"v  c #8D7212",
"b  c #907414",
"n  c #A17600",
"m  c #A57B00",
"M  c #AB7F00",
"N  c #A38200",
"B  c #AC8200",
"V  c #AD8A01",
"C  c #A48408",
"Z  c #B48500",
"A  c #B38B00",
"S  c #BA8B00",
"D  c #B08D0A",
"F  c #B59000",
"G  c #BA9301",
"H  c #BC9716",
"J  c #BB9718",
"K  c #A68937",
"L  c #AA8E3F",
"P  c #C39400",
"I  c #C49D00",
"U  c #CB9B00",
"Y  c #D09E00",
"T  c #C29D1B",
"R  c #CDA400",
"E  c #CEA60D",
"W  c #D1A400",
"Q  c #D8A700",
"!  c #D4AA00",
"~  c #DCAD01",
"^  c #D1A90F",
"/  c #DDB100",
"(  c #C6A01A",
")  c #C8A21F",
"_  c #D0A811",
"`  c #E1AF00",
"'  c #E0AF08",
"]  c #E4B301",
"[  c #E9B600",
"{  c #E6B900",
"}  c #ECBD00",
"|  c #EDBC0D",
" . c #F1BF01",
".. c #E7B713",
"X. c #EFBD17",
"o. c #E6B618",
"O. c #EEBE1D",
"+. c #C5A122",
"@. c #D7AE24",
"#. c #DAB125",
"$. c #DAB22A",
"%. c #EDBF26",
"&. c #E5BB3D",
"*. c #EEC000",
"=. c #EEC00B",
"-. c #F4C301",
";. c #F9C600",
":. c #FDCC00",
">. c #F4C50C",
",. c #FECD0B",
"<. c #FFD300",
"1. c #FFDA00",
"2. c #FFD30B",
"3. c #F5C513",
"4. c #FFCE15",
"5. c #F0C01E",
"6. c #FFCE1F",
"7. c #FFD316",
"8. c #FFD31A",
"9. c #FFE000",
"0. c #EEC22C",
"q. c #F5C425",
"w. c #FCCD23",
"e. c #F4C62D",
"r. c #FECE2C",
"t. c #FFD423",
"y. c #FFD22C",
"u. c #EFC431",
"i. c #F2C430",
"p. c #F9CB32",
"a. c #F2C53D",
"s. c #FBCC3C",
"d. c #FFD334",
"f. c #FFDA34",
"g. c #FFD63B",
"h. c #FFDC3D",
"j. c #E8BD42",
"k. c #FFDC42",
"l. c #FFDD49",
"z. c #F7CD5C",
"x. c #FFE045",
"c. c None",
/* pixels */
"c.c.c.c.c.c.c.c.c.c.c.c.c.c.c.c.c.c.c.c.c.c.c.c.                                c.c.c.c.c.c.c.c.c.c.c.c.c.c.c.c.c.c.c.c.c.c.c.c.",
"c.c.c.c.c.c.c.c.c.c.c.c.c.c.c.c.c.c.c.c.c.c.c.c.                                c.c.c.c.c.c.c.c.c.c.c.c.c.c.c.c.c.c.c.c.c.c.c.c.",
"c.c.c.c.c.c.c.c.c.c.c.c.c.c.c.c.c.c.c.c.c.c.c.c.5 5 5 < & O O & < 5 5 5 3 ; % $ c.c.c.c.c.c.c.c.c.c.c.c.c.c.c.c.c.c.c.c.c.c.c.c.",
"c.c.c.c.c.c.c.c.c.c.c.c.c.c.c.c.c.c.c.c.c.c.c.y l c c v p - - p v c N x k u 0 8 ; c.c.c.c.c.c.c.c.c.c.c.c.c.c.c.c.c.c.c.c.c.c.c.",
"c.c.c.c.c.c.c.c.c.c.c.c.c.c.c.c.c.c.c.c.c.    i A ! W ( K c.c.K T R ~ W G m g q >     c.c.c.c.c.c.c.c.c.c.c.c.c.c.c.c.c.c.c.c.c.",
"c.c.c.c.c.c.c.c.c.c.c.c.c.c.c.c.c.c.c.c.    $ x ! *.-.e.c.c.c.c.e.} -. .Q P m g 8 o     c.c.c.c.c.c.c.c.c.c.c.c.c.c.c.c.c.c.c.c.",
"c.c.c.c.c.c.c.c.c.c.c.c.c.c.c.c.c.c.c.c.  $ i V ! >.t.c.c.c.c.c.g.8.,. .` Q P M j 8 o   c.c.c.c.c.c.c.c.c.c.c.c.c.c.c.c.c.c.c.c.",
"c.c.c.c.c.c.c.c.c.c.c.c.c.c.c.c.c.c.c.w i l V H #.p.x.c.c.c.c.c.c.k.r.q.X.' Q U Z k 0 3 > c.c.c.c.c.c.c.c.c.c.c.c.c.c.c.c.c.c.c.",
"c.c.c.c.c.c.c.c.c.c.c.c.c.c.c.c.c.  5 h V R E #.&.c.c.c.c.c.c.c.c.c.c.s.q.| } ] U Z k t 8 %   c.c.c.c.c.c.c.c.c.c.c.c.c.c.c.c.c.",
"c.c.c.c.c.c.c.c.c.c.c.c.c.c.c.c.    5 x R { 3.p.c.c.c.c.c.c.c.c.c.c.c.c.p.3.:.-.` P M k q %     c.c.c.c.c.c.c.c.c.c.c.c.c.c.c.c.",
"c.c.c.c.c.c.c.c.c.c.c.c.c.c.c.c.    7 A { :.7.h.c.c.c.c.c.c.c.c.c.c.c.c.d.,.<.:.[ Y S z u ;     c.c.c.c.c.c.c.c.c.c.c.c.c.c.c.c.",
"c.c.c.c.c.c.c.c.c.c.c.c.c.c.c.c.    , F *.<.2.f.c.c.c.c.c.c.c.c.c.c.c.c.y.2.1.<.[ Y S z t #     c.c.c.c.c.c.c.c.c.c.c.c.c.c.c.c.",
"c.c.c.c.c.c.c.c.c.c.c.c.c.c.c.c.    & V -.<.<.f.c.c.c.c.c.c.c.c.c.c.c.c.7.:.1.<.} U M k q .     c.c.c.c.c.c.c.c.c.c.c.c.c.c.c.c.",
"c.c.c.c.c.c.c.c.c.c.c.c.c.c.c.c.    : V { <.,.y.c.c.c.c.c.c.c.c.c.c.c.c.:.:.1.<.[ U M k 0 @     c.c.c.c.c.c.c.c.c.c.c.c.c.c.c.c.",
"c.c.c.c.c.c.c.c.c.c.c.c.c.c.c.c.  $ y V ~ =.w.d.c.c.c.c.c.c.c.c.c.c.c.c.,.,.>.| ' Y S m d 8 @   c.c.c.c.c.c.c.c.c.c.c.c.c.c.c.c.",
"c.c.c.c.c.c.c.c.c.c.c.c.c.c.c.e i l C J @.u.g.c.c.c.c.c.c.c.c.c.c.c.c.c.c.r.q.O...` Y P M g 0 6 3 c.c.c.c.c.c.c.c.c.c.c.c.c.c.c.",
"c.c.c.c.c.c.c.c.c.c.c.c.c.  , h V R _ $.a.c.c.c.c.c.c.c.c.c.c.c.c.c.c.c.c.c.c.i.O.| { ` U Z k u 9 %   c.c.c.c.c.c.c.c.c.c.c.c.c.",
"c.c.c.c.c.c.c.c.c.c.c.c.    5 x R / 3.p.c.c.c.c.c.c.c.c.c.c.c.c.c.c.c.c.c.c.c.c.w.>.:.-.~ P M g 0 %     c.c.c.c.c.c.c.c.c.c.c.c.",
"c.c.c.c.c.c.c.c.c.c.c.c.    7 V / -.7.h.c.c.c.c.c.c.c.c.c.c.c.c.c.c.c.c.c.c.c.c.w.,.<.:.[ Y S n d :     c.c.c.c.c.c.c.c.c.c.c.c.",
"c.c.c.c.c.c.c.c.c.c.c.c.    7 A { ;.7.x.c.c.c.c.c.c.c.c.c.c.c.c.c.c.c.c.c.c.c.c.t.,.<.:.[ Y S n d :     c.c.c.c.c.c.c.c.c.c.c.c.",
"c.c.c.c.c.c.c.c.c.c.c.c.    6 V / -.7.h.c.c.c.c.c.c.c.c.c.c.c.c.c.c.c.c.c.c.c.c.7.:.<.:.[ Y Z n u ;     c.c.c.c.c.c.c.c.c.c.c.c.",
"c.c.c.c.c.c.c.c.c.c.c.c.    5 N ~ *.4.g.c.c.c.c.c.c.c.c.c.c.c.c.c.c.c.c.c.c.c.c.,.:.:.:.[ U Z z t ;     c.c.c.c.c.c.c.c.c.c.c.c.",
"c.c.c.c.c.c.c.c.c.c.c.c.    5 N ! } 4.g.c.c.c.c.c.c.c.c.c.c.c.c.c.c.c.c.c.c.c.c.:.:.:.:.] U Z z t ;     c.c.c.c.c.c.c.c.c.c.c.c.",
"c.c.c.c.c.c.c.c.c.c.c.c.    5 N ! *.7.g.c.c.c.c.c.c.c.c.c.c.c.c.c.c.c.c.c.c.c.c.:.:.:.;.` U Z z t ;     c.c.c.c.c.c.c.c.c.c.c.c.",
"c.c.c.c.c.c.c.c.c.c.c.c.    5 N ! } 4.g.c.c.c.c.c.c.c.c.c.c.c.c.c.c.c.c.c.c.c.c.<.:.:.;.] U Z z t ;     c.c.c.c.c.c.c.c.c.c.c.c.",
"c.c.c.c.c.c.c.c.c.c.c.c.    5 N ! } 7.g.c.c.c.c.c.c.c.c.c.c.c.c.c.c.c.c.c.c.c.c.:.:.;.-.` U Z z t ;     c.c.c.c.c.c.c.c.c.c.c.c.",
"c.c.c.c.c.c.c.c.c.c.c.c.    5 m W } 4.g.c.c.c.c.c.c.c.c.c.c.c.c.c.c.c.c.c.c.c.c.:.:.:.-.` U Z z t %     c.c.c.c.c.c.c.c.c.c.c.c.",
"c.c.c.c.c.c.c.c.c.c.c.c.    5 N W } 4.g.c.c.c.c.c.c.c.c.c.c.c.c.c.c.c.c.c.c.c.c.:.:.-.-.` U Z z t ;     c.c.c.c.c.c.c.c.c.c.c.c.",
"c.c.c.c.c.c.c.c.c.c.c.c.    5 c W *.4.g.c.c.c.c.c.c.c.c.c.c.c.c.c.c.c.c.c.c.c.c.<.:.-.-.] U Z z t ;     c.c.c.c.c.c.c.c.c.c.c.c.",
"c.c.c.c.c.c.c.c.c.c.c.c.    5 N R *.7.g.c.c.c.c.c.c.c.c.c.c.c.c.c.c.c.c.c.c.c.c.:.:.;.-.` U Z z t ;     c.c.c.c.c.c.c.c.c.c.c.c.",
"c.c.c.c.c.c.c.c.c.c.c.c.    5 c ! *.4.g.c.c.c.c.c.c.c.c.c.c.c.c.c.c.c.c.c.c.c.c.:.:.;.-.` U Z z t ;     c.c.c.c.c.c.c.c.c.c.c.c.",
"c.c.c.c.c.c.c.c.c.c.c.c.    5 N W *.7.g.c.c.c.c.c.c.c.c.c.c.c.c.c.c.c.c.c.c.c.c.:.:.;.-.` U Z z t ;     c.c.c.c.c.c.c.c.c.c.c.c.",
"c.c.c.c.c.c.c.c.c.c.c.c.    5 N ! } 4.k.c.c.c.c.c.c.c.c.c.c.c.c.c.c.c.c.c.c.c.c.<.:.:.-.] U Z z t ;     c.c.c.c.c.c.c.c.c.c.c.c.",
"c.c.c.c.c.c.c.c.c.c.c.c.    5 N W } 4.g.c.c.c.c.c.c.c.c.c.c.c.c.c.c.c.c.c.c.c.c.:.:.:.-.` U Z z t %     c.c.c.c.c.c.c.c.c.c.c.c.",
"c.c.c.c.c.c.c.c.c.c.c.c.    5 N ! } 4.g.c.c.c.c.c.c.c.c.c.c.c.c.c.c.c.c.c.c.c.c.<.:.:.;.] U Z z t ;     c.c.c.c.c.c.c.c.c.c.c.c.",
"c.c.c.c.c.c.c.c.c.c.c.c.    5 N W *.4.g.c.c.c.c.c.c.c.c.c.c.c.c.c.c.c.c.c.c.c.c.:.:.:.;.] U Z z t ;     c.c.c.c.c.c.c.c.c.c.c.c.",
"c.c.c.c.c.c.c.c.c.c.c.c.    5 N ! *.7.g.c.c.c.c.c.c.c.c.c.c.c.c.c.c.c.c.c.c.c.c.:.:.:.;.` U M z t ;     c.c.c.c.c.c.c.c.c.c.c.c.",
"c.c.c.c.c.c.c.c.c.c.c.c.    5 V ! *.4.g.c.c.c.c.c.c.c.c.c.c.c.c.c.c.c.c.c.c.c.c.:.:.<.;.[ U Z z t %     c.c.c.c.c.c.c.c.c.c.c.c.",
"c.c.c.c.c.c.c.c.c.c.c.c.    5 N ~ } 4.g.c.c.c.c.c.c.c.c.c.c.c.c.c.c.c.c.c.c.c.c.:.:.:.;.` Y Z z t ;     c.c.c.c.c.c.c.c.c.c.c.c.",
"c.c.c.c.c.c.c.c.c.c.c.c.    5 N ! } 4.g.c.c.c.c.c.c.c.c.c.c.c.c.c.c.c.c.c.c.c.c.:.:.<.;.` U Z z t ;     c.c.c.c.c.c.c.c.c.c.c.c.",
"c.c.c.c.c.c.c.c.c.c.c.c.    5 V / *.4.g.c.c.c.c.c.c.c.c.c.c.c.c.c.c.c.c.c.c.c.c.:.:.:.:.] U Z z t ;     c.c.c.c.c.c.c.c.c.c.c.c.",
"c.c.c.c.c.c.c.c.c.c.c.c.    5 N / *.4.f.c.c.c.c.c.c.c.c.c.c.c.c.c.c.c.c.c.c.c.c.<.:.:.;.[ U Z z t ;     c.c.c.c.c.c.c.c.c.c.c.c.",
"c.c.c.c.c.c.c.c.c.c.c.c.    7 V / *.7.g.c.c.c.c.c.c.c.c.c.c.c.c.c.c.c.c.c.c.c.c.,.:.<.:.] U Z z t %     c.c.c.c.c.c.c.c.c.c.c.c.",
"c.c.c.c.c.c.c.c.c.c.c.c.    7 V / :.7.g.c.c.c.c.c.c.c.c.c.c.c.c.c.c.c.c.c.c.c.c.6.,.<.:.[ U S z t :     c.c.c.c.c.c.c.c.c.c.c.c.",
"c.c.c.c.c.c.c.c.c.c.c.c.    7 F { :.7.h.c.c.c.c.c.c.c.c.c.c.c.c.c.c.c.c.c.c.c.c.y.,.<.:.[ W S m f :     c.c.c.c.c.c.c.c.c.c.c.c.",
"c.c.c.c.c.c.c.c.c.c.c.c.    7 V { :.7.g.c.c.c.c.c.c.c.c.c.c.c.c.c.c.c.c.c.c.c.c.d.4.<.:.[ Y S z u ;     c.c.c.c.c.c.c.c.c.c.c.c.",
"c.c.c.c.c.c.c.c.c.c.c.c.    5 x W { 3.p.c.c.c.c.c.c.c.c.c.c.c.c.c.c.c.c.c.c.c.c.e.3.;.-.` P M k 0 %     c.c.c.c.c.c.c.c.c.c.c.c.",
"c.c.c.c.c.c.c.c.c.c.c.c.c.  5 h V R _ #.&.c.c.c.c.c.c.c.c.c.c.c.c.c.c.c.c.c.c.a.q.| [ ~ U B k u 9 %   c.c.c.c.c.c.c.c.c.c.c.c.c.",
"c.c.c.c.c.c.c.c.c.c.c.c.c.c.c.y h l C H @.u.g.c.c.c.c.c.c.c.c.c.c.c.c.c.c.d.e.0.o.~ W P B g 0 6 3 c.c.c.c.c.c.c.c.c.c.c.c.c.c.c.",
"c.c.c.c.c.c.c.c.c.c.c.c.c.c.c.c.  & y F ~ | w.g.c.c.c.c.c.c.c.c.c.c.c.c.,.3.3.| ' Y P m g 6 @   c.c.c.c.c.c.c.c.c.c.c.c.c.c.c.c.",
"c.c.c.c.c.c.c.c.c.c.c.c.c.c.c.c.    = V } 1.,.d.c.c.c.c.c.c.c.c.c.c.c.c.:.:.1.<.[ U M k 0 @     c.c.c.c.c.c.c.c.c.c.c.c.c.c.c.c.",
"c.c.c.c.c.c.c.c.c.c.c.c.c.c.c.c.    $ V -.1.2.f.c.c.c.c.c.c.c.c.c.c.c.c.7.:.1.<.[ U M k 0 .     c.c.c.c.c.c.c.c.c.c.c.c.c.c.c.c.",
"c.c.c.c.c.c.c.c.c.c.c.c.c.c.c.c.    3 G ;.1.7.h.c.c.c.c.c.c.c.c.c.c.c.c.y.2.1.<.[ Y S z t #     c.c.c.c.c.c.c.c.c.c.c.c.c.c.c.c.",
"c.c.c.c.c.c.c.c.c.c.c.c.c.c.c.c.    7 F *.<.7.k.c.c.c.c.c.c.c.c.c.c.c.c.p.4.<.:.[ Y S n u :     c.c.c.c.c.c.c.c.c.c.c.c.c.c.c.c.",
"c.c.c.c.c.c.c.c.c.c.c.c.c.c.c.c.    5 N ! *.3.s.c.c.c.c.c.c.c.c.c.c.c.c.p.3.;. .' P M g 0 %     c.c.c.c.c.c.c.c.c.c.c.c.c.c.c.c.",
"c.c.c.c.c.c.c.c.c.c.c.c.c.c.c.c.c.  5 h V R _ $.j.z.c.c.c.c.c.c.c.c.c.s.q.|  .` Y M k d 8 %   c.c.c.c.c.c.c.c.c.c.c.c.c.c.c.c.c.",
"c.c.c.c.c.c.c.c.c.c.c.c.c.c.c.c.c.c.c.e i l D J $.p.l.c.c.c.c.c.c.k.r.5.X.] Q U Z k 0 3 > c.c.c.c.c.c.c.c.c.c.c.c.c.c.c.c.c.c.c.",
"c.c.c.c.c.c.c.c.c.c.c.c.c.c.c.c.c.c.c.c.  $ i G { >.y.x.c.c.c.c.k.t.,.-.[ Q P M j 8 o   c.c.c.c.c.c.c.c.c.c.c.c.c.c.c.c.c.c.c.c.",
"c.c.c.c.c.c.c.c.c.c.c.c.c.c.c.c.c.c.c.c.    & m / :.-.e.c.c.c.c.u.>.:.-.' P m d 9 X     c.c.c.c.c.c.c.c.c.c.c.c.c.c.c.c.c.c.c.c.",
"c.c.c.c.c.c.c.c.c.c.c.c.c.c.c.c.c.c.c.c.c.    h F ~ / +.L c.c.L +.! ] ~ P m g q 2     c.c.c.c.c.c.c.c.c.c.c.c.c.c.c.c.c.c.c.c.c.",
"c.c.c.c.c.c.c.c.c.c.c.c.c.c.c.c.c.c.c.c.c.c.c.i l N N v s 4 4 a b N N m l d 0 6 ; c.c.c.c.c.c.c.c.c.c.c.c.c.c.c.c.c.c.c.c.c.c.c.",
"c.c.c.c.c.c.c.c.c.c.c.c.c.c.c.c.c.c.c.c.c.c.c.c.5 5 5 1 * + + * < 5 6 6 3 ; % % c.c.c.c.c.c.c.c.c.c.c.c.c.c.c.c.c.c.c.c.c.c.c.c.",
"c.c.c.c.c.c.c.c.c.c.c.c.c.c.c.c.c.c.c.c.c.c.c.c.                                c.c.c.c.c.c.c.c.c.c.c.c.c.c.c.c.c.c.c.c.c.c.c.c.",
"c.c.c.c.c.c.c.c.c.c.c.c.c.c.c.c.c.c.c.c.c.c.c.c.                                c.c.c.c.c.c.c.c.c.c.c.c.c.c.c.c.c.c.c.c.c.c.c.c."
};
