/* XPM */
static char *result[] = {
/* columns rows colors chars-per-pixel */
"64 64 244 2 ",
"   c #000000",
".  c #00000D",
"X  c #1E0000",
"o  c #00001B",
"O  c #16191A",
"+  c #0E0716",
"@  c #270000",
"#  c #380000",
"$  c #350313",
"%  c #380814",
"&  c #2C0F13",
"*  c #3E2018",
"=  c #00002A",
"-  c #000625",
";  c #001A28",
":  c #171D28",
">  c #291C22",
",  c #00242A",
"<  c #06272A",
"1  c #1C2528",
"2  c #002B32",
"3  c #023531",
"4  c #2A2929",
"5  c #262828",
"6  c #342B29",
"7  c #392A28",
"8  c #3A352B",
"9  c #353736",
"0  c #223532",
"q  c #490200",
"w  c #5B0500",
"e  c #431C18",
"r  c #491505",
"t  c #690400",
"y  c #760000",
"u  c #7B0000",
"i  c #7F0A00",
"p  c #791500",
"a  c #701509",
"s  c #5C281E",
"d  c #502C16",
"f  c #792A02",
"g  c #753400",
"h  c #68291A",
"j  c #7B351E",
"k  c #76361C",
"l  c #762E1C",
"z  c #452B25",
"x  c #4B2B25",
"c  c #432D29",
"v  c #4D2E28",
"b  c #442525",
"n  c #542C25",
"m  c #4E312B",
"M  c #4E3A28",
"N  c #52312A",
"B  c #593228",
"V  c #503630",
"C  c #683724",
"Z  c #773A23",
"A  c #6C2D22",
"S  c #3C4739",
"D  c #554A2C",
"F  c #564D3B",
"G  c #584F3B",
"H  c #524B38",
"J  c #764124",
"K  c #695929",
"L  c #69462F",
"P  c #756E26",
"I  c #003442",
"U  c #00434F",
"Y  c #3C656F",
"T  c #57514D",
"R  c #6D5A50",
"E  c #59737B",
"W  c #46636B",
"Q  c #676868",
"!  c #717879",
"~  c #706245",
"^  c #930000",
"/  c #9B0000",
"(  c #990D00",
")  c #8D1900",
"_  c #970800",
"`  c #A60000",
"'  c #A41A00",
"]  c #A41600",
"[  c #8D3D00",
"{  c #89380F",
"}  c #923D00",
"|  c #9C3C0C",
" . c #96350A",
".. c #833A1F",
"X. c #893818",
"o. c #963C12",
"O. c #842D04",
"+. c #A72700",
"@. c #A53D03",
"#. c #AB3C01",
"$. c #A63904",
"%. c #AF3806",
"&. c #853C26",
"*. c #933925",
"=. c #9A4009",
"-. c #9A4919",
";. c #915112",
":. c #AD4200",
">. c #A74404",
",. c #B24300",
"<. c #B84A03",
"1. c #BA5201",
"2. c #B85A03",
"3. c #A74713",
"4. c #AD5915",
"5. c #A85416",
"6. c #B65915",
"7. c #BB6608",
"8. c #AA711F",
"9. c #894926",
"0. c #984825",
"q. c #8E5037",
"w. c #A94929",
"e. c #B54B29",
"r. c #A55233",
"t. c #8E7127",
"y. c #B56636",
"u. c #A5652C",
"i. c #C34A00",
"p. c #C45C00",
"a. c #C95801",
"s. c #D55C00",
"d. c #C66200",
"f. c #CE6501",
"g. c #CC6804",
"h. c #D26500",
"j. c #D36901",
"k. c #DA6C00",
"l. c #DB7300",
"z. c #D97703",
"x. c #D16C1A",
"c. c #E77A00",
"v. c #C9532C",
"b. c #DA582C",
"n. c #CA5C32",
"m. c #E35B2C",
"M. c #CA6724",
"N. c #DA6635",
"B. c #D07431",
"V. c #EC6A35",
"C. c #E26D3A",
"Z. c #F6793F",
"A. c #EF713A",
"S. c #8E5C4B",
"D. c #A75944",
"F. c #8D714C",
"G. c #AC6646",
"H. c #B67555",
"J. c #9E7E78",
"K. c #AD796B",
"L. c #CD784E",
"P. c #FA7C40",
"I. c #EB7C42",
"U. c #978227",
"Y. c #A68825",
"T. c #B29623",
"R. c #BBA124",
"E. c #BC911F",
"W. c #D88508",
"Q. c #C88318",
"!. c #EA8500",
"~. c #F58902",
"^. c #FD9404",
"/. c #E29102",
"(. c #D0B21D",
"). c #E8B411",
"_. c #C4A220",
"`. c #EDC714",
"'. c #AB895A",
"]. c #A48658",
"[. c #B28F5D",
"{. c #AC8476",
"}. c #B98178",
"|. c #B78462",
" X c #9E8169",
".X c #D0894F",
"XX c #EB8649",
"oX c #F18446",
"OX c #F58A4B",
"+X c #F19352",
"@X c #F49A58",
"#X c #E79658",
"$X c #C38274",
"%X c #D18B68",
"&X c #F4A561",
"*X c #F6AB67",
"=X c #E2B06E",
"-X c #F6B46E",
";X c #FAB76F",
":X c #E8B472",
">X c #F9BD76",
",X c #F5B872",
"<X c #E1A96A",
"1X c #D3A669",
"2X c #FCC47B",
"3X c #FFC97E",
"4X c #FAC077",
"5X c #7F8081",
"6X c #998782",
"7X c #8D8E8E",
"8X c #B59C91",
"9X c #969FA2",
"0X c #ABADAE",
"qX c #B4ABA7",
"wX c #B6B5B5",
"eX c #A6AEB1",
"rX c #DA9D86",
"tX c #C69487",
"yX c #E29D81",
"uX c #C6A29C",
"iX c #D8A89B",
"pX c #D3AAA3",
"aX c #CCB2AC",
"sX c #DCC2BD",
"dX c #C4C0BE",
"fX c #E0C1BA",
"gX c #FFCD81",
"hX c #B8C4C8",
"jX c #CACACA",
"kX c #DCCAC8",
"lX c #C8CFD1",
"zX c #DBD4D3",
"xX c #E4CAC4",
"cX c #ECDAD6",
"vX c #DBDFE1",
"bX c #E7E8E8",
"nX c #F3ECEB",
"mX c #F1E6E4",
"MX c #EEF4F5",
"NX c #F3F2F3",
"BX c #FDFDFD",
"VX c #F6F7F7",
"CX c #EAEEF0",
"ZX c None",
/* pixels */
"ZXZXZXZXZXZXZXZXZXZXZXZXZXZXZXZXZXZXZXZXZXZXZXZXZXZXZXZXZXZXZXZXZXZXZXZXZXZXZXZXZXZXZXZXZXZXZXZXZXZXZXZXZXZXZXZXZXZXZXZXZXZXZXZX",
"ZXZXZXZXZXZXZXZXZXZXZXZXZXZXZXZXZXZXZXZXZXZXZXZXZXZXZXZXZXZXZXZXZXZXZXZXZXZXZXZXZXZXZXZXZXZXZXZXZXZXZXZXZXZXZXZXZXZXZXZXZXZXZXZX",
"ZXZXZXZXZXZXZXZXZXZXZXZXZXZXZXZXZXZXZXZXZXZXZXZXZXZXZXZXZXZXZXZXZXZXZXZXZXZXZXZXZXZXZXZXZXZXZXZXZXZXZXZXZXZXZXZXZXZXZXZXZXZXZXZX",
"ZXZXZXZXZXZXZXZXZXZXZXZXZXZXZXZXZXZXZXZXZXZXZXZXZXZXZXZXZXZXZXZXZXZXZXZXZXZXZXZXZXZXZXZXZXZXZXZXZXZXZXZXZXZXZXZXZXZXZXZXZXZXZXZX",
"ZXZXZXZXZXZXZXZXZXZXZXZXZXZXZXZXZXZXZXZXZXZXZXZXZXZXZXZXZXZXZXZXZXZXZXZXZXZXZXZXZXZXZXZXZXZXZXZXZXZXZXZXZXZXZXZXZXZXZXZXZXZXZXZX",
"ZXZXZXZXZXZXZXZXZXZXZXZXZXZXZXZXZXZXZXZXZXZXZXZXZXZXZXZXZXZXZXZXZXZXZXZXZXZXZXZXZXZXZXZXZXZXZXZXZXZXZXZXZXZXZXZXZXZXZXZXZXZXZXZX",
"ZXZXZXZXZXZXZXZXZXZXZXZXZXZXZXZXZXZXZXZXZXZXZXZXZXZXZX, , , , , , , , , , ZXZXZXZXZXZXZXZXZXZXZXZXZXZXZXZXZXZXZXZXZXZXZXZXZXZXZX",
"ZXZXZXZXZXZXZXZXZXZXZXZXZXZXZXZXZXZXZXZXZXZXZXZXZXZX, , , , , , , , , , , , ZXZXZXZXZXZXZXZXZXZXZXZXZXZXZXZXZXZXZXZXZXZXZXZXZXZX",
"ZXZXZXZXZXZXZXZXZXZXZXZXZXZXZXZXZXZXZXZXZXZXZXZXZXz z N N x v x m v m N N z z ZXZXZXZXZXZXZXZXZXZXZXZXZXZXZXZXZXZXZXZXZXZXZXZXZX",
"ZXZXZXZXZXZXZXZXZXZXZXZXZXZXZXZXZXZXZXZXZXZXZXZXz A j X.&...Z Z j k ....X.l C x ZXZXZXZXZXZXZXZXZXZXZXZXZXZXZXZXZXZXZXZXZXZXZXZX",
"ZXZXZXZXZXZXZXZXZXZXZXZXZXZXZXZXZXZXZXZX4 5 2 , v j o.@.$.| |  . .| | @.>.o.j z , , 5 4 ZXZXZXZXZXZXZXZXZXZXZXZXZXZXZXZXZXZXZXZX",
"ZXZXZXZXZXZXZXZXZXZXZXZXZXZXZXZXZXZXZX4 4 4 2 , z j | :.,.#.:.:.:.:.:.:.:.| j z , 2 4 5 4 ZXZXZXZXZXZXZXZXZXZXZXZXZXZXZXZXZXZXZX",
"ZXZXZXZXZXZXZXZXZXZXZXZXZXZXZXZXZXZX4 4 4 1     @ w f -.3.,.1.p.p.1.,.3.o.f a X     1 4 4 4 ZXZXZXZXZXZXZXZXZXZXZXZXZXZXZXZXZXZX",
"ZXZXZXZXZXZXZXZXZXZXZXZXZXZXZXZX4 5 4 4 4 O         % Z -.4.p.a.p.a.4.9.C r         O 4 4 4 5 4 ZXZXZXZXZXZXZXZXZXZXZXZXZXZXZXZX",
"ZXZXZXZXZXZXZXZXZXZXZXZXZXZXZXZX5 4 4 5 4 4 0 9 9 3 , z 9.7.j.k.k.h.6.;.c , 2 9 9 8 4 4 4 4 4 5 ZXZXZXZXZXZXZXZXZXZXZXZXZXZXZXZX",
"ZXZXZXZXZXZXZXZXZXZXZXZXZXZXZXZXZX5 1   + T J.9X7XE I   [ d.c.~.~.c.d.=.  I E 7X9X! T o   1 4 ZXZXZXZXZXZXZXZXZXZXZXZXZXZXZXZXZX",
"ZXZXZXZXZXZXZXZXZXZXZXZXZXZXZXZXZXZXZX    Q 0XlXjX9XU   ) l.~.^.^.~.j.)   U 9XjXlXeXQ     ZXZXZXZXZXZXZXZXZXZXZXZXZXZXZXZXZXZXZX",
"ZXZXZXZXZXZXZXZXZXZXZXZXZXZXZXZXZXZXZX    7XjXNXCXhXE @ } z.^.^.^.^.z.[ # E hXCXNXjX7X    ZXZXZXZXZXZXZXZXZXZXZXZXZXZXZXZXZXZXZX",
"ZXZXZXZXZXZXZXZXZXZXZXZXZXZXZXZXZXZXZX  q 6XzXVXBXvXeX6XH..XW.!./.W..XH.6XeXvXBXVXzX6Xq   ZXZXZXZXZXZXZXZXZXZXZXZXZXZXZXZXZXZXZX",
"ZXZXZXZXZXZXZXZXZXZXZXZXZXZXZXZXZX, # w u K.kXNXBXMXvXjXqX{.;.} } ;.{.qXjXvXVXBXNXkX{.u w # , ZXZXZXZXZXZXZXZXZXZXZXZXZXZXZXZXZX",
"ZXZXZXZXZXZXZXZXZXZXZXZXZXZXZXZX; , r y ( $XsXCXBXBXBXCXlX7X&     &  XlXCXBXBXBXnXxX$X( y r , , ZXZXZXZXZXZXZXZXZXZXZXZXZXZXZXZX",
"ZXZXZXZXZXZXZXZXZXZXZXZXZXZXZXZX6 n f ^ ' $XsXnXBXBXVXbXdX Xd # # d 6XdXbXVXBXBXnXaX$X] ^ f n 6 ZXZXZXZXZXZXZXZXZXZXZXZXZXZXZXZX",
"ZXZXZXZXZXZXZXZXZXZXZX, , , , b s l ) ^ ] tXxXnXBXbXlXwX8X[.7.7.7.7.[.8XwXlXbXVXCXxX$X] ^ ) l s b , , , , ZXZXZXZXZXZXZXZXZXZXZX",
"ZXZXZXZXZXZXZXZXZXZX, , , , , n l  .+.` ] K.xXNXMXlX7XR u.Q.!.^.~.~.Q.u.R 7XlXNXNXxX}.] / +. .l n , , , , , ZXZXZXZXZXZXZXZXZXZX",
"ZXZXZXZXZXZXZXZXZXz z v z 6 v j 3.1.,.` ] K.cXNXNXhXW   ) l.~.^.^.^.l.)   W hXCXVXxXK.] ` i.1.3...n 6 b m z z ZXZXZXZXZXZXZXZXZX",
"ZXZXZXZXZXZXZXZXz C k ..&.A &.5.g.k.s.%.] tXxXBXMXhXY   u g.~.~.^.!.g.u   Y hXMXBXkXtX] %.s.k.g.5.&.A &...Z s z ZXZXZXZXZXZXZXZX",
"ZXZXZXZXZXZXZX, z A X.|  . .3.2.c.~.c.i.' K.xXBXMXhXE   y 2.l.c.c.l.2.y   E hXVXBXkXK.' i.c.~.c.7.|  . .| o.k z , ZXZXZXZXZXZXZX",
"ZXZXZXZXZXZX, , N &.@.:.#.$.:.f.!.~.c.s.%.K.kXnXCXjX! q i 1.f.k.j.g.1.i q ! hXCXNXxXK.%.i.c.^.!.f.:.$.#.:.| ..N , , ZXZXZXZXZXZX",
"ZXZXZXZXZXZX, , N ..@.,.%.$.,.a.l.c.c.s.i.L.iXxXxXpXK.[ | 2.h.j.j.f.p.>.=.K.uXxXxXiXL.i.s.c.c.c.p.,.$.#.,.@.&.N , , ZXZXZXZXZXZX",
"ZXZXZXZXZXZX, , m ..| :.#.3.%.<.s.s.s.s.a.L.%XyXrX%XB.7.p.h.j.k.k.k.f.d.2.B.%XrXyX%XL.s.s.s.s.s.<.:.| ,.:.| j m , , ZXZXZXZXZXZX",
"ZXZXZXZXZXZX, , v j | :.#.@.:.6.v.M.B.x.g.f.f.f.f.f.h.g.j.g.j.g.f.g.g.j.g.g.g.f.f.f.h.g.x.x.x.v.6.:.#.#.:.| j v , , ZXZXZXZXZXZX",
"ZXZXZXZXZXZX, , v ..=.,.#.+.3.H.1XiXrX$Xy.,.#.$.$.,.1.6.6.4.4.4.4.4.4.6.6.1.,.$.$.:.:.y.$XrXiXtXH.3.+.%.,.| ..N , 2 ZXZXZXZXZXZX",
"ZXZXZXZXZXZX, , B &.@.:.%.` 3.tXfXcXkX8XS.t a f g g J J J J C J Z C J J J k g g f t t S.8XkXcXfX$X5.` %.:.@.&.N , , ZXZXZXZXZXZX",
"ZXZXZXZXZXZX, , v Z | #.' / e.uXcXVXvXeXT     5 4 4 5 5 5 4 4 4 4 4 5 5 5 4 4 4 4     T eXvXVXcXuXw.` ' :.| ..v , , ZXZXZXZXZXZX",
"ZXZXZXZXZXZXZX, x A X.| ] / w.pXmXBXMXwXT   X e n B C C C C C C C C L C C C B d e X . R wXCXBXmXpXw.` ] | X.k z , ZXZXZXZXZXZXZX",
"ZXZXZXZXZXZXZXZXz n C j ^ / e.pXnXBXVXaXS.y u O.o.;.5.4.4.4.4.4.4.4.4.4.4.5.-.o.O.u y S.dXnXBXnXpXe.^ ^ ..s n x ZXZXZXZXZXZXZXZX",
"ZXZXZXZXZXZXZXZXZX< 5 v u ^ w.pXmXBXnXaXG./ / $.:.2.d.g.j.g.g.g.g.f.g.f.g.d.1.:.@./ / G.aXnXBXmXpXw.^ u v 1 < ZXZXZXZXZXZXZXZXZX",
"ZXZXZXZXZXZXZXZXZXZX, 1 w u 0.tXkXbXzXuXD.^ ^  .>.<.2.d.d.d.d.d.d.d.d.d.d.7.2.>.@./ / D.uXzXbXkX8Xw.u w 1 , ZXZXZXZXZXZXZXZXZXZX",
"ZXZXZXZXZXZXZXZXZXZXZX< q t &.J.qXwXqX6Xq.y y y a f [ } =.[ } } [ [ [ [ =.=.{ j j p ) q.6XqXwXqXJ.9.t q < ZXZXZXZXZXZXZXZXZXZXZX",
"ZXZXZXZXZXZXZXZXZXZXZXZXe e V T Q Q Q T v * $ + + X $ % % $ $ $ % % $ $ & % e z v b e V T Q Q Q T n * * ZXZXZXZXZXZXZXZXZXZXZXZX",
"ZXZXZXZXZXZXZXZXZXZXZXZXZX2 ,           ; 0 S F T G G G F F F F F F F G G H 9 < , , 2 ,           , 2 ZXZXZXZXZXZXZXZXZXZXZXZXZX",
"ZXZXZXZXZXZXZXZXZXZXZXZXZXZXZX  ZXZX    o H ~ ].[.|.[.'.'.'.'.'.'.'.'.[.[.F.~ 3 o - , ZXZXZXZXZX  ZXZXZXZXZXZXZXZXZXZXZXZXZXZXZX",
"ZXZXZXZXZXZXZXZXZXZXZXZXZXZXZXZXZXZXZX  o G [.=X:X:X=X<X<X=X=X=X=X=X=X:X:X1X].S . . ZXZXZXZXZXZXZXZXZXZXZXZXZXZXZXZXZXZXZXZXZXZX",
"ZXZXZXZXZXZXZXZXZXZXZXZXZXZXZXZXZXZXZX  & S.1X:X>XgXgX>X2X2X2X2X2X2X3X3X3X:X[.q.+ . ZXZXZXZXZXZXZXZXZXZXZXZXZXZXZXZXZXZXZXZXZXZX",
"ZXZXZXZXZXZXZXZXZXZXZXZXZXZXZXZXZXZXZXa *.G.#X*X>XgXgXgXgX>XgX,X3X3XgXgXgX,X<XH.r.9.ZXZXZXZXZXZXZXZXZXZXZXZXZXZXZXZXZXZXZXZXZXZX",
"ZXZXZXZXZXZXZXZXZXZXZXZXZX; ; ; = 2 Z w.v.I.XX@X*X-X,XgXgXgXgXgX2X2X2XgX2X>X*X#XL.G.L - = , , ; , ; = = - - ZXZXZXZXZXZXZXZXZXZX",
"ZXZXZXZXZXZXZXZXZXZXZXZXZX6 6 1 2 4 Z e.b.C.I.oX@X*X-XgX,X,X,XgX>X>X>X2X4X,X*X@XXXG.J ; - 1 4 6 6 7 8 8 8 8 ZXZXZXZXZXZXZXZXZXZX",
"ZXZXZXZXZXZXZXZXZXZXZXZXB Z 9.9.Z C &.w.v.N.N.A.OX#X&X-X-X-X-X-X-X-X-X-X,X*X#X#XB.y.q.h h A Z Z &.9.t.8.Y.U.t.ZXZXZXZXZXZXZXZXZX",
"ZXZXZXZXZXZXZXZXZXZX= = A 5.6.6.3.o.X.Z &.w.v.C.I.OX@X*X*X&X&X&X&X&X&X*X&X#X.XG.q.0.-.o. . .o.3.3.6.W.).`.(.T.K = ZXZXZXZXZXZXZX",
"ZXZXZXZXZXZXZXZXZXZX- 7 9.6.f.f.1.:.{ n 5 B w.b.V.I.OX+X@X@X+X+X+X@XOXOX@X.XG.F > h  .:.:.@.#.,.i.h./.).`.`.R.K = = ZXZXZXZXZXZX",
"ZXZXZXZXZXZXZXZXZXP P U.8.z.k.h.a.,.} h b s *.e.n.N.I.I.I.I.I.P.oXoXOXOXOXC.r.6 o e { @.@.o.3.>.<.2.W.).`.(.R.K = = ZXZXZXZXZXZX",
"ZXZXZXZXZXZXZX= K Y._.).).!.h.s.i.,.#. .{ X.&.&.r.n.C.I.P.P.P.P.Z.Z.Z.oXP.C.r.V = > A j ..Z j &.*.-.u.Y.T.T.t.D - = ZXZXZXZXZXZX",
"ZXZXZXZXZXZXZX= K T.`.`.)./.k.a.<.#.@.#.:.=.l z C r.n.V.V.V.I.V.V.V.V.V.V.N.w.C , , 6 z c c 7 c c m M D D D D 4 5 1 ZXZXZXZXZXZX",
"ZXZXZXZXZXZX= = K R.`.`.).W.p.,.3.| | @.@.{ s , 5 &.v.v.b.b.m.m.m.m.m.m.m.v.w.B ; , , , , 2 , , 2 ; = = = = = : 4 ZXZXZXZXZXZXZX",
"ZXZXZXZXZXZX= = G U.R._.E.8.0.*.....j X...k z , 1 C *.r.e.v.ZXZXZXZXZXZXZXZXZXZXZXZXZXZXZXZXZXZXZXZXZXZXZXZXZXZXZXZXZXZXZXZXZXZX",
"ZXZXZXZXZXZX: 5 8 D K K K L B N N v v v m v 6 4 6 V V C A ZXZXZXZXZXZXZXZXZXZXZXZXZXZXZXZXZXZXZXZXZXZXZXZXZXZXZXZXZXZXZXZXZXZXZX",
"ZXZXZXZXZXZXZX4 1 = = = = - ; 2 , , , , , , 5 4 5 , < ; ; ZXZXZXZXZXZXZXZXZXZXZXZXZXZXZXZXZXZXZXZXZXZXZXZXZXZXZXZXZXZXZXZXZXZXZX",
"ZXZXZXZXZXZXZXZX: = = = = = ; , , , , , , , < 4 1 < ; ZXZXZXZXZXZXZXZXZXZXZXZXZXZXZXZXZXZXZXZXZXZXZXZXZXZXZXZXZXZXZXZXZXZXZXZXZX",
"ZXZXZXZXZXZXZXZXZXZXZXZXZXZXZXZXZXZXZXZXZXZXZXZXZXZXZXZXZXZXZXZXZXZXZXZXZXZXZXZXZXZXZXZXZXZXZXZXZXZXZXZXZXZXZXZXZXZXZXZXZXZXZXZX",
"ZXZXZXZXZXZXZXZXZXZXZXZXZXZXZXZXZXZXZXZXZXZXZXZXZXZXZXZXZXZXZXZXZXZXZXZXZXZXZXZXZXZXZXZXZXZXZXZXZXZXZXZXZXZXZXZXZXZXZXZXZXZXZXZX",
"ZXZXZXZXZXZXZXZXZXZXZXZXZXZXZXZXZXZXZXZXZXZXZXZXZXZXZXZXZXZXZXZXZXZXZXZXZXZXZXZXZXZXZXZXZXZXZXZXZXZXZXZXZXZXZXZXZXZXZXZXZXZXZXZX",
"ZXZXZXZXZXZXZXZXZXZXZXZXZXZXZXZXZXZXZXZXZXZXZXZXZXZXZXZXZXZXZXZXZXZXZXZXZXZXZXZXZXZXZXZXZXZXZXZXZXZXZXZXZXZXZXZXZXZXZXZXZXZXZXZX",
"ZXZXZXZXZXZXZXZXZXZXZXZXZXZXZXZXZXZXZXZXZXZXZXZXZXZXZXZXZXZXZXZXZXZXZXZXZXZXZXZXZXZXZXZXZXZXZXZXZXZXZXZXZXZXZXZXZXZXZXZXZXZXZXZX",
"ZXZXZXZXZXZXZXZXZXZXZXZXZXZXZXZXZXZXZXZXZXZXZXZXZXZXZXZXZXZXZXZXZXZXZXZXZXZXZXZXZXZXZXZXZXZXZXZXZXZXZXZXZXZXZXZXZXZXZXZXZXZXZXZX"
};
