/* XPM */
static char *result[] = {
/* columns rows colors chars-per-pixel */
"64 64 243 2 ",
"   c #000000",
".  c #00000D",
"X  c #1E0000",
"o  c #00001B",
"O  c #16191A",
"+  c #0E0716",
"@  c #270000",
"#  c #380000",
"$  c #350414",
"%  c #380814",
"&  c #2D0C13",
"*  c #3E2018",
"=  c #00002A",
"-  c #000625",
";  c #001A28",
":  c #151C28",
">  c #281D22",
",  c #00242A",
"<  c #06272A",
"1  c #1C2528",
"2  c #002B32",
"3  c #033531",
"4  c #2A2929",
"5  c #262828",
"6  c #352B29",
"7  c #382A28",
"8  c #3A352B",
"9  c #353736",
"0  c #223532",
"q  c #490200",
"w  c #5B0500",
"e  c #431C18",
"r  c #491505",
"t  c #680400",
"y  c #760000",
"u  c #7B0000",
"i  c #7F0A00",
"p  c #791500",
"a  c #701509",
"s  c #5D281E",
"d  c #502C16",
"f  c #792A02",
"g  c #753400",
"h  c #68291A",
"j  c #7B351E",
"k  c #76361C",
"l  c #762E1C",
"z  c #452B25",
"x  c #4B2B25",
"c  c #432D29",
"v  c #4D2E28",
"b  c #442525",
"n  c #542C25",
"m  c #4E312B",
"M  c #4E3A28",
"N  c #52312A",
"B  c #593228",
"V  c #503630",
"C  c #683724",
"Z  c #763A23",
"A  c #6C2D22",
"S  c #3C4739",
"D  c #554A2C",
"F  c #564D3B",
"G  c #584F3B",
"H  c #524B38",
"J  c #764124",
"K  c #695929",
"L  c #6A472F",
"P  c #756E26",
"I  c #003442",
"U  c #00434F",
"Y  c #3C656F",
"T  c #57514D",
"R  c #6D5A50",
"E  c #59737B",
"W  c #46636B",
"Q  c #676868",
"!  c #717879",
"~  c #706245",
"^  c #930000",
"/  c #9B0100",
"(  c #990D00",
")  c #8D1900",
"_  c #970800",
"`  c #A60000",
"'  c #A41A00",
"]  c #A41600",
"[  c #8D3D00",
"{  c #89380F",
"}  c #923D00",
"|  c #9C3C0C",
" . c #96350A",
".. c #833A1F",
"X. c #893818",
"o. c #963C12",
"O. c #842D04",
"+. c #A72700",
"@. c #A53D03",
"#. c #AB3C01",
"$. c #A63904",
"%. c #AF3806",
"&. c #853C26",
"*. c #923925",
"=. c #9A4009",
"-. c #9A4919",
";. c #915112",
":. c #AD4200",
">. c #A74404",
",. c #B24300",
"<. c #B84A03",
"1. c #BA5201",
"2. c #B85A03",
"3. c #A74713",
"4. c #AD5915",
"5. c #A85416",
"6. c #B65915",
"7. c #BB6608",
"8. c #AA711F",
"9. c #894926",
"0. c #984825",
"q. c #8E5037",
"w. c #A94929",
"e. c #B54B29",
"r. c #A55233",
"t. c #8E7127",
"y. c #AD6531",
"u. c #C34A00",
"i. c #C45C00",
"p. c #C95801",
"a. c #D55C00",
"s. c #C66200",
"d. c #CE6501",
"f. c #CC6804",
"g. c #D26500",
"h. c #D36901",
"j. c #DA6C00",
"k. c #DB7300",
"l. c #D97703",
"z. c #D16C1A",
"x. c #E77A00",
"c. c #C9532C",
"v. c #DA592C",
"b. c #CA5C32",
"n. c #E35B2C",
"m. c #CA6724",
"M. c #DA6535",
"N. c #D07431",
"B. c #EC6A35",
"V. c #E26D3A",
"C. c #F6793F",
"Z. c #EF713A",
"A. c #8E5C4B",
"S. c #A75944",
"D. c #92754E",
"F. c #AC6546",
"G. c #B67555",
"H. c #9E7E78",
"J. c #AD796B",
"K. c #CD784E",
"L. c #FA7C40",
"P. c #EB7C42",
"I. c #978227",
"U. c #A58825",
"Y. c #B29623",
"T. c #BBA024",
"R. c #BC911F",
"E. c #D88508",
"W. c #C88318",
"Q. c #EA8500",
"!. c #F58902",
"~. c #FD9404",
"^. c #E29102",
"/. c #D0B21D",
"(. c #E8B411",
"). c #C4A220",
"_. c #EDC714",
"`. c #AB895A",
"'. c #A48658",
"]. c #B28F5D",
"[. c #AC8476",
"{. c #B98178",
"}. c #B78462",
"|. c #9C827D",
" X c #D2894F",
".X c #EB8649",
"XX c #F18446",
"oX c #F58A4B",
"OX c #F19453",
"+X c #F59A58",
"@X c #E9995A",
"#X c #C38274",
"$X c #D18B68",
"%X c #F4A561",
"&X c #F6AB66",
"*X c #E3B06E",
"=X c #F6B46E",
"-X c #FAB76F",
";X c #E9B572",
":X c #F9BD76",
">X c #F5B872",
",X c #E1AB6B",
"<X c #D3A669",
"1X c #FCC47B",
"2X c #FFC97E",
"3X c #FAC077",
"4X c #7F8081",
"5X c #998782",
"6X c #8D8E8E",
"7X c #B59C91",
"8X c #969FA2",
"9X c #ABADAE",
"0X c #B4ABA7",
"qX c #B6B5B5",
"wX c #A6AEB1",
"eX c #DA9D86",
"rX c #C69487",
"tX c #E29D81",
"yX c #C6A29C",
"uX c #D8A89B",
"iX c #D3AAA3",
"pX c #CCB2AC",
"aX c #DCC2BD",
"sX c #C4C0BE",
"dX c #E0C1BA",
"fX c #FFCD81",
"gX c #B8C4C8",
"hX c #CACACA",
"jX c #DCCAC8",
"kX c #C8CFD1",
"lX c #DBD4D3",
"zX c #E4CAC4",
"xX c #ECDAD6",
"cX c #DBDFE1",
"vX c #E7E8E8",
"bX c #F3ECEB",
"nX c #F1E6E4",
"mX c #EEF4F5",
"MX c #F3F2F3",
"NX c #FDFDFD",
"BX c #F6F7F7",
"VX c #EAEEF0",
"CX c None",
/* pixels */
"CXCXCXCXCXCXCXCXCXCXCXCXCXCXCXCXCXCXCXCXCXCXCXCXCXCXCXCXCXCXCXCXCXCXCXCXCXCXCXCXCXCXCXCXCXCXCXCXCXCXCXCXCXCXCXCXCXCXCXCXCXCXCXCX",
"CXCXCXCXCXCXCXCXCXCXCXCXCXCXCXCXCXCXCXCXCXCXCXCXCXCXCXCXCXCXCXCXCXCXCXCXCXCXCXCXCXCXCXCXCXCXCXCXCXCXCXCXCXCXCXCXCXCXCXCXCXCXCXCX",
"CXCXCXCXCXCXCXCXCXCXCXCXCXCXCXCXCXCXCXCXCXCXCXCXCXCXCXCXCXCXCXCXCXCXCXCXCXCXCXCXCXCXCXCXCXCXCXCXCXCXCXCXCXCXCXCXCXCXCXCXCXCXCXCX",
"CXCXCXCXCXCXCXCXCXCXCXCXCXCXCXCXCXCXCXCXCXCXCXCXCXCXCXCXCXCXCXCXCXCXCXCXCXCXCXCXCXCXCXCXCXCXCXCXCXCXCXCXCXCXCXCXCXCXCXCXCXCXCXCX",
"CXCXCXCXCXCXCXCXCXCXCXCXCXCXCXCXCXCXCXCXCXCXCXCXCXCXCXCXCXCXCXCXCXCXCXCXCXCXCXCXCXCXCXCXCXCXCXCXCXCXCXCXCXCXCXCXCXCXCXCXCXCXCXCX",
"CXCXCXCXCXCXCXCXCXCXCXCXCXCXCXCXCXCXCXCXCXCXCXCXCXCXCXCXCXCXCXCXCXCXCXCXCXCXCXCXCXCXCXCXCXCXCXCXCXCXCXCXCXCXCXCXCXCXCXCXCXCXCXCX",
"CXCXCXCXCXCXCXCXCXCXCXCXCXCXCXCXCXCXCXCXCXCXCXCXCXCXCX, , , , , , , , , , CXCXCXCXCXCXCXCXCXCXCXCXCXCXCXCXCXCXCXCXCXCXCXCXCXCXCX",
"CXCXCXCXCXCXCXCXCXCXCXCXCXCXCXCXCXCXCXCXCXCXCXCXCXCX, , , , , , , , , , , , CXCXCXCXCXCXCXCXCXCXCXCXCXCXCXCXCXCXCXCXCXCXCXCXCXCX",
"CXCXCXCXCXCXCXCXCXCXCXCXCXCXCXCXCXCXCXCXCXCXCXCXCXx x N N v v v m v v N N x x CXCXCXCXCXCXCXCXCXCXCXCXCXCXCXCXCXCXCXCXCXCXCXCXCX",
"CXCXCXCXCXCXCXCXCXCXCXCXCXCXCXCXCXCXCXCXCXCXCXCXx C k ....j j j k k ..&...l C x CXCXCXCXCXCXCXCXCXCXCXCXCXCXCXCXCXCXCXCXCXCXCXCX",
"CXCXCXCXCXCXCXCXCXCXCXCXCXCXCXCXCXCXCXCX4 5 2 , x k o.@.@.|  .o. . .| @.>.o.k v , , 5 5 CXCXCXCXCXCXCXCXCXCXCXCXCXCXCXCXCXCXCXCX",
"CXCXCXCXCXCXCXCXCXCXCXCXCXCXCXCXCXCXCX4 4 4 2 , x j | #.,.,.:.,.,.:.:.,.:.| k m , 2 4 4 4 CXCXCXCXCXCXCXCXCXCXCXCXCXCXCXCXCXCXCX",
"CXCXCXCXCXCXCXCXCXCXCXCXCXCXCXCXCXCX4 4 4 1     X w f -.3.,.1.1.i.1.,.3.=.f w @     1 4 4 4 CXCXCXCXCXCXCXCXCXCXCXCXCXCXCXCXCXCX",
"CXCXCXCXCXCXCXCXCXCXCXCXCXCXCXCX4 5 4 4 4 O         % Z -.5.i.d.a.i.4.-.C e         O 4 4 4 5 5 CXCXCXCXCXCXCXCXCXCXCXCXCXCXCXCX",
"CXCXCXCXCXCXCXCXCXCXCXCXCXCXCXCX5 4 4 5 4 4 0 9 9 3 , z 9.7.h.j.j.h.6.9.z , 2 9 9 8 4 4 4 4 4 4 CXCXCXCXCXCXCXCXCXCXCXCXCXCXCXCX",
"CXCXCXCXCXCXCXCXCXCXCXCXCXCXCXCXCX5 1   + T H.8X6XE I   [ f.x.!.Q.x.f.[   I E 6X8X! T o   1 4 CXCXCXCXCXCXCXCXCXCXCXCXCXCXCXCXCX",
"CXCXCXCXCXCXCXCXCXCXCXCXCXCXCXCXCXCXCX    Q wXhXhX8XU   ) k.!.~.~.!.h.)   I 8XhXkXwXQ     CXCXCXCXCXCXCXCXCXCXCXCXCXCXCXCXCXCXCX",
"CXCXCXCXCXCXCXCXCXCXCXCXCXCXCXCXCXCXCX    6XhXMXMXgXE @ } l.~.~.~.~.l.[ # E gXVXMXhX6X    CXCXCXCXCXCXCXCXCXCXCXCXCXCXCXCXCXCXCX",
"CXCXCXCXCXCXCXCXCXCXCXCXCXCXCXCXCXCXCX  q 5XlXBXNXcXwX5XJ. Xl.E.Q.E. XG.6XwXcXNXBXlX5Xq   CXCXCXCXCXCXCXCXCXCXCXCXCXCXCXCXCXCXCX",
"CXCXCXCXCXCXCXCXCXCXCXCXCXCXCXCXCX, # w u [.jXMXNXmXcXhX0X}.;.=.=.;.[.0XhXcXBXNXMXjX[.u w # , CXCXCXCXCXCXCXCXCXCXCXCXCXCXCXCXCX",
"CXCXCXCXCXCXCXCXCXCXCXCXCXCXCXCX; , r y ( J.zXbXNXNXNXVXsX6X&     * |.gXVXNXNXNXbXzX#X( y r , , CXCXCXCXCXCXCXCXCXCXCXCXCXCXCXCX",
"CXCXCXCXCXCXCXCXCXCXCXCXCXCXCXCX6 N f ^ ' #XdXbXNXNXmXvXsX|.d # # d |.sXvXBXNXNXbXpX#X] ^ f n 7 CXCXCXCXCXCXCXCXCXCXCXCXCXCXCXCX",
"CXCXCXCXCXCXCXCXCXCXCX, , , ; b s l ) / ' #XzXMXNXvXkXqX7X].7.7.7.7.].7XqXkXvXBXbXzX#X] ^ ) l s b , , , , CXCXCXCXCXCXCXCXCXCXCX",
"CXCXCXCXCXCXCXCXCXCX, , , , < n .. .+.` ] J.zXMXmXkX6XR y.W.Q.~.!.!.N.t.Q 6XkXMXMXzX{.] / +. .l n , , , , , CXCXCXCXCXCXCXCXCXCX",
"CXCXCXCXCXCXCXCXCXz z v c 7 v Z | <.<.` ' {.zXMXMXgXW   ) k.!.~.~.~.l.)   W gXVXBXzXJ.] ` <.1.3...n 6 b m z z CXCXCXCXCXCXCXCXCX",
"CXCXCXCXCXCXCXCXz C k ..&.A ..5.f.j.a.%.' {.lXNXMXgXY   u f.!.!.~.!.d.u   Y gXmXNXjXrX] %.a.k.f.5.&.A &...Z s z CXCXCXCXCXCXCXCX",
"CXCXCXCXCXCXCX, z A X.|  . .3.2.x.!.x.u.' {.zXNXmXgXE   y 2.k.x.l.k.2.y   E gXNXNXjX{.' u.x.!.x.7.|  . .| o.k z , CXCXCXCXCXCXCX",
"CXCXCXCXCXCX, , N &.@.:.#.$.:.d.x.~.x.p.%.J.jXbXVXhX! q i 1.d.j.j.d.2.i q ! gXVXbXzXJ.%.a.x.!.x.d.:.$.#.:.| ..N , , CXCXCXCXCXCX",
"CXCXCXCXCXCX, , N ..@.,.%.$.,.p.k.x.x.a.u.G.uXzXzXyXJ.[ >.2.g.g.j.g.i.@.[ J.0XzXzXuXK.u.a.x.x.x.i.,.$.#.,.@.&.N , , CXCXCXCXCXCX",
"CXCXCXCXCXCX, , m ..| :.#.3.%.<.a.a.a.a.a.K.$XeXtX$XN.2.i.d.j.j.j.h.f.f.i.N.$X,XtX$XK.a.a.a.a.a.<.:.| ,.:.| j m , , CXCXCXCXCXCX",
"CXCXCXCXCXCX, , v j | :.#.@.:.6.m.z.z.z.h.g.g.a.g.d.h.f.h.f.f.f.f.d.f.f.g.d.p.a.d.d.g.h.z.z.z.c.6.:.#.#.:.| j v , , CXCXCXCXCXCX",
"CXCXCXCXCXCX, , v ..=.,.#.+.3.G.rXuXeX#Xy.<.#.$.#.:.2.6.6.4.4.4.4.4.4.6.6.2.>.%.%.#.>.y.#XeXuXrXG.3.+.%.,.| ..N , 2 CXCXCXCXCXCX",
"CXCXCXCXCXCX, , B &.@.:.+.` 3.rXdXxXjX7XA.t t f g g k J J J J J Z C J J J k g g f t t A.7XjXxXdX#X5.` +.,.@.&.N , , CXCXCXCXCXCX",
"CXCXCXCXCXCX, , v Z | :.+.` w.yXxXBXcXwXT     5 4 4 5 5 5 5 1 4 4 4 5 5 5 5 4 6 4     T wXcXBXxXyXe.` +.:.| j m , , CXCXCXCXCXCX",
"CXCXCXCXCXCXCX, x A X. .] ` w.iXbXNXmXqXR   X e n B C C C L C C C C C L C C B x e X . R qXVXNXnXiXw./ ] | { A x , CXCXCXCXCXCXCX",
"CXCXCXCXCXCXCXCXc n C j ^ / e.uXbXNXmXpXA.y y O.o.;.5.4.4.4.4.4.4.4.4.4.4.5.;.o.O.u y A.sXbXNXbXiXw./ ^ j C n z CXCXCXCXCXCXCXCX",
"CXCXCXCXCXCXCXCXCX< 5 v y ^ e.yXnXNXbXpXF./ / $.>.2.s.d.h.d.d.d.f.d.d.f.d.d.1.>.$./ / F.pXbXNXnXiXe.^ u n 1 < CXCXCXCXCXCXCXCXCX",
"CXCXCXCXCXCXCXCXCXCX, 1 w u 0.yXjXvXlXyXS./ _ $.>.<.i.s.s.s.s.s.s.s.s.s.s.2.<.>. .^ / S.yXlXvXlXyX0.u w 1 , CXCXCXCXCXCXCXCXCXCX",
"CXCXCXCXCXCXCXCXCXCXCX< q t &.H.9XpX0X5Xq.i f j ..{ [ =.} [ [ [ =.=.[ =.=.O.f a y t y q.|.0XpX9XH.&.t q < CXCXCXCXCXCXCXCXCXCXCX",
"CXCXCXCXCXCXCXCXCXCXCXCX* e N T Q Q Q T V e d x z e & $ $ $ % % $ & $ % & $ @ + + $ * v T Q Q Q T n * * CXCXCXCXCXCXCXCXCXCXCXCX",
"CXCXCXCXCXCXCXCXCXCXCXCXCX3 ,           ; 2 , , 3 9 F G T G G G H H F F H G G G G S 0 ;           , 3 CXCXCXCXCXCXCXCXCXCXCXCXCX",
"CXCXCXCXCXCXCXCXCXCXCXCXCXCXCX  CXCXCXCXCX, - - 3 ~ D.].].`.`.`.'.`.`.`.`.].].].`.D.S o     CXCX  CXCXCXCXCXCXCXCXCXCXCXCXCXCXCX",
"CXCXCXCXCXCXCXCXCXCXCXCXCXCXCXCXCXCXCXCXCXCX. . H D.<X;X;X*X*X*X*X*X*X*X*X*X;X;X<X`.G o   CXCXCXCXCXCXCXCXCXCXCXCXCXCXCXCXCXCXCX",
"CXCXCXCXCXCXCXCXCXCXCXCXCXCXCXCXCXCXCXCXCXCX. + K $X;X2X2X1X3X1X3X1X1X1X1X1X2X2X>X$XD.& . CXCXCXCXCXCXCXCXCXCXCXCXCXCXCXCXCXCXCX",
"CXCXCXCXCXCXCXCXCXCXCXCXCXCXCXCXCXCXCXCXCXCXq.r.K.<X:XfXfXfX2X2X2X2X2X2XfX1X1X:X=X@XF.0.O.CXCXCXCXCXCXCXCXCXCXCXCXCXCXCXCXCXCXCX",
"CXCXCXCXCXCXCXCXCXCX= = = = ; ; , , ; - - L y.K.+X&X:X1XfX1X1X1X1X1X1X1X2X3X>X&X@X.XV.c.w.Z 2 = ; ; ; CXCXCXCXCXCXCXCXCXCXCXCXCX",
"CXCXCXCXCXCXCXCXCXCX8 8 8 6 7 6 6 6 1 - ; L y..X+X&X>X1X:X:X:X:X3X3X3X3X3X>X&XOX.XZ.Z.v.e.Z 5 ; 5 6 7 CXCXCXCXCXCXCXCXCXCXCXCXCX",
"CXCXCXCXCXCXCXCXCXt.I.Y.8.t.9.&.Z C A h A 0.y.K. X@X&X=X>X=X-X-X=X=X=X>X>X&X@XoXV.V.M.e.w.&.A C 9.9.Z n CXCXCXCXCXCXCXCXCXCXCXCX",
"CXCXCXCXCXCXCX= K Y./._./.E.m.>.3.o. . . .-.0.q.y. X@X%X%X%X%X%X%X%X%X%X%X+XoXL.M.b.w.&.Z X.o.3.6.6.-.A - = CXCXCXCXCXCXCXCXCXCX",
"CXCXCXCXCXCX= = K T._._.(.^.d.u.<.:.@.#.:. .h > G F. XOX+XOXoXOXOXOXOXOXOX.XL.B.v.w.C 5 s { >.1.d.d.7.9.7 - CXCXCXCXCXCXCXCXCXCX",
"CXCXCXCXCXCX= = K T./._.(.E.i.3.:.|  .>.3.{ e o 6 r.P.XXoXXXL.XXP.XXP.L.P.P.K.c.e.*.n b h  .,.p.g.j.l.N.U.P P CXCXCXCXCXCXCXCXCX",
"CXCXCXCXCXCX= - D t.Y.Y.U.8.0.*.&.Z Z j j A > - V r.V.C.L.L.L.L.L.L.P.L.P.P.b.r.*.Z { {  .$.,.u.p.h.E.(./.).U.K = CXCXCXCXCXCXCX",
"CXCXCXCXCXCX1 5 9 M D D D M v z c c c c 7 7 , ; C r.M.B.Z.B.B.B.B.B.B.B.B.v.r.C b l o.>.#.@.:.<.u.g.^.(._._.T.K = CXCXCXCXCXCXCX",
"CXCXCXCXCXCXCX6 : = - = = = ; , , , , , , , , , B w.c.n.n.n.n.n.v.n.v.v.v.e.&.1 ; s { @.$.| | 3.3.i.E.(._._.T.K = = CXCXCXCXCXCX",
"CXCXCXCXCXCXCXCXCXCXCXCXCXCXCXCXCXCXCXCXCXCXCXCXCXCXCXCXCXCXCXCXCXCXc.e.w.q.C 1 , v k ..X.j ....*.-.8.R.).T.I.G = = CXCXCXCXCXCX",
"CXCXCXCXCXCXCXCXCXCXCXCXCXCXCXCXCXCXCXCXCXCXCXCXCXCXCXCXCXCXCXCXCXCXCXA C B V 4 4 6 x N v v v N B B L K K K D 8 5 : CXCXCXCXCXCX",
"CXCXCXCXCXCXCXCXCXCXCXCXCXCXCXCXCXCXCXCXCXCXCXCXCXCXCXCXCXCXCXCXCXCXCX; ; , , 4 4 5 , , , 2 , , , ; = = = = = 5 4 CXCXCXCXCXCXCX",
"CXCXCXCXCXCXCXCXCXCXCXCXCXCXCXCXCXCXCXCXCXCXCXCXCXCXCXCXCXCXCXCXCXCXCXCXCX; , 1 4 < , , , , , , , ; = = = = = : CXCXCXCXCXCXCXCX",
"CXCXCXCXCXCXCXCXCXCXCXCXCXCXCXCXCXCXCXCXCXCXCXCXCXCXCXCXCXCXCXCXCXCXCXCXCXCXCXCXCXCXCXCXCXCXCXCXCXCXCXCXCXCXCXCXCXCXCXCXCXCXCXCX",
"CXCXCXCXCXCXCXCXCXCXCXCXCXCXCXCXCXCXCXCXCXCXCXCXCXCXCXCXCXCXCXCXCXCXCXCXCXCXCXCXCXCXCXCXCXCXCXCXCXCXCXCXCXCXCXCXCXCXCXCXCXCXCXCX",
"CXCXCXCXCXCXCXCXCXCXCXCXCXCXCXCXCXCXCXCXCXCXCXCXCXCXCXCXCXCXCXCXCXCXCXCXCXCXCXCXCXCXCXCXCXCXCXCXCXCXCXCXCXCXCXCXCXCXCXCXCXCXCXCX",
"CXCXCXCXCXCXCXCXCXCXCXCXCXCXCXCXCXCXCXCXCXCXCXCXCXCXCXCXCXCXCXCXCXCXCXCXCXCXCXCXCXCXCXCXCXCXCXCXCXCXCXCXCXCXCXCXCXCXCXCXCXCXCXCX",
"CXCXCXCXCXCXCXCXCXCXCXCXCXCXCXCXCXCXCXCXCXCXCXCXCXCXCXCXCXCXCXCXCXCXCXCXCXCXCXCXCXCXCXCXCXCXCXCXCXCXCXCXCXCXCXCXCXCXCXCXCXCXCXCX",
"CXCXCXCXCXCXCXCXCXCXCXCXCXCXCXCXCXCXCXCXCXCXCXCXCXCXCXCXCXCXCXCXCXCXCXCXCXCXCXCXCXCXCXCXCXCXCXCXCXCXCXCXCXCXCXCXCXCXCXCXCXCXCXCX"
};
