/* XPM */
static char *result[] = {
/* columns rows colors chars-per-pixel */
"36 64 221 2 ",
"   c #000000",
".  c #0A0C0B",
"X  c #190807",
"o  c #001C1A",
"O  c #061917",
"+  c #0F1219",
"@  c #240000",
"#  c #280B0B",
"$  c #2C1916",
"%  c #2D1917",
"&  c #331A16",
"*  c #331B19",
"=  c #3B1D1A",
"-  c #39221E",
";  c #2F251F",
":  c #00002C",
">  c #000526",
",  c #020936",
"<  c #02133C",
"1  c #0A192E",
"2  c #381E27",
"3  c #2B1B36",
"4  c #002B34",
"5  c #00342C",
"6  c #2C2225",
"7  c #3E2426",
"8  c #372933",
"9  c #460000",
"0  c #550200",
"q  c #4B1A16",
"w  c #551C19",
"e  c #720100",
"r  c #760507",
"t  c #6F0D13",
"y  c #47221E",
"u  c #4D2700",
"i  c #561E22",
"p  c #4C1F22",
"a  c #661F23",
"s  c #432524",
"d  c #522D29",
"f  c #582923",
"g  c #5A322B",
"h  c #593C39",
"j  c #4F2D32",
"k  c #672B28",
"l  c #69332A",
"z  c #7A372F",
"x  c #693833",
"c  c #7E3B33",
"v  c #6D2E2D",
"b  c #602A1F",
"n  c #544438",
"m  c #4E4037",
"M  c #6E4438",
"N  c #784432",
"B  c #00044A",
"V  c #021443",
"C  c #02174D",
"Z  c #020056",
"A  c #031B54",
"S  c #041D5B",
"D  c #001554",
"F  c #00186A",
"G  c #05246C",
"H  c #052165",
"J  c #062672",
"K  c #062875",
"L  c #07297C",
"P  c #0C2C7A",
"I  c #2B2C69",
"U  c #591B5B",
"Y  c #680054",
"T  c #4E2843",
"R  c #5C1F6B",
"E  c #402678",
"W  c #612C41",
"Q  c #5E544A",
"!  c #585051",
"~  c #6A4D44",
"^  c #75564E",
"/  c #695650",
"(  c #7C625C",
")  c #40457E",
"_  c #736D6F",
"`  c #860006",
"'  c #8E0405",
"]  c #930000",
"[  c #9E0002",
"{  c #960C0A",
"}  c #87100F",
"|  c #841012",
" . c #97110F",
".. c #A30102",
"X. c #AB0001",
"o. c #A70C0C",
"O. c #BA0204",
"+. c #B80809",
"@. c #A41513",
"#. c #B81411",
"$. c #9C0C3D",
"%. c #8B3E36",
"&. c #843C2F",
"*. c #BE2526",
"=. c #C40001",
"-. c #CB0102",
";. c #C40409",
":. c #D80507",
">. c #D7100F",
",. c #D11211",
"<. c #E90101",
"1. c #EB0609",
"2. c #E50A0C",
"3. c #EF0B0D",
"4. c #E40306",
"5. c #FE0000",
"6. c #FE0D0E",
"7. c #F30606",
"8. c #F11215",
"9. c #FD2020",
"0. c #84443C",
"q. c #984337",
"w. c #A7483C",
"e. c #8A1F68",
"r. c #A12A7A",
"t. c #8B4944",
"y. c #9B564C",
"u. c #8F584D",
"i. c #A5574E",
"p. c #A55D53",
"a. c #AD695C",
"s. c #B3695C",
"d. c #886D63",
"f. c #8B7367",
"g. c #967B6E",
"h. c #827B79",
"j. c #A9796C",
"k. c #B97262",
"l. c #B47F70",
"z. c #A86F6D",
"x. c #886A5E",
"c. c #FE5654",
"v. c #F14544",
"b. c #C57B6A",
"n. c #C37765",
"m. c #C97878",
"M. c #FD6766",
"N. c #85807B",
"B. c #A9887A",
"V. c #ACAD78",
"C. c #C88A79",
"Z. c #D18471",
"A. c #D98B79",
"S. c #E0937F",
"D. c #ECEB5D",
"F. c #0F0092",
"G. c #052C87",
"H. c #002997",
"J. c #033194",
"K. c #09349C",
"L. c #06349B",
"P. c #0E3193",
"I. c #0000A2",
"U. c #0538A4",
"Y. c #2E3FB3",
"T. c #5F0081",
"R. c #0E40B4",
"E. c #0B43BB",
"W. c #615589",
"Q. c #6E41AF",
"!. c #4960B5",
"~. c #6778BF",
"^. c #0000C2",
"/. c #002DCC",
"(. c #0037CB",
"). c #004BCC",
"_. c #0247C7",
"`. c #134BC9",
"'. c #1A4DCA",
"]. c #374AC5",
"[. c #4965C6",
"{. c #86389C",
"}. c #827E80",
"|. c #929195",
" X c #B99586",
".X c #AB9D9D",
"XX c #A6AA93",
"oX c #A9A9A7",
"OX c #ACB1A5",
"+X c #BBBBB9",
"@X c #D59A88",
"#X c #CD968D",
"$X c #E59F8B",
"%X c #D6A795",
"&X c #CEA290",
"*X c #E7A28E",
"=X c #ECA895",
"-X c #ECB19E",
";X c #DFB5A3",
":X c #EAB9A5",
">X c #F4BAA6",
",X c #F1B6B4",
"<X c #F3C2AD",
"1X c #FCC2AD",
"2X c #F4C5B1",
"3X c #F6CAB7",
"4X c #C4C3BF",
"5X c #C8C6C3",
"6X c #DBDBD9",
"7X c #D2D1CD",
"8X c #F7D9CC",
"9X c #E4D8D6",
"0X c #FFDFDC",
"qX c #DBE1DE",
"wX c #FBE2DB",
"eX c #E0E1DD",
"rX c #E8EBE8",
"tX c #FFFFFF",
"yX c #F7F7F3",
"uX c #F4EEEA",
"iX c None",
/* pixels */
"iXiXiXiXiXiXiXiXiXiXiXiXiXiXiXiXiXiXiXiXiXiXiXiXiXiXiXiXiXiXiXiXiXiXiXiX",
"iXiXiXiXiXiXiXiXiXiXiXiXiXiXiXiXiXiXiXiXiXiXiXiXiXiXiXiXiXiXiXiXiXiXiXiX",
"iXiXiXiXiXiXiXiXiXiXiXiXiXO o o o o o o o o + iXiXiXiXiXiXiXiXiXiXiXiXiX",
"iXiXiXiXiXiXiXiXiXiXiXiXf } o.#.#.#.#.#.#.@.} f iXiXiXiXiXiXiXiXiXiXiXiX",
"iXiXiXiXiXiXiXiXiX2 $ $ } =.1.6.6.6.6.6.6.<.=.} % & = iXiXiXiXiXiXiXiXiX",
"iXiXiXiXiXiXiXiXs } o.,.>.7.9.5.5.5.5.5.5.9.1.>.,.o.| s iXiXiXiXiXiXiXiX",
"iXiXiXiXiXiXiX6 r +.4.6.6.6.5.9.c.M.M.c.9.5.6.6.6.<.O.t 6 iXiXiXiXiXiXiX",
"iXiXiXiXiXiXp } +.2.6.6.6.6.5.v.3XuX0X3Xv.5.6.6.6.6.4.+.} p iXiXiXiXiXiX",
"iXiXiXiXiXo q +.<.6.6.6.6.6.5.c.0XtXtX0Xc.5.6.6.6.6.6.<.+.q o iXiXiXiXiX",
"iXiXiXiXiXiXq ,.6.6.6.6.6.6.5.c.0XtXtX0Xc.5.6.6.6.6.6.6.,.q iXiXiXiXiXiX",
"iXiXiXiXiXi  .2.6.6.6.6.3.4.<.v.,X7X9X;Xv.:.4.3.6.6.6.6.2. .i iXiXiXiXiX",
"iXiXiXiX&  .-.3.6.6.6.6.2.O.O.+.*.*.*.*.+.O.=.2.6.6.6.6.3.-.{ * iXiXiXiX",
"iXiXiXiX& { -.:.:.;.;.:.4.2.2.<.<.<.<.<.<.8.1.:.:.;.;.:.:.-.{ & iXiXiXiX",
"iXiXiXiX& { =.=.X.r ` O.:.6.8.6.3.6.3.6.3.6.8.2.O.` r X.=.=. .* iXiXiXiX",
"iXiXiXiX& o.;...` ..-.7.>.@.] ] ] ] ] ] ] ] @.>.7.;...` [ =.o.& iXiXiXiX",
"iXiXiXiX# ' X.' ` ..-.1.#.o 5 n n m m m n 5 o +.1.:...` ] X.` # iXiXiXiX",
"iXiXiXiX    0 X.+.r 0 e 0 $ i.n.n.n.n.b.b.i.$ 0 e 0 r +...0     iXiXiXiX",
"iXiXiXd.g.g.d.w...k n ~ j & B.=X=X=X*X*X=XB.% d ^ n k ..%.f.g.g.d.iXiXiX",
"iXiX  B.>X2X:Xx.9 0.s.Z.y.&  X<X1X<X:X<X1XB.; y.Z.s.%.9 a.;X2X>XB.  iXiX",
"iXiX  j.-X3X<Xf.@ i.A.=XB.  j.-X>X<X<X<X>Xj.  B.=XA.i.@ f.2X3X-Xj.  iXiX",
"iXiX  y.A.-X>Xd.w b.=X1X X7 i.S.:X2X2X:XS.i.y  X2X=Xn.w d.:X-XA.y.  iXiX",
"iXiX  B.-X>X*X~ n %X1X<X;X&X@X:X3X8X8X3X-X%X&X;X2X1X%Xn ~ $X>X-XB.  iXiX",
"iXiX  B.:X%Xn.v ^ %X<X<X2X<X>X2X8XwXwX8X2X<X<X<X:X2X%X^ z n.%X:XB.  iXiX",
"iXiXiX( d.u.N %.t.^  X2X>X*X:X2X3X3X3X3X2X-X*X1X2X X^ t.%.N u.x.( iXiXiX",
"iXiXiXiX    # a.p.@ / %X@Xn.@X>X<X<X<X<X:X@Xn.@X&X/ X p.a.#     iXiXiXiX",
"iXiXiXiXiX  d b.Z.x O ~ n g k.$X:X2X3X:X*Xk.l n ~ O x Z.b.d   iXiXiXiXiX",
"iXiXiXiXiXiXh z.k.x         N k.B.&X&XB.a.0.        x k.z.h iXiXiXiXiXiX",
"iXiXiXiXiXiXiXs - & & $ & * = 7 s s s y y - * * $ $ * y s iXiXiXiXiXiXiX",
"iXiXiXiXiXiXiX    X g 0.x X     .           X x 0.g X     iXiXiXiXiXiXiX",
"iXiXiXiXiXiXiX- % . x y.t.s s d d d d d d y y 0.i.x . & 2 iXiXiXiXiXiXiX",
"iXiXiXiXiXiXiXiXiXo ; x %.t.s.b.Z.B.n.n.C.a.t.0.x ; o iXiXiXiXiXiXiXiXiX",
"iXiXiXiXiXiXiXiXiXk 0 @ v y.n.Z.Z.Z.Z.Z.Z.k.i.l @ 0 k iXiXiXiXiXiXiXiXiX",
"iXiXiXiXiXiXiXiXq @.[ e w d l N M M M M N l d w e [ o.i iXiXiXiXiXiXiXiX",
"iXiXiXiXiXiXiXw { :.-.[ e 9 B Z : @ @ : B B 9 e [ :.-.{ w iXiXiXiXiXiXiX",
"iXiXiXiXiXiXq { -.3.3.;.[ e I P.U e e U P.E e [ +.3.3.-.{ w iXiXiXiXiXiX",
"iXiXiXiXiX4 q +.7.6.5.-.$.R U.Y.e.X.X.e.Y.L.R $.-.7.6.7.+.q iXiXiXiXiXiX",
"iXiXiXiXiX4 a >.6.6.<.-.e.U._.].r.=.=.r.]._.U.e.-.<.6.6.>.t 4 iXiXiXiXiX",
"iXiXiXiX8 t +.3.6.3.-...T.^.(.].Q.{.{.Q.].(.^.T...-.3.6.3.o.a s iXiXiXiX",
"iXiXiXiX& ] -.7.7.-.] t W.~.[._.).).).)._.[.~.W.t ] =.7.7.-.] & iXiXiXiX",
"iXiXiXiX& ] =.-.=.X.Y F.V.D.OX/.(.).)._./.OXD.V.F.Y [ -.-.=.] & iXiXiXiX",
"iXiXiXiX* z.@Xm.p.r Z I.XXD.OX/.(.`.`.(./.OXD.XXI.Z e i.m.#Xz.* iXiXiXiX",
"iXiXiXiX& 5XyX9X.Xu : H.!.~.[.)._.`.`.)._.[.~.!.H.: u .X9XuX5X* iXiXiXiX",
"iXiXiXiX2 OXrXuXqX+X|.) I.I./.'.'.`.`.'.'.(.I.I.) |.+XqXuXrXoX% iXiXiXiX",
"iXiXiXiX& ! oXrXtXtX6XQ B K.`.`.'.`.`.`.'.E.U.Z Q 6XtXtXrXoX/ 2 iXiXiXiX",
"iXiXiXiX& .XqXyXtXyX5Xn Z K.U.R.R.R.R.R.R.U.U.Z n 4XyXtXyXeX.X& iXiXiXiX",
"iXiXiXiX& 7XtXtXyX6XoXm Z U.U.K.K.K.K.K.K.L.K.Z m oXeXyXtXtX5X& iXiXiXiX",
"iXiXiXiX# +XrXtXtXtX7X~ > G.J.U.U.K.K.K.U.J.G.: ! 5XtXtXtXyXoX& iXiXiXiX",
"iXiXiXiX* |.5XeXrXyX5X! > G G.P.K.K.L.K.K.G.G : ! 4XuXrX6X+X}.6 iXiXiXiX",
"iXiXiXiXiX! _ h.N.N._ I F J K L P P G.P P K J F I _ _ h._ / ! iXiXiXiXiX",
"iXiXiXiXiXiX        > G P G J F H H F H G G J P G >         iXiXiXiXiXiX",
"iXiXiXiXiXiXiXiXiX, A G J J K J S V V S J J J K G A < iXiXiXiXiXiXiXiXiX",
"iXiXiXiXiXiXiXiXiXV S G J J G S C iXiXC S G J J G A < iXiXiXiXiXiXiXiXiX",
"iXiXiXiXiXiXiXiXiX< S J K G S < iXiXiXiX< S J L G A < iXiXiXiXiXiXiXiXiX",
"iXiXiXiXiXiXiXiXiX, H J.P.G S < iXiXiXiX< A G G.P.S < iXiXiXiXiXiXiXiXiX",
"iXiXiXiXiXiXiXiXiX, G J.J.K H < iXiXiXiXV S L G.J.S < iXiXiXiXiXiXiXiXiX",
"iXiXiXiXiXiXiXiX> , B S G.K.P < iXiXiXiX< G K.G.D B , > iXiXiXiXiXiXiXiX",
"iXiXiXiXiXiXiXb l x j q I H.L < iXiXiXiX< G H.I p a x l l iXiXiXiXiXiXiX",
"iXiXiXiXiXiXy %.w.i.%.z T D D V iXiXiXiXV C D T z %.i.w.%.s iXiXiXiXiXiX",
"iXiXiXiXiXO y %.w.w.%.&.v 2 1 C iXiXiXiXV 1 8 v %.%.w.w.%.y o iXiXiXiXiX",
"iXiXiXiXiX+ = l z z &.z v f 3 V iXiXiXiXV 3 f v z z z z v = 6 iXiXiXiXiX",
"iXiXiXiXiX% * f f f f f f p 2 3 iXiXiXiX3 2 s f f f f f p = 6 iXiXiXiXiX",
"iXiXiXiXiXiX* % $ % % % % * & & iXiXiXiX& & * % % % $ % $ & iXiXiXiXiXiX",
"iXiXiXiXiXiXiXiXiXiXiXiXiXiXiXiXiXiXiXiXiXiXiXiXiXiXiXiXiXiXiXiXiXiXiXiX",
"iXiXiXiXiXiXiXiXiXiXiXiXiXiXiXiXiXiXiXiXiXiXiXiXiXiXiXiXiXiXiXiXiXiXiXiX"
};
