/* XPM */
static char *result[] = {
/* columns rows colors chars-per-pixel */
"36 64 222 2 ",
"   c #000000",
".  c #0A0808",
"X  c #170707",
"o  c #001A1A",
"O  c #181517",
"+  c #290000",
"@  c #240606",
"#  c #380000",
"$  c #331406",
"%  c #291413",
"&  c #331A17",
"*  c #351B18",
"=  c #3B1E1A",
"-  c #3B1816",
";  c #3E211E",
":  c #35211F",
">  c #030E28",
",  c #03133C",
"<  c #021334",
"1  c #130F33",
"2  c #2C1A38",
"3  c #311C29",
"4  c #002529",
"5  c #002B35",
"6  c #353B36",
"7  c #3C242A",
"8  c #4B0000",
"9  c #540000",
"0  c #471916",
"q  c #5A1818",
"w  c #58160F",
"e  c #6D0000",
"r  c #670000",
"t  c #7B0001",
"y  c #760000",
"u  c #701114",
"i  c #532300",
"p  c #47241B",
"a  c #512E11",
"s  c #4D1721",
"d  c #4B2926",
"f  c #592A26",
"g  c #59352E",
"h  c #5E3130",
"j  c #632B26",
"k  c #77342B",
"l  c #643A33",
"z  c #763B35",
"x  c #6E2F2C",
"c  c #6D1D22",
"v  c #71453B",
"b  c #64463D",
"n  c #021544",
"m  c #031749",
"M  c #03184C",
"N  c #071C49",
"B  c #031D5C",
"V  c #011852",
"C  c #151354",
"Z  c #311F41",
"A  c #00046A",
"S  c #021E65",
"D  c #29006F",
"F  c #042164",
"G  c #05246D",
"H  c #0B2368",
"J  c #052672",
"K  c #062876",
"L  c #062A7D",
"P  c #472543",
"I  c #631D61",
"U  c #4F2579",
"Y  c #5A4B44",
"T  c #585C5C",
"R  c #684D43",
"E  c #735247",
"W  c #655B5A",
"Q  c #735049",
"!  c #466262",
"~  c #75706E",
"^  c #7A7776",
"/  c #6D6867",
"(  c #605D62",
")  c #8E0001",
"_  c #890809",
"`  c #930B0B",
"'  c #980507",
"]  c #8A110E",
"[  c #A40003",
"{  c #AB0000",
"}  c #A40C0C",
"|  c #BB0102",
" . c #B30509",
".. c #BC0B0B",
"X. c #B60000",
"o. c #AD2E0F",
"O. c #B90728",
"+. c #AB0C3E",
"@. c #873C2D",
"#. c #863C34",
"$. c #C20102",
"%. c #CB0104",
"&. c #D80305",
"*. c #CE110D",
"=. c #D7100E",
"-. c #D71312",
";. c #EC070A",
":. c #EB0C0D",
">. c #E90408",
",. c #F30000",
"<. c #FF0000",
"1. c #FE0D0E",
"2. c #F4080B",
"3. c #F41313",
"4. c #DA3838",
"5. c #FD2B2B",
"6. c #994337",
"7. c #A8493A",
"8. c #A60043",
"9. c #991464",
"0. c #92216F",
"q. c #8C4641",
"w. c #924A45",
"e. c #9D514B",
"r. c #8D5C4F",
"t. c #A8574C",
"y. c #9E6355",
"u. c #84695E",
"i. c #AB6859",
"p. c #A46759",
"a. c #B56A5B",
"s. c #8A7367",
"d. c #837E7D",
"f. c #8E7069",
"g. c #AF7567",
"h. c #FF5654",
"j. c #FD4E4D",
"k. c #C37A69",
"l. c #FD7472",
"z. c #F9F73B",
"x. c #85817E",
"c. c #A48476",
"v. c #AB8677",
"b. c #B6897A",
"n. c #B7BA7D",
"m. c #CD8371",
"M. c #D28472",
"N. c #DC8E7B",
"B. c #DE917F",
"V. c #D9DA7B",
"C. c #00009D",
"Z. c #082D86",
"A. c #063193",
"S. c #083295",
"D. c #08349E",
"F. c #14359C",
"G. c #042B97",
"H. c #3D2B84",
"J. c #0D08B3",
"K. c #0739A9",
"L. c #0D3EB0",
"P. c #0025AF",
"I. c #732E82",
"U. c #6D3FAD",
"Y. c #0F41B5",
"T. c #2B44B6",
"R. c #5A45B8",
"E. c #4F75AE",
"W. c #6A79BF",
"Q. c #0000C7",
"!. c #0037CA",
"~. c #0028CC",
"^. c #0347CA",
"/. c #1349C6",
"(. c #134AC9",
"). c #1A4DCB",
"_. c #004DD0",
"`. c #2952C8",
"'. c #334BC6",
"]. c #9C2F86",
"[. c #8D8886",
"{. c #B69384",
"}. c #A19E9C",
"|. c #AFB498",
" X c #8F99B2",
".X c #9EA6AC",
"XX c #A9A6A6",
"oX c #B4B3B3",
"OX c #BBBBBA",
"+X c #B8B7B5",
"@X c #AFAFB0",
"#X c #9EA291",
"$X c #D79684",
"%X c #CF9C93",
"&X c #E29683",
"*X c #FD8E8C",
"=X c #DBAE9B",
"-X c #CFA997",
";X c #E8AA96",
":X c #EDB19D",
">X c #F2B29E",
",X c #ECA996",
"<X c #DABCB9",
"1X c #EBB8A5",
"2X c #F5BDA9",
"3X c #F5B8A3",
"4X c #F3C2AE",
"5X c #FDC3AE",
"6X c #F4C5B2",
"7X c #F9C9B5",
"8X c #EFC2AF",
"9X c #D8D8D6",
"0X c #F5D3C5",
"qX c #FADCD5",
"wX c #FDCCC9",
"eX c #E4E4E2",
"rX c #ECEDEA",
"tX c #FBFAF7",
"yX c #FFFFFE",
"uX c #F5F6F1",
"iX c #FFE4E0",
"pX c None",
/* pixels */
"pXpXpXpXpXpXpXpXpXpXpXpXpXpXpXpXpXpXpXpXpXpXpXpXpXpXpXpXpXpXpXpXpXpXpXpX",
"pXpXpXpXpXpXpXpXpXpXpXpXpXpXpXpXpXpXpXpXpXpXpXpXpXpXpXpXpXpXpXpXpXpXpXpX",
"pXpXpXpXpXpXpXpXpXpXpXpXpXpXpXpXpXpXpXpXpXpXpXpXpXpXpXpXpXpXpXpXpXpXpXpX",
"pXpXpXpXpXpXpXpXpXpXpXpXpXpXpXpXpXpXpXpXpXpXpXpXpXpXpXpXpXpXpXpXpXpXpXpX",
"pXpXpXpXpXpXpXpXpXpXpXpXpX= - 0 0 0 = 0 - 0 0 pXpXpXpXpXpXpXpXpXpXpXpXpX",
"pXpXpXpXpXpXpXpXpXpX4 5 q ` ..*.*.*.*.*.*...` q 5 o pXpXpXpXpXpXpXpXpXpX",
"pXpXpXpXpXpXpXpXpXq w q ` %.2.1.<.<.<.<.1.2.%.` q q q pXpXpXpXpXpXpXpXpX",
"pXpXpXpXpXpXpXpXd ` $.=.3.3.3.<.<.<.<.<.<.3.2.:.=.$.] d pXpXpXpXpXpXpXpX",
"pXpXpXpXpXpXpXd _ $.>.1.1.1.<.5.l.*X*Xl.5.<.1.1.1.;.$.] w pXpXpXpXpXpXpX",
"pXpXpXpXpXpX0 ` $.:.1.1.1.1.<.j.wXtXtXwXj.<.1.1.1.1.:.%.` 0 pXpXpXpXpXpX",
"pXpXpXpXpX4 0 $.;.1.1.1.1.1.<.h.iXyXyXiXh.<.1.1.1.1.1.>...0 pXpXpXpXpXpX",
"pXpXpXpXpX5 w =.1.1.1.1.1.1.<.h.qXyXyXqXh.<.1.1.1.1.1.1.-.q pXpXpXpXpXpX",
"pXpXpXpXpXc } :.1.1.1.1.2.&.&.4.%X<X<X%X4.&.&.2.1.1.1.1.:.} u pXpXpXpXpX",
"pXpXpXpX& ` %.2.1.3.1.1.>.| ..| $.$.%.| $...| &.1.1.3.1.;.%.] * pXpXpXpX",
"pXpXpXpX* ` %.&.&. . .%.>.2.3.,.,.,.,.,.,.3.2.>.%. . .%.&.%.` & pXpXpXpX",
"pXpXpXpX* ` $.| ' y ) | &.3.:.;.;.;.;.;.;.:.3.=.$.) t [ | %.` & pXpXpXpX",
"pXpXpXpX= } $.' ) [ &.2.=.] e e e e e e e e u -.1.&.[ ) ) $.} & pXpXpXpX",
"pXpXpXpX. t [ ) ) ' | &.[ o 6 E E E E E E 6 o { &.| ' ' ) [ t   pXpXpXpX",
"pXpXpXpX    8 {  .u @ 8 + & p.M.M.M.m.M.M.p.: + 8 @ u  .{ 8     pXpXpXpX",
"pXpXpXf.{.{.c.e.) x E r.b & b.,X,X,X,X,X,Xb.& b r.v x ) e.v.{.{.f.pXpXpX",
"pXpX  v.4X7X1Xf.+ w.k.N.i.* {.7X6X8X4X6X5X{.& i.N.k.6.@ s.1X7X2Xv.  pXpX",
"pXpX  p.;X2X4Xs.# t.N.:Xv.  p.;X1X4X4X1X,Xp.  v.>XB.t.# s.4X5X;Xg.  pXpX",
"pXpX  p.N.>X1Xu.f m.:X6X%XR i.$X1X7X7X1X$Xp.R %X5X,Xm.f u.1X>XB.y.  pXpX",
"pXpX  b.2X3X$Xv Y =X7X8X1X=X;X1X0XqXqX0X2X=X=X1X4X5X=XY v $X3X2Xb.  pXpX",
"pXpX  c.=X%Xa.x E %X8X8X5X2X4X6X0XqXqX0X6X8X2X6X4X1X%XQ k a.$X=Xc.  pXpX",
"pXpXpXR Q b l 6.w.g c.8X3X&X:X6X6X6X6X6X6X;X&X3X4Xc.g w.q.l b Q R pXpXpX",
"pXpXpXpX    * a.a.# Y {.b.i.N.3X4X6X6X4X3X$Xi.b.{.Y + a.a.*     pXpXpXpX",
"pXpXpXpXpX  g k.M.v   ; % = p.&X:X6X6X:X&Xi.; % d   v M.k.g   pXpXpXpXpX",
"pXpXpXpXpXpXpXy.y.g         v p.v.b.b.v.y.v         g p.y.pXpXpXpXpXpXpX",
"pXpXpXpXpXpXpX  . & = 0 ; & X             X & p d ; % X   pXpXpXpXpXpXpX",
"pXpXpXpX            l w.z .                 . v q.l             pXpXpXpX",
"pXpXpXT W d.d.x.~ 6 j e.q.g l v v v v v v l g 6.e.f 6 ~ x.d.^ W Y pXpXpX",
"pXpX  d.oX9XrXuX9X~   d z e.k.M.M.M.M.M.M.a.e.z d   ~ 9XuXrX9XoX^ . pXpX",
"pXpX  }.eXyXyXyXeX^   + x w.a.k.m.g.k.k.k.a.e.j +   ^ eXyXyXyXeX}.  pXpX",
"pXpX  +XtXyXtXeX+XW + e q 0 p a d g f d a p p q e + ( OXeXtXyXtXoX  pXpX",
"pXpX  OXyXyXtXeX@XT 9 ' ) 9 C A 1 # # 1 A C 9 ' ' 9 T @XeXtXyXyXOX  pXpX",
"pXpX  +XyXyXtXeXoXT r X.{ u H.F.I t t I F.H.u | | e T oXeXtXyXyX+X  pXpX",
"pXpX  XXeXyXyXrXOX! r $.8.U K.T.0.| | 0.T.K.H.+.$.e ! OXrXyXyXeXXX  pXpX",
"pXpX  d.OXeXrX9XXXW y O.0.K.^.'.].O.O.].'.^.K.0.O.y W @X9XuXeXOXd.  pXpX",
"pXpXpXW ~ [.[.d.Q o.8.I.J.J.~.`.R.U.U.R.`.!.Q.J.I.8.o.u.^ [.[.~ ( pXpXpX",
"pXpXpXpX        9 { 9.G.E. XW.^.^._._._.^.W. XE.P.9.{ 8         pXpXpXpX",
"pXpXpXpXpX: $ $ - s D C.|.z.|.~.!.(.(.!.~.|.z.n.C.D s - $ $ % pXpXpXpXpX",
"pXpXpXpXpXpX& $ 1 > A C.#XV..X!.^./.(.!.!.XXV.#XC.A < 3 - & pXpXpXpXpXpX",
"pXpXpXpXpXpXpXpXpX> S G.T.`.`./.(.(.(./.(.`.`.T.G.F > pXpXpXpXpXpXpXpXpX",
"pXpXpXpXpXpXpXpXpX> H F.P.J.!.).).(.(.).).!.J.P.F.H o pXpXpXpXpXpXpXpXpX",
"pXpXpXpXpXpXpXpXpX< G S.D.D.L./././././.(.Y.S.K.S.G < pXpXpXpXpXpXpXpXpX",
"pXpXpXpXpXpXpXpXn B J Z.G.D.K.L.L.L.L.L.L.K.K.A.L G B n pXpXpXpXpXpXpXpX",
"pXpXpXpXpXpXpXN B G J F Z.S.S.A.A.A.A.S.S.S.A.L H K G B m pXpXpXpXpXpXpX",
"pXpXpXpXpXpXN F J J K G K L L L L L L L L L L K J J J G S m pXpXpXpXpXpX",
"pXpXpXpXpX, m F K J J J H F B F F F F B B B B F K G G K F m , pXpXpXpXpX",
"pXpXpXpXpX, m F G H J J F , , N m M M m N n n F K K G K F N n pXpXpXpXpX",
"pXpXpXpXpX> N Z.A.A.Z.K F B M , , pXpX, , N B F K Z.Z.S.L V > pXpXpXpXpX",
"pXpXpXpXpXpXV Z.K.K.A.K G K F , pXpXpXpX, F J J K Z.P.F.Z.V pXpXpXpXpXpX",
"pXpXpXpXpXpXpXF J J S B F K F , pXpXpXpX, F K G B J J G F pXpXpXpXpXpXpX",
"pXpXpXpXpXpXpXi i s 2 2 C G F , pXpXpXpXn B J C 2 2 d i i pXpXpXpXpXpXpX",
"pXpXpXpXpXpXp @.7.w.6.z P V M n pXpXpXpXn V V P x #.e.7.@.0 pXpXpXpXpXpX",
"pXpXpXpXpX. p #.7.7.6.@.f 2 m m pXpXpXpXn n 2 h @.6.7.7.#.d o pXpXpXpXpX",
"pXpXpXpXpXO 0 x #.#.#.#.x d Z m pXpXpXpXn Z f x k #.#.#.k 0 O pXpXpXpXpX",
"pXpXpXpXpX% = f f f j j j d 7 1 pXpXpXpX1 7 d f x f f j f * : pXpXpXpXpX",
"pXpXpXpXpX* * * - * * * * * * : pXpXpXpX: = * * * = * & & & : pXpXpXpXpX",
"pXpXpXpXpXpXpXpXpXpXpXpXpXpX: pXpXpXpXpXpXpXpXpXpXpXpXpXpXpXpXpXpXpXpXpX",
"pXpXpXpXpXpXpXpXpXpXpXpXpXpXpXpXpXpXpXpXpXpXpXpXpXpXpXpXpXpXpXpXpXpXpXpX",
"pXpXpXpXpXpXpXpXpXpXpXpXpXpXpXpXpXpXpXpXpXpXpXpXpXpXpXpXpXpXpXpXpXpXpXpX",
"pXpXpXpXpXpXpXpXpXpXpXpXpXpXpXpXpXpXpXpXpXpXpXpXpXpXpXpXpXpXpXpXpXpXpXpX"
};
