/* XPM */
static char *result[] = {
/* columns rows colors chars-per-pixel */
"37 64 234 2 ",
"   c #000000",
".  c #0A0004",
"X  c #190704",
"o  c #00001E",
"O  c #001D1A",
"+  c #031A16",
"@  c #171214",
"#  c #290706",
"$  c #3E0000",
"%  c #310509",
"&  c #371107",
"*  c #271717",
"=  c #341A16",
"-  c #331B1B",
";  c #3B1A18",
":  c #2D0E0F",
">  c #332116",
",  c #000026",
"<  c #001329",
"1  c #000A3A",
"2  c #01123C",
"3  c #071939",
"4  c #19162D",
"5  c #251C25",
"6  c #361B23",
"7  c #361F3B",
"8  c #002626",
"9  c #02293F",
"0  c #382328",
"q  c #3E243A",
"w  c #2B2F2C",
"e  c #480404",
"r  c #590506",
"t  c #481918",
"y  c #571916",
"u  c #521209",
"i  c #680404",
"p  c #780103",
"a  c #691715",
"s  c #751615",
"d  c #75100D",
"f  c #51250A",
"g  c #51192B",
"h  c #700434",
"j  c #4D2423",
"k  c #482829",
"l  c #522624",
"z  c #592D2A",
"x  c #58322E",
"c  c #433933",
"v  c #4D2E33",
"b  c #652E2B",
"n  c #62282A",
"m  c #68362B",
"M  c #75342D",
"N  c #7B392A",
"B  c #633931",
"V  c #783936",
"C  c #3B403E",
"Z  c #5F4338",
"A  c #6B4339",
"S  c #77453C",
"D  c #031847",
"F  c #000058",
"G  c #021B53",
"H  c #031A5A",
"J  c #1C1351",
"K  c #0B2B55",
"L  c #28364A",
"P  c #00006B",
"I  c #000262",
"U  c #021E63",
"Y  c #000072",
"T  c #03236A",
"R  c #042166",
"E  c #032779",
"W  c #142F76",
"Q  c #2B2A63",
"!  c #731956",
"~  c #582842",
"^  c #64227A",
"/  c #3B475A",
"(  c #4C4546",
")  c #544A47",
"_  c #585353",
"`  c #6E534A",
"'  c #72534F",
"]  c #76625B",
"[  c #525568",
"{  c #6C6667",
"}  c #797676",
"|  c #696B70",
" . c #840002",
".. c #890808",
"X. c #940104",
"o. c #990809",
"O. c #901214",
"+. c #A30202",
"@. c #AB0103",
"#. c #A70809",
"$. c #B40003",
"%. c #BC0004",
"&. c #B60509",
"*. c #B81618",
"=. c #863A2E",
"-. c #883C34",
";. c #8C2A25",
":. c #A61E1D",
">. c #C20002",
",. c #CB0002",
"<. c #C6080A",
"1. c #D40204",
"2. c #DB0507",
"3. c #E30205",
"4. c #EA0607",
"5. c #FF0200",
"6. c #FD0D0E",
"7. c #F4080B",
"8. c #FE0F11",
"9. c #EB1414",
"0. c #F21217",
"q. c #FF2626",
"w. c #DA202C",
"e. c #84463E",
"r. c #964337",
"t. c #89513C",
"y. c #A94A3D",
"u. c #A7164E",
"i. c #A82B6D",
"p. c #DA1E5A",
"a. c #875347",
"s. c #935149",
"d. c #A95C50",
"f. c #956355",
"g. c #84675C",
"h. c #A76456",
"j. c #B86A5C",
"k. c #967468",
"l. c #877C79",
"z. c #83736E",
"x. c #B77666",
"c. c #A9776D",
"v. c #C15F5F",
"b. c #C77969",
"n. c #C5736D",
"m. c #EE7A79",
"M. c #AB8374",
"N. c #B7897A",
"B. c #CD8370",
"V. c #D38573",
"C. c #D88B78",
"Z. c #D5917E",
"A. c #E3917E",
"S. c #DFDF72",
"D. c #091098",
"F. c #012983",
"G. c #042E8A",
"H. c #0B2F8B",
"J. c #002B98",
"K. c #03349D",
"L. c #09349D",
"P. c #063193",
"I. c #2E308D",
"U. c #0000B1",
"Y. c #0000AD",
"T. c #0B39A6",
"R. c #0738A7",
"E. c #073FB2",
"W. c #462F8E",
"Q. c #6F2B82",
"!. c #5B0091",
"~. c #0E40B5",
"^. c #0B42B9",
"/. c #0B43B5",
"(. c #2E428B",
"). c #4762BE",
"_. c #7C69B2",
"`. c #002CCA",
"'. c #0A48C7",
"]. c #1249C6",
"[. c #134BCA",
"{. c #174AC6",
"}. c #1750D3",
"|. c #3356C6",
" X c #386BCD",
".X c #456BC5",
"XX c #AC2E89",
"oX c #8A2D89",
"OX c #8972B1",
"+X c #898887",
"@X c #999999",
"#X c #94908D",
"$X c #B49082",
"%X c #B18583",
"&X c #888BAE",
"*X c #AAA9A9",
"=X c #A6A5A4",
"-X c #B3B3B3",
";X c #BBBBBB",
":X c #B8B7B4",
">X c #AFB7B7",
",X c #C49C8B",
"<X c #D69785",
"1X c #E49783",
"2X c #D6A998",
"3X c #D4A190",
"4X c #E8AB97",
"5X c #EDB09C",
"6X c #EDAB97",
"7X c #DDB4A2",
"8X c #C6B5B4",
"9X c #EAB8A5",
"0X c #F3B8A3",
"qX c #CED188",
"wX c #F2C1AD",
"eX c #F9C2AE",
"rX c #F6C5B1",
"tX c #FACAB5",
"yX c #F9C8B3",
"uX c #EEC8B8",
"iX c #DAC6BD",
"pX c #BCC1C1",
"aX c #C8C7C7",
"sX c #DDDDDB",
"dX c #D5D6D4",
"fX c #F4DBD0",
"gX c #DFE0DE",
"hX c #FFE3D4",
"jX c #E6E6E5",
"kX c #F4F5F2",
"lX c #FEFEFC",
"zX c #F9FAF6",
"xX c #F0F1EE",
"cX c None",
/* pixels */
"cXcXcXcXcXcXcXcXcXcXcXcXcXcXcXcXcXcXcXcXcXcXcXcXcXcXcXcXcXcXcXcXcXcXcXcXcX",
"cXcXcXcXcXcXcXcXcXcXcXcXcXcXcXcXcXcXcXcXcXcXcXcXcXcXcXcXcXcXcXcXcXcXcXcXcX",
"cXcXcXcXcXcXcXcXcXcXcXcXcXcXcXcXcXcXcXcXcXcXcXcXcXcXcXcXcXcXcXcXcXcXcXcXcX",
"cXcXcXcXcXcXcXcXcXcXcXcXcXcXO + O O O cXcXcXcXcXcXcXcXcXcXcXcXcXcXcXcXcXcX",
"cXcXcXcXcXcXcXcXcXcXcXcXcXj y s s s a y cXcXcXcXcXcXcXcXcXcXcXcXcXcXcXcXcX",
"cXcXcXcXcXcXcXcXcXcXO + O s &.2.7.9.<.o.t 8 8 cXcXcXcXcXcXcXcXcXcXcXcXcXcX",
"cXcXcXcXcXcXcXcXcXcXp X.:.&.3.6.6.6.7.1.*.O.d a cXcXcXcXcXcXcXcXcXcXcXcXcX",
"cXcXcXcXcXcXcXcXcXy +.1.7.8.6.6.6.6.6.6.6.4.<...O cXcXcXcXcXcXcXcXcXcXcXcX",
"cXcXcXcXcXcXcXcX  v N.m.8.5.8.8.6.6.6.6.6.6.7.<.O.t cXcXcXcXcXcXcXcXcXcXcX",
"cXcXcXcXcXcXcXcX  Z cXcXq.5.8.8.6.6.6.6.6.6.6.4.%.O.> cXcXcXcXcXcXcXcXcXcX",
"cXcXcXcXcXcXcXcXcXq cXcXq.5.6.6.6.6.6.6.6.6.6.6.4.<.O.y cXcXcXcXcXcXcXcXcX",
"cXcXcXcXcXcXcXcXX z @XA.9.5.6.6.6.6.6.6.6.6.6.6.6.3.@.y 8 cXcXcXcXcXcXcXcX",
"cXcXcXcXcXcXcX+ t p :.*.%.4.8.8.8.6.6.6.6.6.8.8.6.2.+.y cXcXcXcXcXcXcXcXcX",
"cXcXcXcXcXcXs o.<.1.5.3.3.2.2.<.<.3.7.8.6.6.6.7.2.1.#.i 5 cXcXcXcXcXcXcXcX",
"cXcXcXcXcXO s &.3.8.8.8.8.3.&. .p #.2.6.8.6.6.2.$.>.&. .i t t y cXcXcXcXcX",
"cXcXcXcXcX* y s O.O...#.1.4.7.,.o.a #.2.1.,.1.,.%.%.%.&.@.#.#.o.y cXcXcXcX",
"cXcXcXcXcX; * O + O 8 n o.,.3.>. .+ d +.$.&.$.%.%.>.>.>.>.>.,.&.a O cXcXcX",
"cXcXcXcXcXcXcXcX  j s.s.y e e $ # @ r  .$.>.>.>.>.>.>.>.>.>.>.&.y O cXcXcX",
"cXcXcXcXcXcXcXcXcXz j.h.5 Z f.f.a.M u r @.>.@.X. . ...p +.>.&.o.y + cXcXcX",
"cXcXcXcXcXcXcXcX, B B.B.> h.A.A.V.j.` t +.$.p l c c c w ;.%.X.r ; cXcXcXcX",
"cXcXcXcXcXcX      v 2X,X> M.0X0X9X4Xx.=.s i $ k.2X2X2X2XM.p r t cXcXcXcXcX",
"cXcXcXcXcXz.} M.] k.wX2X* N.tXyXrXyX4Xd.B     $XtXyXwXtX,X    cXcXcXcXcXcX",
"cXcXcXcX] iXfXfXuX9XrX,X  M.yXyXrXuX4Xb.S     $XrX1X1XeX$XX cXcXcXcXcXcXcX",
"cXcXcX  ] iXhXfXtXrXyX9X$X3X6X,X2X9XeX3Xa.    c.5X6X6X0XN.X cXcXcXcXcXcXcX",
"cXcXcX  ` 2XtXeXwXwXwXwXuX4Xb.u ] 9XtX9Xk.  : f.C.5XwXA.h.: cXcXcXcXcXcXcX",
"cXcXcX  A Z.0XyXtXeX6X<XM.f.e.  ` Z.0XrX2X,Xx.j.j.c.k.a.' cXcXcXcXcXcXcXcX",
"cXcXcXcXB j.<X2X7X2XV.d.        a.Z.4XrXrX0XA.b.e.$     9 cXcXcXcXcXcXcXcX",
"cXcXcXcXcXB A ` ` ` A l = X     g.9XtX9X4XA.A.j.; # : = 6 0 cXcXcXcXcXcXcX",
"cXcXcXcXcXcX              j V e.c.5X0X6XV.j.j.`   X = = - 0 cXcXcXcXcXcXcX",
"cXcXcXcXcXcXcXcXcX= = * = V d.B.C.C.C.V.j.r.k X - = = = 0 cXcXcXcXcXcXcXcX",
"cXcXcXcXcXcXcXcXcXcX  S x.b.V.A.C.b.d.t.S f   o 5 cXcXcXcXcXcXcXcXcXcXcXcX",
"cXcXcXcXcXcXcXcXcXcX  a.B.V.B.B.n.s.n , , G U H H cXcXcXcXcXcXcXcXcXcXcXcX",
"cXcXcXcXcXcXcXcXcXcXcXcXA V A A m f 7 U G.K.K.J.T F cXcXcXcXcXcXcXcXcXcXcX",
"cXcXcXcXcXcXcXcXcXcXcXcXK <   # % U F.P.oXXXXXi.! ~ 6 cXcXcXcXcXcXcXcXcXcX",
"cXcXcXcXcXcXcXcXcXcXcXcXcX/ e i ! I.R.W.p.5.8.4.&.X.r ; cXcXcXcXcXcXcXcXcX",
"cXcXcXcXcXcXcXcXcXcXcXw / ;.X.!.U.R.Q.i.0.5.3.1.>.$.#.o.O.cXcXcXcXcXcXcXcX",
"cXcXcXcXcXcXcXcXcXcXw > # o.i.OX.XR.^ ,.4.4.>.&.%.<.>.,.X.& cXcXcXcXcXcXcX",
"cXcXcXcXcXcXcXcXcX  cXcX@ D.OXS.S..XU.Q.*.1.<.%.%.*.>.>.+.i e w cXcXcXcXcX",
"cXcXcXcXcXcXcXcX{ } cXcXR Y. XqXqX).`.E.^ u.+.$.>.>.w.x.c.a.t   cXcXcXcXcX",
"cXcXcXcXcXcXcXX @XaX| F P./.{.|.|.{.'.]./.^ h +.>.%.v.aXpX+X(   cXcXcXcXcX",
"cXcXcXcXcXcX{ @XsXjX_.F /.^.'.`.`.'.}.].E.J.I.h X.B.8X>X>X>X*X#X( cXcXcXcX",
"cXcXcXcXcX  l.aXzXkXM.F {.}.[.[.[.[.[.].T.K.R.^ a.:XpX@X-XdXsX;X{   cXcXcX",
"cXcXcXcXcX  } dXjXsX} Y [.}.].{.[.].[.}.E.J.D.&XpX=X@X>XsXkXgX;X#X_ 6 cXcX",
"cXcXcXcXcX. | =X;X-X_ P /.[.[.[.[.[.].E.T.R.D.&X;X:XaXsXkXlXxXdX;X+X& cXcX",
"cXcXcXcXcXcX[ q l.@X( I L.{.{.{.}.}.E.L.L.R.K.P ` dXlXlXlXlXlXkXsX@X& cXcX",
"cXcXcXcXcXcXcXcX) { (.R.E.E.E.E.E.E.T.L.L.L.R.I & aXkXjXkXlXlXsX*X} cXcXcX",
"cXcXcXcXcXcXcXcX9 I E.}.{.E.L.L.L.L.L.L.L.R.K.P c =XaXaXjXzXsX*X(   cXcXcX",
"cXcXcXcXcXcXcXK T P.`.}.{.{.L.L.L.L.L.L.T.L.G.H 5 ) #XaXjXsX=X_ 0 . cXcXcX",
"cXcXcXcXcXcXL 1 E E.^.{.{.T.H.P.L.L.L.H.P.H.T T R o _ =X>X*X{   % 0 cXcXcX",
"cXcXcXL * - 4 1 F.T.T.R.T.E D R H.T.P.E H D 2 E L.F.Q ( ( Z v j ; - cXcXcX",
"cXcX( S ;.-.V x Q E E E H.T 1 D T E T K J L L W F.T J $ e e t k q cXcXcXcX",
"cXcX6 -.y.d.-.N v D 1 J T H 3 D 2 2 2 D cXcXcXcX1 D 7 V =.M j 5 cXcXcXcXcX",
"cXcX- M -.r.-.N M b l 7 G R cXcXcXcXcXcXcXcXcXcXcXG ~ r.r.M l 5 cXcXcXcXcX",
"cXcX0 z b b b m M M b k 4 cXcXcXcXcXcXcXcXcXcXcXcXD ~ y.y.M l * cXcXcXcXcX",
"cXcXcXv t t 0 t k z z l 0 cXcXcXcXcXcXcXcXcXcXcXcX< b y.y.M l * cXcXcXcXcX",
"cXcXcXcX@ 5 cXcX6 k j k 0 cXcXcXcXcXcXcXcXcXcXcXcXcXz -.N z l cXcXcXcXcXcX",
"cXcXcXcXcXcXcXcXcX- - 0 cXcXcXcXcXcXcXcXcXcXcXcXcXcXcX5 - - cXcXcXcXcXcXcX",
"cXcXcXcXcXcXcXcXcXcXcXcXcXcXcXcXcXcXcXcXcXcXcXcXcXcXcXcXcXcXcXcXcXcXcXcXcX",
"cXcXcXcXcXcXcXcXcXcXcXcXcXcXcXcXcXcXcXcXcXcXcXcXcXcXcXcXcXcXcXcXcXcXcXcXcX",
"cXcXcXcXcXcXcXcXcXcXcXcXcXcXcXcXcXcXcXcXcXcXcXcXcXcXcXcXcXcXcXcXcXcXcXcXcX",
"cXcXcXcXcXcXcXcXcXcXcXcXcXcXcXcXcXcXcXcXcXcXcXcXcXcXcXcXcXcXcXcXcXcXcXcXcX",
"cXcXcXcXcXcXcXcXcXcXcXcXcXcXcXcXcXcXcXcXcXcXcXcXcXcXcXcXcXcXcXcXcXcXcXcXcX",
"cXcXcXcXcXcXcXcXcXcXcXcXcXcXcXcXcXcXcXcXcXcXcXcXcXcXcXcXcXcXcXcXcXcXcXcXcX",
"cXcXcXcXcXcXcXcXcXcXcXcXcXcXcXcXcXcXcXcXcXcXcXcXcXcXcXcXcXcXcXcXcXcXcXcXcX"
};
