/* XPM */
static char *result[] = {
/* columns rows colors chars-per-pixel */
"37 64 240 2 ",
"   c #000000",
".  c #040307",
"X  c #1B0000",
"o  c #190607",
"O  c #00021D",
"+  c #000411",
"@  c #001D1A",
"#  c #041A17",
"$  c #1E1819",
"%  c #10110E",
"&  c #260405",
"*  c #3D0000",
"=  c #22151C",
"-  c #281817",
";  c #341916",
":  c #321C1B",
">  c #391B16",
",  c #320B0D",
"<  c #00221E",
"1  c #2F211D",
"2  c #020929",
"3  c #001529",
"4  c #030135",
"5  c #010B36",
"6  c #04133A",
"7  c #14163A",
"8  c #1A0028",
"9  c #361E24",
"0  c #2C1831",
"q  c #002526",
"w  c #392227",
"e  c #323038",
"r  c #470102",
"t  c #570607",
"y  c #491816",
"u  c #541815",
"i  c #561715",
"p  c #571309",
"a  c #6A0504",
"s  c #780304",
"d  c #6F110E",
"f  c #691716",
"g  c #771715",
"h  c #750F0F",
"j  c #48201F",
"k  c #592800",
"l  c #571D21",
"z  c #432121",
"x  c #4B2625",
"c  c #582B25",
"v  c #592A31",
"b  c #433933",
"n  c #502B35",
"m  c #642A2A",
"M  c #69342B",
"N  c #76362B",
"B  c #683932",
"V  c #7A3935",
"C  c #6A2F34",
"Z  c #5B4C00",
"A  c #5F4B3C",
"S  c #6B443A",
"D  c #77453B",
"F  c #000E46",
"G  c #011443",
"H  c #00154A",
"J  c #011B5C",
"K  c #031B55",
"L  c #1F1C4C",
"P  c #311C49",
"I  c #03254A",
"U  c #082656",
"Y  c #0D2E50",
"T  c #332A51",
"R  c #011F67",
"E  c #000479",
"W  c #000765",
"Q  c #02246C",
"!  c #052166",
"~  c #03297C",
"^  c #022474",
"/  c #1A2768",
"(  c #6D1351",
")  c #7B3741",
"_  c #513F51",
"`  c #3B4A5E",
"'  c #394B61",
"]  c #544B4E",
"[  c #664944",
"{  c #6F534A",
"}  c #7C504A",
"|  c #6B625D",
" . c #79625A",
".. c #686361",
"X. c #4C486D",
"o. c #840002",
"O. c #890608",
"+. c #950102",
"@. c #99090A",
"#. c #861514",
"$. c #971513",
"%. c #8D0912",
"&. c #A40202",
"*. c #AB0204",
"=. c #A8080A",
"-. c #B40104",
";. c #BC0003",
":. c #B80507",
">. c #B80A12",
",. c #863B32",
"<. c #8C2A25",
"1. c #9D2E18",
"2. c #C30003",
"3. c #CB0103",
"4. c #C6080B",
"5. c #D50305",
"6. c #DC0609",
"7. c #DC0608",
"8. c #C11011",
"9. c #E20204",
"0. c #ED090B",
"q. c #EA0406",
"w. c #FE0200",
"e. c #FE0D0E",
"r. c #F50708",
"t. c #ED1110",
"y. c #FE1111",
"u. c #F30A12",
"i. c #FF3A3A",
"p. c #F52B2B",
"a. c #C91B29",
"s. c #85453E",
"d. c #964236",
"f. c #8A513C",
"g. c #AC4B3D",
"h. c #851B79",
"j. c #A62567",
"k. c #DA1E5A",
"l. c #875447",
"z. c #974F47",
"x. c #B84E48",
"c. c #AA5C50",
"v. c #A85B4F",
"b. c #956355",
"n. c #84675C",
"m. c #A76456",
"M. c #B8695C",
"N. c #967468",
"B. c #887771",
"V. c #B77666",
"C. c #A77A6C",
"Z. c #C77969",
"A. c #C36F62",
"S. c #8F8377",
"D. c #A98475",
"F. c #B58778",
"G. c #CD8370",
"H. c #D38573",
"J. c #D88B78",
"K. c #DA927F",
"L. c #E3917E",
"P. c #D9DC77",
"I. c #E3DF6D",
"U. c #1D0092",
"Y. c #012D8B",
"T. c #082D84",
"R. c #132E8C",
"E. c #09318D",
"W. c #05339A",
"Q. c #0E2B90",
"!. c #0000A4",
"~. c #0000B4",
"^. c #0637A4",
"/. c #133BAA",
"(. c #213398",
"). c #5B0091",
"_. c #662E89",
"`. c #483399",
"'. c #0C41B7",
"]. c #0042AA",
"[. c #2145B5",
"{. c #4762BD",
"}. c #6B679B",
"|. c #0148CC",
" X c #154DCC",
".X c #3357CA",
"XX c #366ACD",
"oX c #456CC7",
"OX c #AA2E89",
"+X c #8E2E89",
"@X c #8873B0",
"#X c #8C8886",
"$X c #9D9C9D",
"%X c #969495",
"&X c #958B8B",
"*X c #B49082",
"=X c #B49B9C",
"-X c #A8A09A",
";X c #A7A5A3",
":X c #BCBCBB",
">X c #B6BABA",
",X c #AEAFB0",
"<X c #C49C8B",
"1X c #D49886",
"2X c #C58585",
"3X c #E49783",
"4X c #D6AA98",
"5X c #D4A190",
"6X c #E8AB97",
"7X c #EDB09C",
"8X c #EDAB97",
"9X c #DDB4A2",
"0X c #C4B0AF",
"qX c #EAB8A5",
"wX c #F3B7A3",
"eX c #F2A6A5",
"rX c #CED18D",
"tX c #DBC5BD",
"yX c #F2C1AD",
"uX c #F9C2AE",
"iX c #F6C5B1",
"pX c #F9C6B1",
"aX c #FACAB5",
"sX c #FACAB5",
"dX c #EFC9B9",
"fX c #C4C4C4",
"gX c #CCCBCA",
"hX c #DDDDDC",
"jX c #D2D2D1",
"kX c #D0D0CF",
"lX c #F5DACE",
"zX c #F2E2D9",
"xX c #DEF9F6",
"cX c #E7E7E5",
"vX c #FFE4E0",
"bX c #F1F2EF",
"nX c #FEFEFC",
"mX c #F6F7F4",
"MX c #E3F6F1",
"NX c None",
/* pixels */
"NXNXNXNXNXNXNXNXNXNXNXNXNXNXNXNXNXNXNXNXNXNXNXNXNXNXNXNXNXNXNXNXNXNXNXNXNX",
"NXNXNXNXNXNXNXNXNXNXNXNXNXNXNXNXNXNXNXNXNXNXNXNXNXNXNXNXNXNXNXNXNXNXNXNXNX",
"NXNXNXNXNXNXNXNXNXNXNXNXNXNXNXNXNXNXNXNXNXNXNXNXNXNXNXNXNXNXNXNXNXNXNXNXNX",
"NXNXNXNXNXNXNXNXNXNXNXNXNXNX# @ < < < NXNXNXNXNXNXNXNXNXNXNXNXNXNXNXNXNXNX",
"NXNXNXNXNXNXNXNXNXNXNXNXNXu i f g f f u NXNXNXNXNXNXNXNXNXNXNXNXNXNXNXNXNX",
"NXNXNXNXNXNXNXNXNXNXq # @ h :.6.t.t.4.=.y 3 @ NXNXNXNXNXNXNXNXNXNXNXNXNXNX",
"NXNXNXNXNXNXNXNXNXNXa o.$.8.9.e.e.e.r.5.>.$.g f NXNXNXNXNXNXNXNXNXNXNXNXNX",
"NXNXNXNXNXNXNXNXNXi &.5.e.y.e.y.e.e.e.e.y.t.2.%.@ NXNXNXNXNXNXNXNXNXNXNXNX",
"NXNXNXNXNXNXNXNX  [ 0XeXi.w.e.e.e.e.e.e.e.e.r.4.O.y NXNXNXNXNXNXNXNXNXNXNX",
"NXNXNXNXNXNXNXNXNX..xXvXi.w.e.e.e.e.e.e.e.e.e.q.2.#.9 NXNXNXNXNXNXNXNXNXNX",
"NXNXNXNXNXNXNXNXNX] xXvXi.w.e.e.e.e.e.e.e.e.e.e.0.4.$.u NXNXNXNXNXNXNXNXNX",
"NXNXNXNXNXNXNXNX  [ 0XeXp.w.e.e.e.e.e.e.e.e.e.e.e.9.*.u < NXNXNXNXNXNXNXNX",
"NXNXNXNXNXNXNX< r s g.a.-.9.y.y.y.e.e.e.e.e.e.y.e.5.&.u NXNXNXNXNXNXNXNXNX",
"NXNXNXNXNXNXf @.8.7.9.9.9.6.6.4.4.9.u.e.e.e.y.u.7.5.*.d $ NXNXNXNXNXNXNXNX",
"NXNXNXNXNX@ g :.0.y.y.y.y.9.-.o.s *.6.e.e.e.y.6.-.2.-.o.d y y u NXNXNXNXNX",
"NXNXNXNXNX- u d #.$.O.&.5.0.r.3.+.f =.6.5.3.5.3.;.;.;.-.*.=.=.@.l NXNXNXNX",
"NXNXNXNXNXy - q < < q m @.3.9.2.o.# d *.-.;.;.;.2.2.2.2.2.2.3.:.i @ NXNXNX",
"NXNXNXNXNXNXNXNXq x z.s.l r r r & % t o.*.2.;.2.2.2.2.2.2.;.2.:.f < NXNXNX",
"NXNXNXNXNXNXNXNXq v M.c.- S b.b.l.N u t -.2.=.+.o.o.o.s &.2.:.@.u # NXNXNX",
"NXNXNXNXNXNXNXNXI M H.F.1 m.K.L.H.M.D y &.-.s x e e A e <.;.+.t > NXNXNXNX",
"NXNXNXNXNX      . x 4X<X1 D.wXwXwX6XF.,.g a * N.4X4X4X4XD.s t y NXNXNXNXNX",
"NXNXNXNXNXB.S.B. .N.yX4X; F.sXiXpXaX5Xc.B     *XaXwXyXaX<X    NXNXNXNXNXNX",
"NXNXNXNX| tXvXlXdXqXiX<X  D.pXaXpXiX8XZ.D     *XpX6X1XpX<XX NXNXNXNXNXNXNX",
"NXNXNX   .dXvXlXaXiXpXqX*X5X8X<X5XqXwX5Xl.    C.7X8X8X7XF.X NXNXNXNXNXNXNX",
"NXNXNX  { 4XpXyXyXyXyXyXyX6XZ.p  .qXaXqXN.  & b.J.wXwXK.m.= NXNXNXNXNXNXNX",
"NXNXNX  S K.wXpXaXpX8X1XD.b.}   { 1XwXiX9X<XV.M.M.C.N.l.} NXNXNXNXNXNXNXNX",
"NXNXNXNXB M.1X4X9X4XH.v.        l.1X6XiXiXwXL.V.l.*     Y NXNXNXNXNXNXNXNX",
"NXNXNXNXNXB S { { [ S c ; o     n.qXaXqX6XL.L.M.> & , ; w w NXNXNXNXNXNXNX",
"NXNXNXNXNXNX              x V s.V.6XwX8XH.M.M.l.  & : ; ; , NXNXNXNXNXNXNX",
"NXNXNXNXNXNXNXNX1 : : - - ,.c.G.J.J.J.H.M.z.w o ; : ; ; w NXNXNXNXNXNXNXNX",
"NXNXNXNXNXNXNXNXNXNX  D V.Z.H.L.J.A.c.f.N k . O 0 e NXNXNXNXNXNXNXNXNXNXNX",
"NXNXNXNXNXNXNXNXNXNX. l.G.H.H.G.V.z.m 4 5 H R J K NXNXNXNXNXNXNXNXNXNXNXNX",
"NXNXNXNXNXNXNXNXNXNXNXNXB D S S M k P ^ Y.W.W.E.^ U NXNXNXNXNXNXNXNXNXNXNX",
"NXNXNXNXNXNXNXNXNXNXNXNXY 3   & , J ~ W.+XOXOXh.( 0 6 NXNXNXNXNXNXNXNXNXNX",
"NXNXNXNXNXNXNXNXNXNXNXNXNX' * a ( (.^.`.k.w.y.t.>.d q NXNXNXNXNXNXNXNXNXNX",
"NXNXNXNXNXNXNXNXNXNXNXNX` 1.&.).~.^.( j.a.r.w.w.q.:.#.v NXNXNXNXNXNXNXNXNX",
"NXNXNXNXNXNXNXNXNXNXNXNXo @.j.@XoX].h.>.-.2.0.e.e.9.&.p < NXNXNXNXNXNXNXNX",
"NXNXNXNXNXNXNXNXNXNXNXNX% U.@XI.P.{.~._.( +.2.0.y.9.=.u NXNXNXNXNXNXNXNXNX",
"NXNXNXNXNXNXNXNXNXNXNXY ! ~.oXrXrXoX~.E ( &.-.5.0.5.=.i NXNXNXNXNXNXNXNXNX",
"NXNXNXNXNXNXNXNXNXNX2 ! W.'. X[..X XW.r &.2.;.;.2.3.=.u NXNXNXNXNXNXNXNXNX",
"NXNXNXNXNXNXNXNXNXNX+ ~ '. X|.!.U.E }.-Xz.&.2.8.-.*.O.y NXNXNXNXNXNXNXNXNX",
"NXNXNXNXNXNXNXNXNXNX  T. X|.[.X.Z A ,XgXS.#.:.2.;.+.t > NXNXNXNXNXNXNXNXNX",
"NXNXNXNXNXNXNXNXNXNX  E. X!.L %XgXhXfX$X:X0X;.2.4.g $ ; : NXNXNXNXNXNXNXNX",
"NXNXNXNXNXNXNXNXNXNXO ^ /.}.S.>XcXnXhX$X:X0X2Xx.&.a # w NXNXNXNXNXNXNXNXNX",
"NXNXNXNXNXNXNXNXNXNXG 4 8 $XgXfXhXnXcXfX$X;XgX=Xa r = NXNXNXNXNXNXNXNXNXNX",
"NXNXNXNXNXNXNXNXNXNXNX  X ;XhXcXbXnXmXcXfX,X:X&Xr , 7 NXNXNXNXNXNXNXNXNXNX",
"NXNXNXNXNXNXNXNXNXNXNXNXX %XgXbXnXnXnXnXhX:X%X..& 4 H NXNXNXNXNXNXNXNXNXNX",
"NXNXNXNXNXNXNXNXNXNXNXNX4 ] #XgXbXnXmXhXhXfX..= 7 NXNXNXNXNXNXNXNXNXNXNXNX",
"NXNXNXNXNXNXNXNXNXNXNXNXU   & #XgXbXhX>X:X$XT + G NXNXNXNXNXNXNXNXNXNXNXNX",
"NXNXNXNXNXNXNXNXNXNXNXNXNXH 7 o #XjXfX%X| e / J G NXNXNXNXNXNXNXNXNXNXNXNX",
"NXNXNXNXNXNXNXNXNXNXNXNXNXNXI . ] #X@X| T E Y.^ 6 NXNXNXNXNXNXNXNXNXNXNXNX",
"NXNXNXNXNXNXNXNXNXNXNXNXNXNXNXU 4 X & 7 Q.^.^.T.6 NXNXNXNXNXNXNXNXNXNXNXNX",
"NXNXNXNXNXNXNXNXNXNXNXNXNXNXNXNXNXO W Q.^.^.^.Y.U U NXNXNXNXNXNXNXNXNXNXNX",
"NXNXNXNXNXNXNXNXNXNXNXNXNXNXNXNXNXG ^ W.W.Q.^.E.~ J 5 NXNXNXNXNXNXNXNXNXNX",
"NXNXNXNXNXNXNXNXNXNXNXNXNXNXNXe 3 F F J Q R.^.^.W.! 2 NXNXNXNXNXNXNXNXNXNX",
"NXNXNXNXNXNXNXNXNXNXNXNXNXNX_ V ,.) C x L R T.E.Q.! 6 NXNXNXNXNXNXNXNXNXNX",
"NXNXNXNXNXNXNXNXNXNXNXNXNXNXx ,.g.g.d.N n F 6 J ^ K 6 NXNXNXNXNXNXNXNXNXNX",
"NXNXNXNXNXNXNXNXNXNXNXNXNX# x ,.d.d.,.,.C v x P K H G NXNXNXNXNXNXNXNXNXNX",
"NXNXNXNXNXNXNXNXNXNXNXNXNX1 y m C m M M N M c x 7 7 7 NXNXNXNXNXNXNXNXNXNX",
"NXNXNXNXNXNXNXNXNXNXNXNXNX: w z z z z z j j w > 9 9 9 NXNXNXNXNXNXNXNXNXNX",
"NXNXNXNXNXNXNXNXNXNXNXNXNXNX9 = = = $ = = = : : > > NXNXNXNXNXNXNXNXNXNXNX",
"NXNXNXNXNXNXNXNXNXNXNXNXNXNXNXNXNXNXNXNXNXNXNXNXNXNXNXNXNXNXNXNXNXNXNXNXNX",
"NXNXNXNXNXNXNXNXNXNXNXNXNXNXNXNXNXNXNXNXNXNXNXNXNXNXNXNXNXNXNXNXNXNXNXNXNX",
"NXNXNXNXNXNXNXNXNXNXNXNXNXNXNXNXNXNXNXNXNXNXNXNXNXNXNXNXNXNXNXNXNXNXNXNXNX"
};
