/* XPM */
static char *result[] = {
/* columns rows colors chars-per-pixel */
"37 64 236 2 ",
"   c #000000",
".  c #0D0000",
"X  c #1A0403",
"o  c #00001A",
"O  c #001D1B",
"+  c #041B17",
"@  c #181415",
"#  c #270404",
"$  c #3D0000",
"%  c #291818",
"&  c #341A16",
"*  c #331B1B",
"=  c #391A18",
"-  c #2D100B",
";  c #00221E",
":  c #2F211D",
">  c #04062A",
",  c #051529",
"<  c #000A39",
"1  c #041638",
"2  c #191630",
"3  c #291C26",
"4  c #371C25",
"5  c #221938",
"6  c #391F3B",
"7  c #2E0020",
"8  c #002628",
"9  c #002031",
"0  c #3A2225",
"q  c #2E2C37",
"w  c #470101",
"e  c #570404",
"r  c #561108",
"t  c #411E1E",
"y  c #4B1816",
"u  c #571916",
"i  c #690504",
"p  c #7B0002",
"a  c #730000",
"s  c #691817",
"d  c #771615",
"f  c #70110D",
"g  c #49211F",
"h  c #592800",
"j  c #4B1D30",
"k  c #760322",
"l  c #442223",
"z  c #4E2629",
"x  c #492628",
"c  c #522624",
"v  c #5D2C2A",
"b  c #552B28",
"n  c #592837",
"m  c #433933",
"M  c #562E31",
"N  c #652D28",
"B  c #67332B",
"V  c #75352D",
"C  c #7B392B",
"Z  c #653B31",
"A  c #773734",
"S  c #632E33",
"D  c #5F4338",
"F  c #6A433A",
"G  c #6A453A",
"H  c #79463D",
"J  c #021342",
"K  c #01194E",
"L  c #061947",
"P  c #000158",
"I  c #031B55",
"U  c #001B5C",
"Y  c #061955",
"T  c #0D1349",
"R  c #042648",
"E  c #052259",
"W  c #19284F",
"Q  c #2C224A",
"!  c #29374B",
"~  c #363B4D",
"^  c #00006D",
"/  c #011E62",
"(  c #03236B",
")  c #092466",
"_  c #042573",
"`  c #042978",
"'  c #1C2D6F",
"]  c #262B74",
"[  c #64195A",
"{  c #4A2543",
"}  c #581E61",
"|  c #7F1F63",
" . c #4B236F",
".. c #742471",
"X. c #37495C",
"o. c #4F474E",
"O. c #674F4A",
"+. c #6D5249",
"@. c #77534D",
"#. c #77625B",
"$. c #6C635B",
"%. c #726E6D",
"&. c #840001",
"*. c #880909",
"=. c #950102",
"-. c #980A0C",
";. c #951511",
":. c #A40203",
">. c #AC0104",
",. c #A7090B",
"<. c #B40103",
"1. c #BB0104",
"2. c #B7070A",
"3. c #B5110F",
"4. c #A43D18",
"5. c #863A2E",
"6. c #873C32",
"7. c #8D2924",
"8. c #B83535",
"9. c #B50B32",
"0. c #C20003",
"q. c #CB0103",
"w. c #C8060A",
"e. c #D40305",
"r. c #DB0508",
"t. c #C21212",
"y. c #DF1012",
"u. c #E30103",
"i. c #EB0708",
"p. c #FE0200",
"a. c #FD0D0E",
"s. c #F70807",
"d. c #ED1110",
"f. c #FD1111",
"g. c #C23A39",
"h. c #F53333",
"j. c #85453E",
"k. c #964337",
"l. c #8A513C",
"z. c #A7493D",
"x. c #B04D3F",
"c. c #9B1E64",
"v. c #8D287C",
"b. c #BF2877",
"n. c #8F1046",
"m. c #C61241",
"M. c #875448",
"N. c #974F47",
"B. c #A95D50",
"V. c #A85B4F",
"C. c #956355",
"Z. c #84675C",
"A. c #A76456",
"S. c #BB6A5C",
"D. c #B3695C",
"F. c #815E7D",
"G. c #967468",
"H. c #8F7875",
"J. c #B87666",
"K. c #A97B6E",
"L. c #FE4342",
"P. c #C77969",
"I. c #C5716B",
"U. c #C35367",
"Y. c #94817B",
"T. c #A98475",
"R. c #B8897B",
"E. c #CD8370",
"W. c #D38573",
"Q. c #D88B78",
"!. c #DA927E",
"~. c #E3917E",
"^. c #032E8B",
"/. c #062C84",
"(. c #002A91",
"). c #083193",
"_. c #01349D",
"`. c #09359C",
"'. c #063093",
"]. c #11348F",
"[. c #25308B",
"{. c #0336A2",
"}. c #0936A1",
"|. c #0639A8",
" X c #313AA8",
".X c #722D90",
"XX c #553090",
"oX c #1040B7",
"OX c #7F7C83",
"+X c #6A4CB7",
"@X c #134BCB",
"#X c #AB2E89",
"$X c #848283",
"%X c #989594",
"&X c #9F8F8E",
"*X c #B49082",
"=X c #A39C95",
"-X c #A9A8A9",
";X c #ABB0B0",
":X c #B8B8B8",
">X c #C49B8B",
",X c #D49886",
"<X c #C39A9A",
"1X c #E49783",
"2X c #D6A998",
"3X c #D4A190",
"4X c #E8AB97",
"5X c #EDB09C",
"6X c #EDAB97",
"7X c #DDB4A1",
"8X c #CAB9B8",
"9X c #C8A6A6",
"0X c #EAB8A5",
"qX c #F4B7A4",
"wX c #DBC6BE",
"eX c #F2C1AD",
"rX c #F9C3AE",
"tX c #F6C5B1",
"yX c #F9C6B1",
"uX c #FACAB5",
"iX c #F8C7B7",
"pX c #EFC8B8",
"aX c #BEC5C5",
"sX c #C9CBCA",
"dX c #D6D7D6",
"fX c #D2CECB",
"gX c #F5DACE",
"hX c #DFE0DF",
"jX c #FBE3D8",
"kX c #E7E8E6",
"lX c #FFEBE8",
"zX c #F1F2EF",
"xX c #FDFEFA",
"cX c #F6F7F4",
"vX c #E9F9F5",
"bX c None",
/* pixels */
"bXbXbXbXbXbXbXbXbXbXbXbXbXbXbXbXbXbXbXbXbXbXbXbXbXbXbXbXbXbXbXbXbXbXbXbXbX",
"bXbXbXbXbXbXbXbXbXbXbXbXbXbXbXbXbXbXbXbXbXbXbXbXbXbXbXbXbXbXbXbXbXbXbXbXbX",
"bXbXbXbXbXbXbXbXbXbXbXbXbXbXbXbXbXbXbXbXbXbXbXbXbXbXbXbXbXbXbXbXbXbXbXbXbX",
"bXbXbXbXbXbXbXbXbXbXbXbXbXbX+ O ; ; ; bXbXbXbXbXbXbXbXbXbXbXbXbXbXbXbXbXbX",
"bXbXbXbXbXbXbXbXbXbXbXbXbXc u s d d s u bXbXbXbXbXbXbXbXbXbXbXbXbXbXbXbXbX",
"bXbXbXbXbXbXbXbXbXbXO O ; f >.i.d.d.w.-.y , O bXbXbXbXbXbXbXbXbXbXbXbXbXbX",
"bXbXbXbXbXbXbXbXbXbXa &.;.t.u.a.a.a.s.e.3.;.d s bXbXbXbXbXbXbXbXbXbXbXbXbX",
"bXbXbXbXbXbXbXbXbXr :.r.s.f.a.a.a.a.a.a.a.d.w.*.O bXbXbXbXbXbXbXbXbXbXbXbX",
"bXbXbXbXbXbXbXbXbXO.8XqXh.p.a.a.a.a.a.a.a.a.i.w.;.y bXbXbXbXbXbXbXbXbXbXbX",
"bXbXbXbXbXbXbXbXbX%.vXlXL.p.a.a.a.a.a.a.a.a.a.i.0.*.* bXbXbXbXbXbXbXbXbXbX",
"bXbXbXbXbXbXbXbXbX%.vXjXL.p.a.a.a.a.a.a.a.a.a.a.d.w.-.g bXbXbXbXbXbXbXbXbX",
"bXbXbXbXbXbXbXbX  +.fXgXh.s.a.a.a.a.a.a.a.a.a.a.a.u.>.u 8 bXbXbXbXbXbXbXbX",
"bXbXbXbXbXbXbX+ w d 8.g.2.u.a.a.a.a.a.a.a.a.a.a.a.r.,.u bXbXbXbXbXbXbXbXbX",
"bXbXbXbXbXbXs -.t.r.r.u.u.y.r.w.w.u.s.f.a.a.a.d.r.q.,.i @ bXbXbXbXbXbXbXbX",
"bXbXbXbXbX+ d <.i.f.f.f.a.i.<.&.p ,.r.a.a.a.a.r.1.1.<.&.f y y u bXbXbXbXbX",
"bXbXbXbXbX% y f ;.;.*.:.e.i.i.q.-.s ,.e.e.e.e.w.1.0.1.<.>.,.,.-.u bXbXbXbX",
"bXbXbXbXbXt 3 8 ; ; 8 N -.q.u.0.&.+ f >.<.1.<.1.0.1.0.0.0.q.q.<.u ; bXbXbX",
"bXbXbXbXbXbXbXbX8 g N.M.u w w w # @ e &.>.0.0.0.0.0.0.0.0.1.q.2.s 8 bXbXbX",
"bXbXbXbXbXbXbXbX9 b S.B.: D C.C.N.V y e >.0.,.=.p p *.p :.0.<.=.y + bXbXbX",
"bXbXbXbXbXbXbXbX1 Z E.R.* A.,X~.E.D.H y :.<.p c m D q q 7.1.=.r = bXbXbXbX",
"bXbXbXbXbX        x 2X3X0 T.qX5XqX7XR.5.d i $ G.2X2X2X2XK.a e t bXbXbXbXbX",
"bXbXbXbXbXH.Y.H.#.G.eX2X- R.uXuXtXiX1XB.Z     *XuXyXeXuX>X    bXbXbXbXbXbX",
"bXbXbXbX#.fXjXgXpX0XuX>X  T.rXuXtXtX4XP.H     *XtX1X1XrX>XX bXbXbXbXbXbXbX",
"bXbXbX  #.pXjXgXuXyXuX7X*X3X6X>X<X0XqX3XM.    K.5X6X4XqXR.X bXbXbXbXbXbXbX",
"bXbXbX  +.2XuXeXeXeXeXeXeX4XP.r #.0XuX0XG.  - V.Q.0X0X!.B.% bXbXbXbXbXbXbX",
"bXbXbX  G Q.qXrXuXrX6X,XT.C.@.  @.!.qXyX7X>XJ.D.D.K.G.M.@.bXbXbXbXbXbXbXbX",
"bXbXbXbXZ D.,X2X7X2XQ.V.        @.Q.5XeXrX5X~.J.j.$     9 bXbXbXbXbXbXbXbX",
"bXbXbXbXbXZ F +.+.O.G c & X     Z.0XuXeX4X~.~.D.t - - & * 0 bXbXbXbXbXbXbX",
"bXbXbXbXbXbX              g A j.T.6XqX6XW.S.J.M.  X & & & * bXbXbXbXbXbXbX",
"bXbXbXbXbXbXbXbXbX& & % & H D.P.Q.Q.Q.W.D.N.0 X & & & & 0 bXbXbXbXbXbXbXbX",
"bXbXbXbXbXbXbXbXbXbX  H J.P.W.~.Q.S.B.l.C h   o 5 ~ bXbXbXbXbXbXbXbXbXbXbX",
"bXbXbXbXbXbXbXbXbXbX  M.P.Q.E.W.P.z.v > < K / U K bXbXbXbXbXbXbXbXbXbXbXbX",
"bXbXbXbXbXbXbXbXbXbXbXbXZ H Z F Z h Q _ ^._.`././ W W bXbXbXbXbXbXbXbXbXbX",
"bXbXbXbXbXbXbXbXbXbXbXbXR >   # 7 E  .| v.#X#X.X^.U > bXbXbXbXbXbXbXbXbXbX",
"bXbXbXbXbXbXbXbXbXbXbXbXbXX.- a [ _.v.0.s.a.p.b._.( , bXbXbXbXbXbXbXbXbXbX",
"bXbXbXbXbXbXbXbXbXbXbXbXX.&.=..X X .n.q.s.p.u.m.c.} E E bXbXbXbXbXbXbXbXbX",
"bXbXbXbXbXbXbXbXbXbXbXbX. 4.U.+X Xk :.0.d.i.0.1.9...` K 1 bXbXbXbXbXbXbXbX",
"bXbXbXbXbXbXbXbXbXbX      &X8XF.k :.1.1.q.q.0.c.XX[.^.I bXbXbXbXbXbXbXbXbX",
"bXbXbXbXbXbXbXbXbXbX%.%X%X:X:X=XB.0.0.1.1.<.<...|.|.).Y bXbXbXbXbXbXbXbXbX",
"bXbXbXbXbXbXbXbX  o.;XkXxXsX%XaX8X8.0.1.0.<.&. .{.|.).I bXbXbXbXbXbXbXbXbX",
"bXbXbXbXbXbXbX0 OX-XsXkXxXhX-X;X:X<XI.0.q.>.i ' {.{.).Y , bXbXbXbXbXbXbXbX",
"bXbXbXbXbXbXbX# -XdXsXhXxXzXsX-X-XsX<X<.1.,.l _ }.`.^.Y , bXbXbXbXbXbXbXbX",
"bXbXbXbXbXbXbX# -XkXzXxXxXxXzXfX:X;XH.&.a n [._.`.)._ K 1 bXbXbXbXbXbXbXbX",
"bXbXbXbXbXbXbXq $X:XkXxXxXxXzXhX:XY.O.e 5 ` _.}.`.` K L L bXbXbXbXbXbXbXbX",
"bXbXbXbXbXbXbXbXq $.:XzXxXkXfXdX:Xo.X 4 [.{.`.{.`.( > J W bXbXbXbXbXbXbXbX",
"bXbXbXbXbXbXbXbXo X %.:XkXdX;X=XH.] ^ ' `.{.}.}.`.^.( K 1 bXq bXbXbXbXbXbX",
"bXbXbXbXbXbXbXbX' J   %.aX;X$Xm P _.|.{.`.`.`.`.`.}.).I < T 6 * bXbXbXbXbX",
"bXbXbXbXbXbXbXW /.^.^  .%.#.o.] (._.}.}.}.`./.(.`.|.).I 3 z z c 0 bXbXbXbX",
"bXbXbXbXbXbX! < /.`.].P o . > /.}.}.`.).)./.) ^.oX}.^.I l N v z l * bXbXbX",
"bXbXbX! @ % 2 J / ` ` _ ) Y T / ^.}.)._ U J < `.@XoX^.I z V S z 4 * bXbXbX",
"bXbX{ F 7.5.A n Q / U / ` / J Y ) ` ( E W ! ~ ].{.^.] { B V b 0 0 bXbXbXbX",
"bXbX* j.x.V.k.C n J 1 Y ( E J J L 1 < L bXbXbXbX< < 6 V 5.V c 3 bXbXbXbXbX",
"bXbX* C k.k.6.5.V S z 6 Y ) bXbXbXbXbXbXbXbXbXbXbXL { 8.k.V c % bXbXbXbXbX",
"bXbX0 b B N B B V V N x 5 bXbXbXbXbXbXbXbXbXbXbXbXR n x.k.V x % bXbXbXbXbX",
"bXbXbXx = 0 l t z v v x 4 bXbXbXbXbXbXbXbXbXbXbXbX1 N N.z.A c % bXbXbXbXbX",
"bXbXbXbX% bXbXbX0 x x x 0 bXbXbXbXbXbXbXbXbXbXbXbXbXZ C C B x bXbXbXbXbXbX",
"bXbXbXbXbXbXbXbXbX* * 0 bXbXbXbXbXbXbXbXbXbXbXbXbXbXbX3 % 4 bXbXbXbXbXbXbX",
"bXbXbXbXbXbXbXbXbXbXbXbXbXbXbXbXbXbXbXbXbXbXbXbXbXbXbXbXbXbXbXbXbXbXbXbXbX",
"bXbXbXbXbXbXbXbXbXbXbXbXbXbXbXbXbXbXbXbXbXbXbXbXbXbXbXbXbXbXbXbXbXbXbXbXbX",
"bXbXbXbXbXbXbXbXbXbXbXbXbXbXbXbXbXbXbXbXbXbXbXbXbXbXbXbXbXbXbXbXbXbXbXbXbX",
"bXbXbXbXbXbXbXbXbXbXbXbXbXbXbXbXbXbXbXbXbXbXbXbXbXbXbXbXbXbXbXbXbXbXbXbXbX",
"bXbXbXbXbXbXbXbXbXbXbXbXbXbXbXbXbXbXbXbXbXbXbXbXbXbXbXbXbXbXbXbXbXbXbXbXbX",
"bXbXbXbXbXbXbXbXbXbXbXbXbXbXbXbXbXbXbXbXbXbXbXbXbXbXbXbXbXbXbXbXbXbXbXbXbX",
"bXbXbXbXbXbXbXbXbXbXbXbXbXbXbXbXbXbXbXbXbXbXbXbXbXbXbXbXbXbXbXbXbXbXbXbXbX"
};
