/* XPM */
static char *result[] = {
/* columns rows colors chars-per-pixel */
"64 64 166 2 ",
"   c #000001",
".  c #0F000F",
"X  c #05000A",
"o  c #0F0010",
"O  c #100010",
"+  c #100C10",
"@  c #101310",
"#  c #111C10",
"$  c #031901",
"%  c #002B00",
"&  c #0E290D",
"*  c #002600",
"=  c #102B0F",
"-  c #10340F",
";  c #113B0F",
":  c #112211",
">  c #122B11",
",  c #1D2A1D",
"<  c #123611",
"1  c #133A11",
"2  c #1A321A",
"3  c #2D282D",
"4  c #292729",
"5  c #39273A",
"6  c #372738",
"7  c #11420F",
"8  c #005D00",
"9  c #125E0E",
"0  c #134511",
"q  c #134A10",
"w  c #1D421C",
"e  c #145310",
"r  c #145D11",
"t  c #094501",
"y  c #006F00",
"u  c #12600C",
"i  c #027500",
"p  c #007900",
"a  c #0F7402",
"s  c #107305",
"d  c #14750C",
"f  c #127D06",
"g  c #156311",
"h  c #166B11",
"j  c #167211",
"k  c #197414",
"l  c #177A11",
"z  c #187E11",
"x  c #274227",
"c  c #364136",
"v  c #2E742B",
"b  c #297826",
"n  c #387436",
"m  c #404140",
"M  c #4D734C",
"N  c #5F725F",
"B  c #697169",
"V  c #7C707C",
"C  c #727172",
"Z  c #14840A",
"A  c #138606",
"S  c #129F01",
"D  c #178210",
"F  c #188411",
"G  c #1A8E11",
"H  c #1E8618",
"J  c #1A9311",
"K  c #1B9A11",
"L  c #0A9700",
"P  c #0FAD00",
"I  c #15A900",
"U  c #14B400",
"Y  c #12BD00",
"T  c #1ABA09",
"R  c #1CA211",
"E  c #1CAB11",
"W  c #1EB511",
"Q  c #1FBB11",
"!  c #27BC1D",
"~  c #26B41D",
"^  c #298624",
"/  c #398536",
"(  c #2FB629",
")  c #32B92B",
"_  c #3CBA37",
"`  c #3CB337",
"'  c #41B43C",
"]  c #10C900",
"[  c #10D100",
"{  c #19D700",
"}  c #1FC212",
"|  c #20CC11",
" . c #21D312",
".. c #22D912",
"X. c #16E100",
"o. c #1AE400",
"O. c #17EF00",
"+. c #1BED00",
"@. c #17F400",
"#. c #1EF301",
"$. c #1BF900",
"%. c #17F800",
"&. c #20FB00",
"*. c #23E412",
"=. c #24ED12",
"-. c #2BE01F",
";. c #25F212",
":. c #25F912",
">. c #3ADF32",
",. c #32C02B",
"<. c #2CE320",
"1. c #2EED21",
"2. c #2FF322",
"3. c #30F722",
"4. c #30FA23",
"5. c #3BE532",
"6. c #3EEC34",
"7. c #3EF434",
"8. c #3FFA35",
"9. c #40F737",
"0. c #41FE36",
"q. c #4B844A",
"w. c #4DB749",
"e. c #5EB25C",
"r. c #618460",
"t. c #748374",
"y. c #68B565",
"u. c #47DF41",
"i. c #48DF41",
"p. c #5CDF57",
"a. c #5CDF58",
"s. c #4BEC44",
"d. c #48E341",
"f. c #4CF145",
"g. c #4FFA47",
"h. c #61EC5C",
"j. c #64F25F",
"k. c #7CDD79",
"l. c #65F660",
"z. c #80B17E",
"x. c #808280",
"c. c #86B485",
"v. c #9EB09D",
"b. c #A0AFA0",
"n. c #A1B4A1",
"m. c #B1AFB1",
"M. c #B2B5B2",
"N. c #A1DC9F",
"B. c #83EA80",
"V. c #87F284",
"C. c #89F586",
"Z. c #AAE9A8",
"A. c #AFF0AE",
"S. c #B0F0AE",
"D. c #B1F3B0",
"F. c #C2DAC1",
"G. c #D7D9D6",
"H. c #CDE7CC",
"J. c #CDE8CD",
"K. c #D2EED2",
"L. c #D6F1D5",
"P. c #E3E6E3",
"I. c #E8EBE7",
"U. c #E9EDE9",
"Y. c #EDF0ED",
"T. c None",
/* pixels */
"@ + + + O O . O O o o X                         X . o o . . . o o o o o o o o o . o o o o O o o O O . o o o o o o o O O + + @ @ ",
"@ @ + + o . o O O o o X X                     X X . o O O O . o o o o o o o o X O O o O . O O . o o o o . O o o . o o + + + @ + ",
"+ + @ @ # # : - < 0 0 0 w w x c m m m c c x w w 0 0 0 7 7 7 7 7 7 0 0 7 0 0 0 1 - - > = : : : : = = < ; 0 0 0 1 < : : @ @ @ + + ",
". + @ : > ; q u s Z H ^ ^ / q.r.t.x.x.t.r.q./ ^ ^ H Z A F G F F F F F F F F F z j h r e q 7 7 q e r h k z F D d r q ; = : # + . ",
". O # = < q g Z S T | ) ,.w.y.c.n.M.M.n.c.y.w._ ) ! Y Y T ! Q Q Q Q Q Q } Q W E K J z j g r e g h D G R W Q W R F g q < & # . o ",
". O # - 0 r l I Y { <.5.s.a.k.N.F.G.G.F.N.k.a.i.>.<.o.X.o...*...*...*...*.*... .} E K F l h h l F K E }  .*...| E l r 0 < # O o ",
"o O : < 0 r F I ] +.4.0.g.l.C.D.K.U.U.L.D.V.j.f.7.2.#.@.#.;.;.:.;.:.:.:.:.:.;.*. .Q E J D k k Z J R !  .*.;.;. .E F r 0 - : O . ",
"o O : ; 0 g G I [ +.4.0.g.l.C.D.L.Y.Y.L.D.C.l.g.9.3.$.%.#.:.:.:.;.:.:.:.:.:.=.*.} Q E J F k k D J E T ..=.;.;...W G g q < : O o ",
"o o : < 0 g F I ] +.3.8.g.j.B.A.K.I.I.K.Z.B.j.f.9.3.@.O.&.;.;.;.;.;.;.;.:.:.=...| ! R J D j j z J R Q  .*.;.;. .E F g 0 < : o o ",
"o o : - 0 r D I ] o.2.7.s.h.B.Z.J.P.P.H.Z.B.h.s.5.1.+.+.+.=.=.=.=.=.=.;.;.=.*...| W R G z j j z J R W  .*.=.=.| E D r 0 - : o o ",
"o o : - 7 r D I ] o.2.7.f.h.B.Z.H.P.P.H.Z.B.h.s.9.<.+.+.+.=.=.=.=.=.=.=.;.;.*...} W R G z j j z G R Q } *.=.*.| E D r 0 < : O o ",
"o o : - 0 r D I ] o.2.7.f.h.B.Z.H.P.P.H.Z.B.h.s.9.1.+.+.+.=.=.=.=.=.=.;.;.=.=...} W R G z j h z G R Q } ..=.=. .E D r 0 < : O o ",
"o O : < 0 9 D I ] o.2.7.f.h.B.Z.J.P.P.J.Z.B.h.s.9.1.+.+.+.=.=.=.=.=.=.;.;.=.*...} Q K J z d j z G R W | ..=.=. .E F r 0 < : o o ",
"o O # < 0 r D I ] o.2.7.f.h.B.Z.J.P.P.J.Z.B.h.s.>.<.+.+.+.=.=.=.=.=.=.=.;.;.=...} W R G z h j z G R W | *.=.*.} E D r 0 - # O o ",
"o . : < 0 r F I ] o.2.7.f.h.B.Z.J.P.P.J.Z.B.h.s.6.1.+.O.+.=.=.=.=.=.=.=.;.;.*... .W R J z j h z G R W | *.=.=.} E D r 0 - : O o ",
"o . : < q g F I ] +.3.8.f.j.V.Z.K.I.I.K.S.B.h.s.9.3.@.O.#.;.;.=.;.;.;.:.:.;.=...| W E J D k k D J R !  .*.:.=. .W F r 0 < : O o ",
"o o : - 0 g F U [ @.4.0.g.l.C.D.L.Y.Y.L.D.C.l.g.9.3.#.%.$.:.:.:.:.:.:.:.:.:.;.*. .Q E J D l k D J E Q  .=.:.=...W F g 0 < : o o ",
"o O : < 0 g F I ] O.4.0.g.j.B.S.K.U.U.K.D.V.l.f.9.3.#.%.#.;.;.:.;.;.;.;.:.:.=...| W E J D k k D J R ! { =.;.=. .W F g 0 < : o o ",
"O O : < 0 e z I Y { 1.5.d.a.k.N.F.G.G.F.N.k.p.i.5...X.{ o.....*.*...*.*.*.*...{ Q E K F l h h l F K E }  .*...} R z e 7 < # o o ",
"O O # > ; q g Z S U ! ) _ w.y.c.n.m.m.b.z.e.' ( ~ W U U T W W W W W W W Q ! ~ R K J z h r e e e h d F K W W W R F h q ; > # O O ",
"O + # : > < q 9 s f H ^ b v M B C V V B M v a i i i i i s d k j d l k d l z l k h g e q ; - > < < 0 e h d z D k g q < > : # + O ",
"@ + @ @ # # : - < 1 1 2 2 , 4 3 6 5 6 4 : % % * % % % % & & > > > : > < - - < - < > = # @ + o o O O @ : - 1 1 ; > > # # @ @ + @ ",
"@ @ + + O O . o O O O X $ % % % % % % , 3 5 5 5 3 4 , , > : & & = > : : # + O O O O + @ : : > < - < < : + O O . o O O O + + @ @ ",
"@ @ + O O O o O O O = t 8 i p p i i v M B V V C N M n v b k d s d d j h r q 0 - < > - ; q e g j l z l g q > O O O O O O O + @ @ ",
"T.T.T.O O O @ # > 1 r f L P W ! ) ' e.y.b.m.m.b.c.y.w.` ) ( U Y T W ~ R K G j h r e e g h z G K E Q W K z r 1 > : @ O O O T.T.T.",
"T.T.T.T.O O # < 0 e z S Y { <.5.d.a.B.Z.F.G.G.F.N.k.p.u.>.<.{ X.o.*...| T E K F l h h j F K E }  .*...} R l e 0 < # o O T.T.T.T.",
"T.T.T.T.O O : < 0 g F I [ +.4.0.f.j.B.S.L.U.U.K.S.C.h.s.7.2.#.%.&.:.=... .T R J F j k F J R Q  .=.;.=. .W F r q < : O o T.T.T.T.",
"T.T.T.T.O O : 1 q r G U [ @.4.0.g.j.C.S.L.Y.Y.L.S.C.l.f.8.2.$.%.&.:.;.*. .! E J F j k D J E Q ..=.:.;...W F g q 1 : O O T.T.T.T.",
"T.T.T.T.O O : 1 0 g D I ] +.4.8.g.j.B.S.K.U.U.K.S.V.h.s.9.1.#.@.&.;.=...| Q R J z j j D J R Q  .*.;.=. .E F g q 1 : O O T.T.T.T.",
"T.T.T.T.O O : < 0 r D I ] o.2.7.s.h.B.Z.H.P.P.H.Z.B.h.s.9.1.+.@.&.;.=...} W R G z j j z G R W  .*.=.=.} E F r 0 < : . o T.T.T.T.",
"T.T.T.T.O . : < 0 g D I ] o.2.7.s.h.B.Z.H.P.P.H.Z.B.h.s.6.1.+.O.+.=.*...| W R G z j k z G R W } *.=.=.} E F r 0 < : O o T.T.T.T.",
"T.T.T.T.. . : < 0 r D I ] o.2.7.f.h.B.S.H.P.P.H.Z.B.h.s.6.<.+.+.&.=.*...| W R G z j h F G R Q } *.=.=. .E F r 0 < : o o T.T.T.T.",
"T.T.T.T.O O : < 0 r D I ] o.2.7.s.h.B.Z.H.P.P.H.Z.B.h.s.6.1.+.O.#.=.=...| ~ R G z j j z G R W | *.=.*.| E D r 0 1 : O . T.T.T.T.",
"T.T.T.T.O O : < 0 r D I ] X.2.7.f.h.B.Z.H.P.P.H.Z.B.h.s.6.1.+.O.&.=.*...| E R G z j j l G R W | *.=.*.| E F r 0 < : O O T.T.T.T.",
"T.T.T.T.O O : < 0 r D I ] o.2.7.f.h.B.Z.H.P.P.H.Z.B.h.s.6.1.+.@.#.=.*...} W R G z j j z G R W | *.=.=.| E D r 0 < : O O T.T.T.T.",
"T.T.T.T.O O : < q r D I ] o.2.7.f.h.B.Z.H.P.P.H.Z.B.h.s.6.1.+.O.#.=.*...| T R G l j j z G R W | *.=.=.| E F r 0 < : O O T.T.T.T.",
"T.T.T.T.. . : < 0 r D I ] o.2.7.s.h.B.Z.H.P.P.H.Z.B.a.s.6.1.+.O.&.=.*...} W R G z j j z G R W | *.=.*. .E D r 0 - : . O T.T.T.T.",
"T.T.T.T.O o : < 0 r D I ] o.2.7.f.h.B.Z.H.P.P.H.Z.B.h.s.6.1.+.O.#.;.*...| W R G z j j l G R W | ..=.*.| E F r 0 1 : . O T.T.T.T.",
"T.T.T.T.o o > < 0 r D I ] o.2.7.f.h.B.Z.H.P.P.H.Z.B.h.s.6.1.+.O.#.=.=...| W R G z j k z G R W | *.=.*. .E F r 0 < : O O T.T.T.T.",
"T.T.T.T.O o # < 0 r D I ] o.2.7.f.j.k.Z.H.P.P.H.Z.B.h.s.6.1.+.O.&.=.*...} W R G z j j z G R W | *.=.*. .E D r 0 < : O O T.T.T.T.",
"T.T.T.T.. . : < 0 g D I ] o.2.7.f.h.B.Z.H.P.P.H.Z.B.a.s.6.1.+.O.#.=.*...} W R G D j j z G R W | *.=.=.| E F r 0 1 : . . T.T.T.T.",
"T.T.T.T.. . : < 0 r D I ] o.2.7.f.h.B.Z.H.P.P.H.Z.B.h.s.6.1.+.O.#.=.*...| W R G z j j z G R W | *.=.=. .E F r q < : O O T.T.T.T.",
"T.T.T.T.O O : < 0 r D I ] o.2.7.f.h.k.Z.H.P.P.H.Z.B.h.s.6.1.+.O.&.;.*...} W R G z j j z G R W | ..=.=.} E F r 0 < : O O T.T.T.T.",
"T.T.T.T.O O : < 0 r D I ] o.2.7.f.h.V.Z.H.P.P.H.Z.B.h.s.6.1.+.@.#.;.*...| W R G z j j z G R W | *.=.=.} E F r 0 1 : O O T.T.T.T.",
"T.T.T.T.O . : < 0 r F I ] o.3.7.f.j.B.Z.H.P.P.H.Z.B.h.s.6.1.+.O.#.=.*...| ~ R G z j j z G K W | *.=.*.} E F r 0 < : . . T.T.T.T.",
"T.T.T.T.. O : < 0 r D I ] o.1.7.f.j.k.Z.H.P.P.H.Z.B.h.s.6.1.+.O.#.=.=...} T R G z j j z G R W | *.=.=. .E D r 0 1 : . . T.T.T.T.",
"T.T.T.T.O O : < 0 r D I ] o.3.7.f.h.B.Z.H.P.P.H.Z.B.h.s.6.1.+.O.#.=.*...} W R G z j j z G R W | *.=.=.} E F r 0 < : O . T.T.T.T.",
"T.T.T.T.O O : < 0 r D I ] o.;.7.f.h.B.Z.H.P.P.H.Z.B.h.s.6.1.+.O.#.=.*...| W R G z h j z G R W | *.=.=. .E F r 0 < : . . T.T.T.T.",
"T.T.T.T.O . : < 0 r D I ] o.3.7.f.h.B.Z.J.P.P.H.Z.B.h.s.6.1.+.O.#.;.*...} T R G z j k z G R W | ..=.*. .E F r 0 < : o o T.T.T.T.",
"T.T.T.T.O O : < q r D I ] o.3.7.f.h.B.Z.H.P.P.H.Z.B.h.s.6.1.+.O.#.;.*...| ~ R G z h d z J R W | *.=.=.} E F r 0 < : o o T.T.T.T.",
"T.T.T.T.O O : < 0 r D I ] o.1.7.f.h.B.Z.H.P.P.H.Z.B.h.s.6.1.+.O.&.=.*...} W R G z j h z G R Q | *.=.=.} E D r 0 1 : o o T.T.T.T.",
"T.T.T.T.O O : < 0 r D I ] o.3.7.s.h.B.Z.H.P.P.H.Z.B.h.s.6.1.+.O.#.=.*...| W R G z j d z J K Q } *.=.=. .E D r q 1 : o o T.T.T.T.",
"T.T.T.T.O . : < 0 r D I ] o.1.7.f.h.B.Z.H.P.P.H.Z.B.h.s.6.1.+.@.&.=.=...| E R G z j j z G R ~  .*.=.=.} E H r 0 < : O o T.T.T.T.",
"T.T.T.T.. . : < 0 r D I ] o.2.7.s.h.B.Z.H.P.P.H.Z.B.h.s.6.1.+.O.+.=.*...| W R G z h j z J K W } *.=.*. .E F r 0 < : . o T.T.T.T.",
"T.T.T.T.. . : < 0 r D I ] o.2.7.s.h.B.Z.H.P.P.H.Z.B.a.s.6.1.+.O.&.;.*...| W K J z j j z G R W | ..=.*. .E F r 0 1 : o O T.T.T.T.",
"T.T.T.T.. O : < 0 r D I ] o.2.7.s.h.B.Z.H.P.P.H.Z.B.h.s.6.1.+.O.#.;.*...| W R G z h j z J R W | *.=.=.} E F r q < : o o T.T.T.T.",
"T.T.T.T.O O : < 0 g D I ] o.2.7.s.h.B.Z.H.L.P.H.Z.B.h.s.6.1.+.O.+.=.*...| W K J z j h z J R W | *.=.=.| E F r 0 < : o o T.T.T.T.",
"T.T.T.T.O O : < 0 r D I ] o.2.7.f.h.B.Z.H.P.P.H.Z.B.h.s.6.1.+.O.&.=.*...| ~ R G z j j z J K W | *.=.=. .E F r q 1 : O o T.T.T.T.",
"T.T.T.T.O O : < 0 r F I ] o.2.7.f.h.B.Z.H.P.P.H.Z.B.h.s.6.1.+.O.#.=.=...} W R G z j j z G R W | ..=.*.} E D r 0 < : O o T.T.T.T.",
"T.T.T.T.. O : < 0 r D I ] o.2.7.f.h.B.Z.H.P.P.H.Z.B.h.s.6.1.+.O.+.=.*...| W R G z j h z G R W | *.=.=.| E F r 0 < : O o T.T.T.T.",
"T.T.T.T.O . : < 0 r D I ] o.2.7.s.h.B.Z.H.P.P.H.Z.B.a.s.6.1.+.O.&.=.*...| W R G z j j z G R Q | *.=.*.} E F r 0 < : . O T.T.T.T.",
"T.T.T.T.. . : < 0 r D I ] o.2.7.f.h.B.Z.H.P.P.H.Z.B.h.s.6.1.+.O.#.=.=...} W R G z j j z G R W | *.=.=. .E D r 0 < : . . T.T.T.T.",
"T.T.T.T.. o : < 0 r D I ] o.2.7.f.h.B.Z.H.P.P.H.Z.B.h.s.6.1.+.O.#.=.*...| W R G z h j z G R W | *.=.=.} E F r 0 1 : . o T.T.T.T.",
"T.T.T.T.O o : < q r D I ] X.2.7.s.h.B.Z.H.P.P.H.Z.B.h.s.6.1.+.+.&.=.*...| W R G z j j z G R W } *.=.=. .E F r 0 < : . O T.T.T.T."
};
