/* XPM */
static char *result[] = {
/* columns rows colors chars-per-pixel */
"37 64 233 2 ",
"   c #000000",
".  c #0A0004",
"X  c #190704",
"o  c #00001E",
"O  c #001D1A",
"+  c #031A16",
"@  c #171214",
"#  c #2A0806",
"$  c #3D0000",
"%  c #31060A",
"&  c #271717",
"*  c #341A16",
"=  c #331B1B",
"-  c #3A1A17",
";  c #32100C",
":  c #332115",
">  c #000026",
",  c #001329",
"<  c #000A3A",
"1  c #01123C",
"2  c #071939",
"3  c #19162D",
"4  c #251C25",
"5  c #361B23",
"6  c #361F3B",
"7  c #002626",
"8  c #02293F",
"9  c #382328",
"0  c #3E243A",
"q  c #2B2F2C",
"w  c #480404",
"e  c #590506",
"r  c #481918",
"t  c #571916",
"y  c #521209",
"u  c #680404",
"i  c #780103",
"p  c #691715",
"a  c #751615",
"s  c #75100D",
"d  c #52250A",
"f  c #51192B",
"g  c #700434",
"h  c #4D2423",
"j  c #482829",
"k  c #522624",
"l  c #592D2A",
"z  c #58322E",
"x  c #433933",
"c  c #4D2E33",
"v  c #652E2B",
"b  c #62282A",
"n  c #68362B",
"m  c #75342D",
"M  c #7B392A",
"N  c #633931",
"B  c #783936",
"V  c #3A403E",
"C  c #5F4338",
"Z  c #6B4339",
"A  c #77453C",
"S  c #031847",
"D  c #000058",
"F  c #021B53",
"G  c #031A5A",
"H  c #1C1351",
"J  c #02265D",
"K  c #112E50",
"L  c #28364A",
"P  c #00006B",
"I  c #000262",
"U  c #021E63",
"Y  c #000072",
"T  c #03236B",
"R  c #042166",
"E  c #032779",
"W  c #142F75",
"Q  c #2B2964",
"!  c #731956",
"~  c #582842",
"^  c #64227A",
"/  c #3B465A",
"(  c #4C4546",
")  c #544A47",
"_  c #585353",
"`  c #6E5349",
"'  c #72534F",
"]  c #76625B",
"[  c #515568",
"{  c #6C6667",
"}  c #797676",
"|  c #696B70",
" . c #840002",
".. c #890808",
"X. c #940104",
"o. c #990809",
"O. c #901214",
"+. c #A40202",
"@. c #AB0103",
"#. c #A70809",
"$. c #B40003",
"%. c #BC0004",
"&. c #B60509",
"*. c #B81618",
"=. c #863A2E",
"-. c #873B32",
";. c #8C2A25",
":. c #A61E1D",
">. c #C20002",
",. c #CB0002",
"<. c #C6080A",
"1. c #D40204",
"2. c #DB0507",
"3. c #E30205",
"4. c #EA0607",
"5. c #FF0200",
"6. c #FD0D0E",
"7. c #F4080B",
"8. c #FE0F12",
"9. c #EB1414",
"0. c #F21217",
"q. c #FF2626",
"w. c #DA202C",
"e. c #85453E",
"r. c #964337",
"t. c #8A513C",
"y. c #A94A3D",
"u. c #A7164E",
"i. c #A82B6C",
"p. c #DA1E5A",
"a. c #875347",
"s. c #935149",
"d. c #A95C50",
"f. c #956355",
"g. c #84675C",
"h. c #A76456",
"j. c #B86A5C",
"k. c #967468",
"l. c #877C79",
"z. c #83736F",
"x. c #B77666",
"c. c #A9776E",
"v. c #C15F5F",
"b. c #C77969",
"n. c #C5736C",
"m. c #EE7A79",
"M. c #AB8374",
"N. c #B7887A",
"B. c #CD8370",
"V. c #D38573",
"C. c #D88B78",
"Z. c #D4917E",
"A. c #E3917E",
"S. c #DFDF72",
"D. c #091098",
"F. c #012983",
"G. c #042E8A",
"H. c #0B2F8B",
"J. c #002B98",
"K. c #02349E",
"L. c #09349C",
"P. c #063193",
"I. c #2D308D",
"U. c #0000B0",
"Y. c #0000AD",
"T. c #0B39A6",
"R. c #0738A7",
"E. c #073FB2",
"W. c #462F8E",
"Q. c #6F2B82",
"!. c #5B0091",
"~. c #0E40B5",
"^. c #0B42B9",
"/. c #0B43B5",
"(. c #2E428B",
"). c #4762BE",
"_. c #7C69B2",
"`. c #002CCA",
"'. c #0A48C7",
"]. c #1249C5",
"[. c #134BCA",
"{. c #174AC6",
"}. c #1750D3",
"|. c #3356C6",
" X c #386BCD",
".X c #456BC5",
"XX c #AC2E89",
"oX c #8A2D89",
"OX c #8972B1",
"+X c #898887",
"@X c #999999",
"#X c #94908D",
"$X c #B49182",
"%X c #B18583",
"&X c #888BAE",
"*X c #ABAAAA",
"=X c #A6A5A4",
"-X c #BBBBBB",
";X c #B5B5B4",
":X c #AFB7B7",
">X c #C49C8B",
",X c #D69785",
"<X c #E49783",
"1X c #D6AA98",
"2X c #D4A190",
"3X c #E9AB98",
"4X c #EDAD99",
"5X c #DDB4A2",
"6X c #C6B5B4",
"7X c #EAB8A5",
"8X c #F3B8A3",
"9X c #CED188",
"0X c #DBC6BE",
"qX c #F2C1AD",
"wX c #F9C2AE",
"eX c #F6C5B1",
"rX c #F9C6B1",
"tX c #FACAB5",
"yX c #FACAB5",
"uX c #EEC8B8",
"iX c #BCC1C1",
"pX c #C8C7C7",
"aX c #DDDDDB",
"sX c #D5D6D4",
"dX c #F4DBD0",
"fX c #DFE0DE",
"gX c #FFE3D4",
"hX c #E6E6E5",
"jX c #F4F5F2",
"kX c #FEFEFC",
"lX c #F9FAF7",
"zX c #F0F1EE",
"xX c None",
/* pixels */
"xXxXxXxXxXxXxXxXxXxXxXxXxXxXxXxXxXxXxXxXxXxXxXxXxXxXxXxXxXxXxXxXxXxXxXxXxX",
"xXxXxXxXxXxXxXxXxXxXxXxXxXxXxXxXxXxXxXxXxXxXxXxXxXxXxXxXxXxXxXxXxXxXxXxXxX",
"xXxXxXxXxXxXxXxXxXxXxXxXxXxXxXxXxXxXxXxXxXxXxXxXxXxXxXxXxXxXxXxXxXxXxXxXxX",
"xXxXxXxXxXxXxXxXxXxXxXxXxXxXxXxXxXxXO + + O O xXxXxXxXxXxXxXxXxXxXxXxXxXxX",
"xXxXxXxXxXxXxXxXxXxXxXxXxXxXxXxXxXt p a a p t h xXxXxXxXxXxXxXxXxXxXxXxXxX",
"xXxXxXxXxXxXxXxXxXxXxXxXxXxX, 7 h o.<.9.9.2.$.a O O O xXxXxXxXxXxXxXxXxXxX",
"xXxXxXxXxXxXxXxXxXxXxXxXxXt s O.&.2.7.6.8.6.3.<.O.X.i xXxXxXxXxXxXxXxXxXxX",
"xXxXxXxXxXxXxXxXxXxXxXxXO O.>.7.6.6.6.6.6.6.6.8.6.2.+.t xXxXxXxXxXxXxXxXxX",
"xXxXxXxXxXxXxXxXxXxXxXh ..<.4.6.6.6.6.6.6.6.6.5.q.m.M.j   xXxXxXxXxXxXxXxX",
"xXxXxXxXxXxXxXxXxXxX: ..>.7.8.6.6.6.6.6.6.6.6.5.q.xXxXC   xXxXxXxXxXxXxXxX",
"xXxXxXxXxXxXxXxXxXk o.<.4.6.6.6.6.6.6.6.6.6.6.5.q.xXxX/ xXxXxXxXxXxXxXxXxX",
"xXxXxXxXxXxXxXxX7 t @.3.8.6.6.6.6.6.6.6.6.6.6.5.9.m.%Xl X xXxXxXxXxXxXxXxX",
"xXxXxXxXxXxXxXxXxXt #.2.6.8.6.6.6.6.6.6.6.8.8.4.&.<.:.s y + xXxXxXxXxXxXxX",
"xXxXxXxXxXxXxXxX4 u @.1.2.7.8.6.6.8.7.2.<.<.2.2.3.4.4.3.<.O.p xXxXxXxXxXxX",
"xXxXxXxXxXt r r u ..$.%.&.2.6.6.8.8.2.@.i  .$.3.6.8.8.8.4.&.a O xXxXxXxXxX",
"xXxXxXxXt o.&.#.@.@.%.%.%.>.1.1.1.2.#.p o.,.7.7.1.@...O.O.p t & xXxXxXxXxX",
"xXxXxXO t &.1.>.>.>.>.>.>.%.%.%.$.@.p +  .>.3.,.o.v 7 O + + & * xXxXxXxXxX",
"xXxXxXO p #.,.>.%.>.>.<.>.>.%.>.$. .w @ # $ w w t t.s.h   xXxXxXxXxXxXxXxX",
"xXxXxXO r X.$.>.@. . .i  .X.#.>.@.e y m a.f.f.N & h.j.l xXxXxXxXxXxXxXxXxX",
"xXxXxXxXr e X.%.;.q x x x k i $.#.r A j.V.<X<Xh.- N.B.Z > xXxXxXxXxXxXxXxX",
"xXxXxXxXxXr e u M.1X1X1X1Xk.$ u a -.N.5X8X8X8XM.- 2X1Xk     . xXxXxXxXxXxX",
"xXxXxXxXxXxX    >XtXwXwXtX$X    N d.,XeXeXeXyXN.& 1X7Xk.] l.M.z.xXxXxXxXxX",
"xXxXxXxXxXxXxXX >XrX<X2XeX$X    A b.3XqXrXrXyXM.  >XeX7XuXdXdXpX] xXxXxXxX",
"xXxXxXxXxXxXxXX N.8X4X3X4Xc.    a.<XqXqX2X>X5X2X$X5XyXeXtXdXgXuX'   xXxXxX",
"xXxXxXxXxXxXxX& h.A.7X7XC.d.#   k.7XtX7X] e b.3XqXqXqXqXqXqXrX1X`   xXxXxX",
"xXxXxXxXxXxXxXxX' s.k.c.j.j.x.>X5XuX8X,X`   t.f.c.,X4XqXtXrX8XZ.Z   xXxXxX",
"xXxXxXxXxXxXxXxXS     $ e.b.A.8XrXrX4XZ.a.        s.Z.1X5X5XZ.j.N xXxXxXxX",
"xXxXxXxXxXxXxX9 : ; & # r x.A.A.3X7XrX7Xg.    X * k Z ` ` ` Z N xXxXxXxXxX",
"xXxXxXxXxXxXxX5 : = = X   a.x.j.V.3X8X3Xx.a.B k               xXxXxXxXxXxX",
"xXxXxXxXxXxXxXxX9 * = = * @ r e.j.V.C.C.C.b.h.-.& * * * xXxXxXxXxXxXxXxXxX",
"xXxXxXxXxXxXxXxXxXxXxXxX4 >   d M t.d.n.A.A.V.b.x.Z   xXxXxXxXxXxXxXxXxXxX",
"xXxXxXxXxXxXxXxXxXxXxXxXF G G F < > b s.x.V.b.C.B.a.  xXxXxXxXxXxXxXxXxXxX",
"xXxXxXxXxXxXxXxXxXxXxXG T G.K.K.G.T j d n Z Z Z N xXxXxXxXxXxXxXxXxXxXxXxX",
"xXxXxXxXxXxXxXxXxXxX5 ~ ! i.XXXXoXH.E G % %   , K xXxXxXxXxXxXxXxXxXxXxXxX",
"xXxXxXxXxXxXxXxXxX- e X.&.9.8.5.p.W.R.L.! u ; / xXxXxXxXxXxXxXxXxXxXxXxXxX",
"xXxXxXxXxXxXxXxXa #.+.$.>.,.3.5.0.i.Q.K.Y.!.+.O./ L xXxXxXxXxXxXxXxXxXxXxX",
"xXxXxXxXxXxXxX* +.,.>.>.>.$.>.4.7.1.i.R..XOXi.#.X : q xXxXxXxXxXxXxXxXxXxX",
"xXxXxXxXxXq w u +.>.%.<.%.%.>.1.u.^ U.|.S.S.OXD.@ xXxX  xXxXxXxXxXxXxXxXxX",
"xXxXxXxXxX  y ' c.n.w.&.>.%.+.u.Q.R.`.).9X9X XU.J xXxX} { xXxXxXxXxXxXxXxX",
"xXxXxXxXxX  ~ +XpXpXj.$.>.X.g W.E.[.'.[.|.|.}.E.P.D | pX=X. xXxXxXxXxXxXxX",
"xXxXxXxX) #X*X:X:X*X6XN.X.g I.G.E.'.{.].`.`.'.{.~.D l.hXaX@X] xXxXxXxXxXxX",
"xXxXxX  { -XaXsX;X@XpX;X' ^ R.K.T.[.[.[.[.[.].}.].P +XjXlXpXOX  xXxXxXxXxX",
"xXxX5 [ #X;XaXjXaX;X@X=XpX&XD.J.E.}.}.].[.].].}.{.Y | sXhXsX}   xXxXxXxXxX",
"xXxX; M.-XsXjXkXjXaXpX-X-X&XD.K.T.E.{.{.[.[.[.].~.P [ :XiX=X|   xXxXxXxXxX",
"xXxX; @XaXjXkXkXkXkXkXsX_ P T.L.L.L.E.{.[.}.[.E.P.D ( @X} x [ xXxXxXxXxXxX",
"xXxXxX} *XaXkXkXzXhXjXpXd I T.L.L.L.~.E.E.E.E.E.~.R.(.| ) xXxXxXxXxXxXxXxX",
"xXxXxX. ( *XaXlXhXpXpX=X9 P L.L.L.L.L.L.L.L.T.E.[.}./.I S xXxXxXxXxXxXxXxX",
"xXxXxX. 5 _ =XfXhXpX#X) 4 U H.L.T.T.L.L.L.L.L.{.[.}.'.J.R K xXxXxXxXxXxXxX",
"xXxXxX9 ;   { =X:X*X) > U R R F.P.P.L.L.L.H.H.T.].].E.E.E < L xXxXxXxXxXxX",
"xXxXxX= - k c C ( ( Q F.R.E < S G E P.T.H.R S H.T.T.T.T.F.S 3 @ & L xXxXxX",
"xXxXxXxX0 j y w w w H E F.W L L L F E E R S < U H.F.E E Q b =.;.-.B / xXxX",
"xXxXxXxXxX4 k m B B 6 < 1 xXxXxXxXS 1 1 S 1 2 J U G 3 1 c =.r.d.y.e.= xXxX",
"xXxXxXxXxX& k m r.-.~ F xXxXxXxXxXxXxXxXxXxXxXJ G 6 k v m B e.-.r.M * xXxX",
"xXxXxXxXxX& k m y.d.z S xXxXxXxXxXxXxXxXxXxXxXxX3 f v m m v v v v l 9 xXxX",
"xXxXxXxXxX& k B y.y.v , xXxXxXxXxXxXxXxXxXxXxXxX5 k l l k - j r 9 j xXxXxX",
"xXxXxXxXxXxXj l =.=.l xXxXxXxXxXxXxXxXxXxXxXxXxX9 j j j j xXxX@ & xXxXxXxX",
"xXxXxXxXxXxXxX5 & 5 xXxXxXxXxXxXxXxXxXxXxXxXxXxXxX9 = = xXxXxXxXxXxXxXxXxX",
"xXxXxXxXxXxXxXxXxXxXxXxXxXxXxXxXxXxXxXxXxXxXxXxXxXxXxXxXxXxXxXxXxXxXxXxXxX",
"xXxXxXxXxXxXxXxXxXxXxXxXxXxXxXxXxXxXxXxXxXxXxXxXxXxXxXxXxXxXxXxXxXxXxXxXxX",
"xXxXxXxXxXxXxXxXxXxXxXxXxXxXxXxXxXxXxXxXxXxXxXxXxXxXxXxXxXxXxXxXxXxXxXxXxX",
"xXxXxXxXxXxXxXxXxXxXxXxXxXxXxXxXxXxXxXxXxXxXxXxXxXxXxXxXxXxXxXxXxXxXxXxXxX",
"xXxXxXxXxXxXxXxXxXxXxXxXxXxXxXxXxXxXxXxXxXxXxXxXxXxXxXxXxXxXxXxXxXxXxXxXxX",
"xXxXxXxXxXxXxXxXxXxXxXxXxXxXxXxXxXxXxXxXxXxXxXxXxXxXxXxXxXxXxXxXxXxXxXxXxX",
"xXxXxXxXxXxXxXxXxXxXxXxXxXxXxXxXxXxXxXxXxXxXxXxXxXxXxXxXxXxXxXxXxXxXxXxXxX"
};
