/* XPM */
static char *result[] = {
/* columns rows colors chars-per-pixel */
"37 64 238 2 ",
"   c #000000",
".  c #030409",
"X  c #1B0000",
"o  c #190607",
"O  c #00021C",
"+  c #001D1A",
"@  c #041A17",
"#  c #1D1819",
"$  c #10110E",
"%  c #260505",
"&  c #3D0000",
"*  c #22151B",
"=  c #291817",
"-  c #331916",
";  c #331C1B",
":  c #391A16",
">  c #320B0D",
",  c #00221E",
"<  c #2F211D",
"1  c #020929",
"2  c #001529",
"3  c #030135",
"4  c #010B36",
"5  c #04133A",
"6  c #14163A",
"7  c #190028",
"8  c #271C28",
"9  c #361E24",
"0  c #32153A",
"q  c #002526",
"w  c #392227",
"e  c #323038",
"r  c #470102",
"t  c #570607",
"y  c #491816",
"u  c #541815",
"i  c #561715",
"p  c #571309",
"a  c #6A0504",
"s  c #780304",
"d  c #6F110E",
"f  c #681716",
"g  c #771715",
"h  c #750F0F",
"j  c #45211F",
"k  c #592800",
"l  c #581D21",
"z  c #432121",
"x  c #4C2524",
"c  c #582B25",
"v  c #592A31",
"b  c #433933",
"n  c #502B35",
"m  c #642A2A",
"M  c #69342B",
"N  c #77362B",
"B  c #673932",
"V  c #7A3935",
"C  c #6A2F34",
"Z  c #5B4C00",
"A  c #5F4B3C",
"S  c #6B443A",
"D  c #77453B",
"F  c #000E46",
"G  c #011443",
"H  c #00154A",
"J  c #011B5C",
"K  c #031B55",
"L  c #1F1C4C",
"P  c #311C49",
"I  c #03244A",
"U  c #082656",
"Y  c #0D2E50",
"T  c #332A51",
"R  c #011F67",
"E  c #000078",
"W  c #000C71",
"Q  c #02236C",
"!  c #052166",
"~  c #03297C",
"^  c #022474",
"/  c #1A2768",
"(  c #6D1351",
")  c #7B3741",
"_  c #513F51",
"`  c #3B4A5E",
"'  c #394B61",
"]  c #5F4645",
"[  c #504B50",
"{  c #6F534A",
"}  c #785049",
"|  c #6B625D",
" . c #79625A",
".. c #676461",
"X. c #4C486D",
"o. c #840002",
"O. c #890608",
"+. c #950102",
"@. c #99090A",
"#. c #861514",
"$. c #971513",
"%. c #8D0913",
"&. c #A30202",
"*. c #AB0204",
"=. c #A8080A",
"-. c #B40104",
";. c #BC0003",
":. c #B80507",
">. c #B80A12",
",. c #863B32",
"<. c #8C2A25",
"1. c #9D2E18",
"2. c #C30003",
"3. c #CB0103",
"4. c #C6080B",
"5. c #D50305",
"6. c #DC0609",
"7. c #C21011",
"8. c #E20204",
"9. c #ED090B",
"0. c #EA0406",
"q. c #FE0200",
"w. c #FE0D0E",
"e. c #F50708",
"r. c #ED1110",
"t. c #FE1111",
"y. c #F20A13",
"u. c #FF3A3A",
"i. c #F52B2B",
"p. c #C91B29",
"a. c #85453E",
"s. c #964236",
"d. c #8A513C",
"f. c #AC4B3D",
"g. c #9E236C",
"h. c #DA1E5A",
"j. c #875347",
"k. c #974F47",
"l. c #B84E48",
"z. c #AA5C50",
"x. c #A85B4F",
"c. c #956355",
"v. c #84675C",
"b. c #A76456",
"n. c #B86A5C",
"m. c #967568",
"M. c #887771",
"N. c #B87666",
"B. c #A77A6D",
"V. c #C77969",
"C. c #C36F62",
"Z. c #8F8377",
"A. c #A98475",
"S. c #B58678",
"D. c #CD8370",
"F. c #D38573",
"G. c #D88B78",
"H. c #D5917E",
"J. c #E3917E",
"K. c #D9DC77",
"L. c #E3DF6D",
"P. c #1E0092",
"I. c #012D8B",
"U. c #082D84",
"Y. c #132E8C",
"T. c #05339A",
"R. c #0A2F8E",
"E. c #0000A4",
"W. c #0001B4",
"Q. c #0637A4",
"!. c #133BAA",
"~. c #213398",
"^. c #5B0091",
"/. c #662E8A",
"(. c #483399",
"). c #0C41B7",
"_. c #0042AA",
"`. c #2145B5",
"'. c #4762BD",
"]. c #6B689B",
"[. c #0148CC",
"{. c #174DCB",
"}. c #104ED0",
"|. c #3357CA",
" X c #366ACD",
".X c #456CC7",
"XX c #AA2E89",
"oX c #8E2E89",
"OX c #8873B0",
"+X c #8C8886",
"@X c #959494",
"#X c #9C9B9D",
"$X c #958B8B",
"%X c #B49182",
"&X c #B49B9C",
"*X c #A7A09A",
"=X c #A7A5A3",
"-X c #BCBCBB",
";X c #B6BABA",
":X c #AEB0B0",
">X c #C49C8B",
",X c #D69785",
"<X c #C58585",
"1X c #E49783",
"2X c #D6AA98",
"3X c #D4A190",
"4X c #E9AB98",
"5X c #EDAD98",
"6X c #DDB4A2",
"7X c #C5B0AF",
"8X c #EAB8A5",
"9X c #F3B6A1",
"0X c #F3BAA5",
"qX c #F2A6A5",
"wX c #CED18D",
"eX c #DAC5BD",
"rX c #F2C1AD",
"tX c #F9C2AE",
"yX c #F6C5B1",
"uX c #F8C6B1",
"iX c #FACAB5",
"pX c #FACAB5",
"aX c #EFC9B8",
"sX c #C4C4C4",
"dX c #CCCCCC",
"fX c #CCCCC7",
"gX c #DDDDDC",
"hX c #D2D2D1",
"jX c #F5DACE",
"kX c #F2E3D9",
"lX c #DEF9F6",
"zX c #E7E7E5",
"xX c #FFE4E0",
"cX c #F1F2EF",
"vX c #FEFEFC",
"bX c #F6F7F4",
"nX c #E3F5F1",
"mX c None",
/* pixels */
"mXmXmXmXmXmXmXmXmXmXmXmXmXmXmXmXmXmXmXmXmXmXmXmXmXmXmXmXmXmXmXmXmXmXmXmXmX",
"mXmXmXmXmXmXmXmXmXmXmXmXmXmXmXmXmXmXmXmXmXmXmXmXmXmXmXmXmXmXmXmXmXmXmXmXmX",
"mXmXmXmXmXmXmXmXmXmXmXmXmXmXmXmXmXmXmXmXmXmXmXmXmXmXmXmXmXmXmXmXmXmXmXmXmX",
"mXmXmXmXmXmXmXmXmXmXmXmXmXmXmXmXmXmX+ q + @ @ mXmXmXmXmXmXmXmXmXmXmXmXmXmX",
"mXmXmXmXmXmXmXmXmXmXmXmXmXmXmXmXmXi f g g f i u mXmXmXmXmXmXmXmXmXmXmXmXmX",
"mXmXmXmXmXmXmXmXmXmXmXmXmXmX+ + y @.4.r.r.6.:.h , @ q mXmXmXmXmXmXmXmXmXmX",
"mXmXmXmXmXmXmXmXmXmXmXmXmXi g $.>.5.e.w.t.t.8.7.$.+.a mXmXmXmXmXmXmXmXmXmX",
"mXmXmXmXmXmXmXmXmXmXmXmX+ %.2.9.w.w.w.w.w.t.w.t.e.5.&.p mXmXmXmXmXmXmXmXmX",
"mXmXmXmXmXmXmXmXmXmXmXy %.4.e.w.w.w.w.w.w.w.t.q.i.qX:X]   mXmXmXmXmXmXmXmX",
"mXmXmXmXmXmXmXmXmXmX; #.2.9.w.w.w.w.w.w.w.w.w.q.u.xXnX..mXmXmXmXmXmXmXmXmX",
"mXmXmXmXmXmXmXmXmXl $.3.9.w.w.w.w.w.w.w.w.w.w.q.u.xXlX..mXmXmXmXmXmXmXmXmX",
"mXmXmXmXmXmXmXmX+ i *.8.w.w.w.w.w.w.w.w.w.w.w.q.i.qX7X]   mXmXmXmXmXmXmXmX",
"mXmXmXmXmXmXmXmXmXy =.6.w.w.w.w.w.w.w.w.t.t.t.0.:.p.1.g r , mXmXmXmXmXmXmX",
"mXmXmXmXmXmXmXmX# d *.3.6.e.w.w.t.t.e.6.4.4.6.6.6.0.0.8.7.@.g mXmXmXmXmXmX",
"mXmXmXmXmXu y y d o.-.2.:.6.w.w.w.w.6.*.s o.-.8.w.w.w.t.9.:.g , mXmXmXmXmX",
"mXmXmXmXl @.*.=.=.-.;.;.;.3.5.3.5.5.=.f @.3.e.0.5.&.%.$.#.d u # mXmXmXmXmX",
"mXmXmX+ i :.3.2.3.2.2.;.2.;.;.;.-.*.d @ o.2.8.3.$.m q , @ , 8 : mXmXmXmXmX",
"mXmXmXq f -.3.;.;.2.2.2.2.2.2.2.*.o.t $ % & r r u d.k.j 2 mXmXmXmXmXmXmXmX",
"mXmXmX, i O.;.2.+.o.o.o.o.+.&.2.-.t y N k.c.c.S < b.n.c I mXmXmXmXmXmXmXmX",
"mXmXmXmXy t +.;.<.b b e b c s *.&.y D n.F.1XJ.c.: S.D.M q mXmXmXmXmXmXmXmX",
"mXmXmXmXmXy t a S.2X2X2X2Xm.& a g ,.S.4X9X8X0XA.< 3X2Xx         mXmXmXmXmX",
"mXmXmXmXmXmX    >XiXrXtXpX%X    B z.3XuXyXpXpXS.- 2XrXm. .M.Z.M.mXmXmXmXmX",
"mXmXmXmXmXmXmXX >XuX1X3XyX%X    D V.4XrXpXyXpXA.  >XtX8XaXjXkXeX| mXmXmXmX",
"mXmXmXmXmXmXmXX S.9X5X5X5XB.    } 1XtXaX>X>X5X3XS.6XuXtXjXjXxXaX .  mXmXmX",
"mXmXmXmXmXmXmX* b.J.8X8XG.x.*   m.8XiX8X .p V.4XrXrXrXrXrXrXuX2X{   mXmXmX",
"mXmXmXmXmXmXmXmX} c.m.B.n.n.N.>X6XyX9X,X}   a.c.A.H.5XrXpXuX9XH.S   mXmXmX",
"mXmXmXmXmXmXmXmXY     & ,.V.1X9XyXrX5XH.j.    .   k.F.2X6X6XH.n.B mXmXmXmX",
"mXmXmXmXmXmXmXw ; - = % : n.1X1X4XrXpX8Xv.    o - c S { { { S B mXmXmXmXmX",
"mXmXmXmXmXmXmX> - - : o   j.n.n.F.4X9X5XN.j.V x               mXmXmXmXmXmX",
"mXmXmXmXmXmXmXmX9 - ; : - $ y j.n.F.G.G.G.V.z.,.- = - - w mXmXmXmXmXmXmXmX",
"mXmXmXmXmXmXmXmXmXmXmXe 8 O . k N d.x.C.J.J.V.V.N.D   mXmXmXmXmXmXmXmXmXmX",
"mXmXmXmXmXmXmXmXmXmXmXmXK J R H 4 1 v k.N.F.F.G.D.j.. mXmXmXmXmXmXmXmXmXmX",
"mXmXmXmXmXmXmXmXmXmXmXU ^ T.T.T.I.Q 0 k M B S D B mXmXmXmXmXmXmXmXmXmXmXmX",
"mXmXmXmXmXmXmXmXmXmX2 0 ( g.XXXXoXY.~ J > %   2 Y mXmXmXmXmXmXmXmXmXmXmXmX",
"mXmXmXmXmXmXmXmXmXmXq d >.6.t.q.h.(.Q.~.( a > ` mXmXmXmXmXmXmXmXmXmXmXmXmX",
"mXmXmXmXmXmXmXmXmXn #.:.0.w.q.q.6.g./.T.W.^.+.1.' mXmXmXmXmXmXmXmXmXmXmXmX",
"mXmXmXmXmXmXmXmX, i *.8.w.w.9.2.*.>.oXQ..XOXg.=.o mXmXmXmXmXmXmXmXmXmXmXmX",
"mXmXmXmXmXmXmXmXmXi &.6.w.9.2.+.( /.W.'.K.L.OXP.$ mXmXmXmXmXmXmXmXmXmXmXmX",
"mXmXmXmXmXmXmXmXmXi =.5.9.5.;.+.( E W..XwXwX XW.R Y mXmXmXmXmXmXmXmXmXmXmX",
"mXmXmXmXmXmXmXmXmXi :.3.2.;.;.2.&.& T.}.|.|.{.!.T.! 2 mXmXmXmXmXmXmXmXmXmX",
"mXmXmXmXmXmXmXmXmXy O.-.;.>.;.&.k.*X].W E E.[.{.).~ . mXmXmXmXmXmXmXmXmXmX",
"mXmXmXmXmXmXmXmXmX: t O.;.2.:.O.$XdX=XA Z X.`.}.{.U.  mXmXmXmXmXmXmXmXmXmX",
"mXmXmXmXmXmXmXmX; - # #.4.2.2.7X;X#XsXzXfX#XT E.}.U.  mXmXmXmXmXmXmXmXmXmX",
"mXmXmXmXmXmXmXmXmX= @ a *.l.<X7X;X#XgXvXnX-X .].!.^ 1 mXmXmXmXmXmXmXmXmXmX",
"mXmXmXmXmXmXmXmXmXmX8 r s &XdX=X#XsXzXvXgXsXfX#X7 3 G mXmXmXmXmXmXmXmXmXmX",
"mXmXmXmXmXmXmXmXmXmX6 > r @X-X:XsXzXbXvXcXzXgX*XX   mXmXmXmXmXmXmXmXmXmXmX",
"mXmXmXmXmXmXmXmXmXmXH 3 o ..#X-XzXbXvXvXvXcXdX@XX mXmXmXmXmXmXmXmXmXmXmXmX",
"mXmXmXmXmXmXmXmXmXmXmXmX4 * ..-XgXgXcXvXcXsX+X[ 3 mXmXmXmXmXmXmXmXmXmXmXmX",
"mXmXmXmXmXmXmXmXmXmXmXmXH O e #X-X;XgXcXdX$XX   I mXmXmXmXmXmXmXmXmXmXmXmX",
"mXmXmXmXmXmXmXmXmXmXmXmXG J / e ..@XsXhX+XX L H mXmXmXmXmXmXmXmXmXmXmXmXmX",
"mXmXmXmXmXmXmXmXmXmXmXmX5 ^ R.E L ..+X$X[   I mXmXmXmXmXmXmXmXmXmXmXmXmXmX",
"mXmXmXmXmXmXmXmXmXmXmXmX5 U.Q.Q.R.0 X X 3 U mXmXmXmXmXmXmXmXmXmXmXmXmXmXmX",
"mXmXmXmXmXmXmXmXmXmXmXU J Y.T.Q.T.R.W 1 mXmXmXmXmXmXmXmXmXmXmXmXmXmXmXmXmX",
"mXmXmXmXmXmXmXmXmXmX4 J ~ T.!.T.T.T.^ 4 mXmXmXmXmXmXmXmXmXmXmXmXmXmXmXmXmX",
"mXmXmXmXmXmXmXmXmXmX2 ! T.Q.T.Y.R J F F 2 e mXmXmXmXmXmXmXmXmXmXmXmXmXmXmX",
"mXmXmXmXmXmXmXmXmXmX4 ! R.I.~ ! L n C ) ,.N _ mXmXmXmXmXmXmXmXmXmXmXmXmXmX",
"mXmXmXmXmXmXmXmXmXmX5 K Q K 6 G n C ,.f.l.s.x mXmXmXmXmXmXmXmXmXmXmXmXmXmX",
"mXmXmXmXmXmXmXmXmXmXG K K P x m C V ,.s.s.,.x @ mXmXmXmXmXmXmXmXmXmXmXmXmX",
"mXmXmXmXmXmXmXmXmXmX6 6 6 w c C N M M M M m : < mXmXmXmXmXmXmXmXmXmXmXmXmX",
"mXmXmXmXmXmXmXmXmXmX9 9 9 9 z j z z z z j j w ; mXmXmXmXmXmXmXmXmXmXmXmXmX",
"mXmXmXmXmXmXmXmXmXmXmX: : ; ; * * * * * * * ; mXmXmXmXmXmXmXmXmXmXmXmXmXmX",
"mXmXmXmXmXmXmXmXmXmXmXmXmXmXmXmXmXmXmXmXmXmXmXmXmXmXmXmXmXmXmXmXmXmXmXmXmX",
"mXmXmXmXmXmXmXmXmXmXmXmXmXmXmXmXmXmXmXmXmXmXmXmXmXmXmXmXmXmXmXmXmXmXmXmXmX",
"mXmXmXmXmXmXmXmXmXmXmXmXmXmXmXmXmXmXmXmXmXmXmXmXmXmXmXmXmXmXmXmXmXmXmXmXmX"
};
