/* XPM */
static char *result[] = {
/* columns rows colors chars-per-pixel */
"37 64 236 2 ",
"   c #000000",
".  c #0C0000",
"X  c #190403",
"o  c #00001B",
"O  c #001D1B",
"+  c #041B17",
"@  c #181415",
"#  c #270404",
"$  c #3D0000",
"%  c #281818",
"&  c #341A16",
"*  c #321B1B",
"=  c #391A17",
"-  c #2D100B",
";  c #00221E",
":  c #2F211D",
">  c #04062A",
",  c #051428",
"<  c #000A39",
"1  c #041638",
"2  c #191630",
"3  c #291C26",
"4  c #371C25",
"5  c #221938",
"6  c #35102C",
"7  c #002628",
"8  c #002031",
"9  c #3A2225",
"0  c #302939",
"q  c #470101",
"w  c #570404",
"e  c #561108",
"r  c #411E1E",
"t  c #4B1816",
"y  c #571916",
"u  c #690504",
"i  c #7B0002",
"p  c #730000",
"a  c #691817",
"s  c #771615",
"d  c #70110D",
"f  c #46221F",
"g  c #592800",
"h  c #4B1D2F",
"j  c #760322",
"k  c #442223",
"l  c #4D2324",
"z  c #4E2629",
"x  c #47282A",
"c  c #522624",
"v  c #5D2C2A",
"b  c #552B28",
"n  c #592837",
"m  c #433933",
"M  c #562E31",
"N  c #652D28",
"B  c #67332B",
"V  c #75352D",
"C  c #7B392B",
"Z  c #653B31",
"A  c #783734",
"S  c #632E33",
"D  c #5F4338",
"F  c #6A433A",
"G  c #6A453A",
"H  c #79463D",
"J  c #021342",
"K  c #01194E",
"L  c #061947",
"P  c #000158",
"I  c #031B55",
"U  c #001B5C",
"Y  c #061955",
"T  c #0D1349",
"R  c #042648",
"E  c #052259",
"W  c #19284F",
"Q  c #2C224A",
"!  c #29374B",
"~  c #363B4D",
"^  c #00006D",
"/  c #011E62",
"(  c #03236B",
")  c #092466",
"_  c #042573",
"`  c #042978",
"'  c #1C2D6F",
"]  c #262B74",
"[  c #64195A",
"{  c #4A2543",
"}  c #581E61",
"|  c #7F1F63",
" . c #4B236F",
".. c #742471",
"X. c #37495C",
"o. c #4F474E",
"O. c #674F4A",
"+. c #6D5249",
"@. c #77534C",
"#. c #77625B",
"$. c #6B635B",
"%. c #726E6C",
"&. c #850001",
"*. c #880909",
"=. c #950102",
"-. c #980A0C",
";. c #951511",
":. c #A40203",
">. c #AC0104",
",. c #A7090B",
"<. c #B40103",
"1. c #BC0104",
"2. c #B7070A",
"3. c #B5110F",
"4. c #A43D19",
"5. c #863A2E",
"6. c #873C32",
"7. c #8D2924",
"8. c #B83535",
"9. c #B50B32",
"0. c #C30002",
"q. c #CB0103",
"w. c #C80609",
"e. c #D40305",
"r. c #DB0508",
"t. c #C21212",
"y. c #DF1012",
"u. c #E30103",
"i. c #EB0708",
"p. c #FE0200",
"a. c #FD0D0E",
"s. c #F70707",
"d. c #EC1110",
"f. c #FD1111",
"g. c #C23A39",
"h. c #F53333",
"j. c #85453E",
"k. c #964337",
"l. c #8A513C",
"z. c #A7493D",
"x. c #B04D3F",
"c. c #9B1E64",
"v. c #8D287C",
"b. c #BF2877",
"n. c #901046",
"m. c #C61241",
"M. c #875448",
"N. c #974F47",
"B. c #A95D50",
"V. c #A85B4F",
"C. c #956355",
"Z. c #84675C",
"A. c #A76456",
"S. c #BB6A5C",
"D. c #B3695C",
"F. c #815E7D",
"G. c #967468",
"H. c #8F7875",
"J. c #B87666",
"K. c #A97B6E",
"L. c #FE4342",
"P. c #C77969",
"I. c #C5716B",
"U. c #C35367",
"Y. c #94827B",
"T. c #A98475",
"R. c #B8897B",
"E. c #CD8370",
"W. c #D38573",
"Q. c #D88B78",
"!. c #DA927E",
"~. c #E3917E",
"^. c #032E8B",
"/. c #062C84",
"(. c #002A91",
"). c #083193",
"_. c #01349D",
"`. c #09359C",
"'. c #063093",
"]. c #11348F",
"[. c #25308B",
"{. c #0336A2",
"}. c #0936A1",
"|. c #0639A8",
" X c #313AA8",
".X c #722D90",
"XX c #553090",
"oX c #1040B7",
"OX c #7F7C83",
"+X c #6A4CB7",
"@X c #134BCB",
"#X c #AB2E89",
"$X c #848283",
"%X c #989594",
"&X c #9F8F8E",
"*X c #B49182",
"=X c #A39C95",
"-X c #A9A8A9",
";X c #ABB0B0",
":X c #B8B8B8",
">X c #C49B8B",
",X c #D49886",
"<X c #C39A9A",
"1X c #E49783",
"2X c #D6A998",
"3X c #D4A190",
"4X c #E9AB98",
"5X c #EDAD99",
"6X c #DDB4A1",
"7X c #CAB9B8",
"8X c #C8A6A6",
"9X c #EAB8A5",
"0X c #F3B6A1",
"qX c #F5B8A8",
"wX c #DCC7BF",
"eX c #F2C1AD",
"rX c #F9C3AE",
"tX c #F6C5B1",
"yX c #FACAB5",
"uX c #F8C7B4",
"iX c #EFC8B8",
"pX c #BEC5C5",
"aX c #C9CBCA",
"sX c #D4D5D4",
"dX c #DEDFDD",
"fX c #D2CECC",
"gX c #F5DACE",
"hX c #DFE0DF",
"jX c #FBE3D8",
"kX c #E7E8E6",
"lX c #FFEBE8",
"zX c #F1F2EF",
"xX c #FDFEFA",
"cX c #F7F7F4",
"vX c #E9F9F5",
"bX c None",
/* pixels */
"bXbXbXbXbXbXbXbXbXbXbXbXbXbXbXbXbXbXbXbXbXbXbXbXbXbXbXbXbXbXbXbXbXbXbXbXbX",
"bXbXbXbXbXbXbXbXbXbXbXbXbXbXbXbXbXbXbXbXbXbXbXbXbXbXbXbXbXbXbXbXbXbXbXbXbX",
"bXbXbXbXbXbXbXbXbXbXbXbXbXbXbXbXbXbXbXbXbXbXbXbXbXbXbXbXbXbXbXbXbXbXbXbXbX",
"bXbXbXbXbXbXbXbXbXbXbXbXbXbXbXbXbXbXO ; O O + bXbXbXbXbXbXbXbXbXbXbXbXbXbX",
"bXbXbXbXbXbXbXbXbXbXbXbXbXbXbXbXbXy a s s a y l bXbXbXbXbXbXbXbXbXbXbXbXbX",
"bXbXbXbXbXbXbXbXbXbXbXbXbXbX+ ; t -.w.d.d.y.<.s ; O O bXbXbXbXbXbXbXbXbXbX",
"bXbXbXbXbXbXbXbXbXbXbXbXbXa s ;.3.r.s.a.a.a.u.t.-.&.p bXbXbXbXbXbXbXbXbXbX",
"bXbXbXbXbXbXbXbXbXbXbXbX, *.0.i.a.s.a.a.a.a.a.f.a.e.=.e bXbXbXbXbXbXbXbXbX",
"bXbXbXbXbXbXbXbXbXbXbXt ;.w.i.a.a.f.a.a.a.a.a.p.h.qX7XO.  bXbXbXbXbXbXbXbX",
"bXbXbXbXbXbXbXbXbXbX: *.1.i.a.a.a.a.a.a.a.a.a.p.L.jXvX%.bXbXbXbXbXbXbXbXbX",
"bXbXbXbXbXbXbXbXbXc -.w.i.a.a.a.a.a.a.a.a.a.a.p.L.lXvX%.bXbXbXbXbXbXbXbXbX",
"bXbXbXbXbXbXbXbX; y >.u.a.a.a.a.a.a.a.a.a.a.a.s.h.qXfX$.  bXbXbXbXbXbXbXbX",
"bXbXbXbXbXbXbXbXbXt ,.r.a.f.a.a.a.a.a.f.a.a.f.u.3.g.8.s q ; bXbXbXbXbXbXbX",
"bXbXbXbXbXbXbXbX@ d >.q.r.a.a.a.a.a.i.u.w.w.r.y.r.u.u.r.t.-.s bXbXbXbXbXbX",
"bXbXbXbXbXt t t d &.<.0.<.r.f.a.a.a.r.>.i &.2.u.a.f.f.f.u.<.s ; bXbXbXbXbX",
"bXbXbXbXy ,.,.,.>.<.1.1.1.w.e.q.e.r.,.a -.w.s.i.e.:.*.;.;.d t % bXbXbXbXbX",
"bXbXbX; y <.q.q.0.0.0.0.0.1.<.<.<.<.d + &.1.u.q.;.N 7 O O 7 3 & bXbXbXbXbX",
"bXbXbX7 a <.q.1.0.0.0.0.0.0.0.0.<.&.w @ # $ q q y l.N.f 7 bXbXbXbXbXbXbXbX",
"bXbXbX7 t -.<.0.,.i &.*.&.&.,.0.>.w t V N.C.C.F % A.S.b R bXbXbXbXbXbXbXbX",
"bXbXbXbX= w =.1.7.0 m 0 D f i >.>.t H D.W.1X!.A.& E.E.D 1 bXbXbXbXbXbXbXbX",
"bXbXbXbXbXt w p T.2X2X2X2XG.$ u s 5.R.4X9X0X0XT.= 3X2Xb         bXbXbXbXbX",
"bXbXbXbXbXbX    >XyXrXrXyX*X    S B.3XyXtXtXyXR.% 2X9XG.#.H.Y.H.bXbXbXbXbX",
"bXbXbXbXbXbXbXX >XiX,X4XtX*X    H P.4XeXtXtXyXT.  >XtX9XiXgXjXfX#.bXbXbXbX",
"bXbXbXbXbXbXbXX E.5X5X4X4XK.    @.4XeXtX>X>X9X3X*X6XuXuXyXgXjXiX#.  bXbXbX",
"bXbXbXbXbXbXbX% V.~.9X9XQ.V.#   G.9XyX9X#.w P.4XeX9XeXeXeXeXtX2XO.  bXbXbX",
"bXbXbXbXbXbXbXbX@.M.G.K.S.S.J.>X2XeX0X,X+.  l.C.T.,X5XrXyXrX0X!.G   bXbXbX",
"bXbXbXbXbXbXbXbX8     $ j.I.1X0XtXeX5XQ.M.        N.Q.2X6X6X!.D.Z bXbXbXbX",
"bXbXbXbXbXbXbX9 * % - # r D.~.~.4XeXyX9XZ.    X & b F +.+.+.G Z bXbXbXbXbX",
"bXbXbXbXbXbXbX* * = & X   M.J.S.W.4X0X4XJ.M.A l               bXbXbXbXbXbX",
"bXbXbXbXbXbXbXbX9 & & & : X r j.S.W.Q.W.~.P.D.6.% & & & bXbXbXbXbXbXbXbXbX",
"bXbXbXbXbXbXbXbXbXbXbX~ 5 o   g H l.V.I.Q.1XW.P.J.H   bXbXbXbXbXbXbXbXbXbX",
"bXbXbXbXbXbXbXbXbXbXbXbXK I / I > > v N.J.P.W.W.E.M.  bXbXbXbXbXbXbXbXbXbX",
"bXbXbXbXbXbXbXbXbXbXW E ) ` _._.^._ Q g B F F F Z bXbXbXbXbXbXbXbXbXbXbXbX",
"bXbXbXbXbXbXbXbXbXbX, E /..X#X#Xv.|  ./ % $   > R bXbXbXbXbXbXbXbXbXbXbXbX",
"bXbXbXbXbXbXbXbXbXbX1 ( `.b.p.a.s.q...{.[ u - X.bXbXbXbXbXbXbXbXbXbXbXbXbX",
"bXbXbXbXbXbXbXbXbXE E } c.m.u.p.p.q.n. . X.X=.&.X.bXbXbXbXbXbXbXbXbXbXbXbX",
"bXbXbXbXbXbXbXbX1 K _ ..9.1.1.i.i.w.:.j  X+XU.4.. bXbXbXbXbXbXbXbXbXbXbXbX",
"bXbXbXbXbXbXbXbXbXY ^.[.XXc.q.q.0.1.1.<.j %.7X&X      bXbXbXbXbXbXbXbXbXbX",
"bXbXbXbXbXbXbXbXbXI ).|.|...<.<.1.1.0.0.B.=X:X:X%X&X%.bXbXbXbXbXbXbXbXbXbX",
"bXbXbXbXbXbXbXbXbXI '.|.{. .&.<.0.1.0.8.7XpX%XaXxXkX:Xo.  bXbXbXbXbXbXbXbX",
"bXbXbXbXbXbXbXbX, I ).|.{.' w <.q.0.I.8X:X;X-XdXxXkXwX-XOX3 bXbXbXbXbXbXbX",
"bXbXbXbXbXbXbXbX, Y ^.}._._ h ,.1.<.<XaX-X-XfXkXxXhXaXsX-X# bXbXbXbXbXbXbX",
"bXbXbXbXbXbXbXbX1 L _ '.`._.[.n i &.H.;X:XsXzXxXxXxXzXdX-X# bXbXbXbXbXbXbX",
"bXbXbXbXbXbXbXbXL J K ` `.|._.` 5 w O.H.:XhXzXxXxXxXkXpX$X0 bXbXbXbXbXbXbX",
"bXbXbXbXbXbXbXbXW J > ) `.}.`.{.[.4 X O.:XsXsXkXxXkX:X$.5 bXbXbXbXbXbXbXbX",
"bXbXbXbXbXbX0 bX1 K ( ^.`.}.}.{.'.' ^ ] OX%X;XsXkX:X%.# > bXbXbXbXbXbXbXbX",
"bXbXbXbXbX9 6 L 1 I ).}.`.`.`.`._.{.|._.P m $X;XpX%.  J ' bXbXbXbXbXbXbXbX",
"bXbXbXbX9 l M x 6 U '.}.`.^./.`.|.}.}.}.(.] o.$.%. .^ ^./.W bXbXbXbXbXbXbX",
"bXbXbX* k b v N k U '.|.|.]./ /.).).`.}.}./.>   o P ].`./.< ! bXbXbXbXbXbX",
"bXbXbX* 9 z N V l Y '.|.@X}.< J U _ ).}.^.) T Y ) _ ` _ ( J , % % ! bXbXbX",
"bXbXbXbX9 9 v C N { ' (.|.[.! ! W E _ /.) I J U ` ( U U Q n A 5.5.A ~ bXbX",
"bXbXbXbXbX3 c V 5.A 6 J 1 bXbXbXbXL 1 1 1 J J / ( Y 2 J h C z.x.V.6.* bXbX",
"bXbXbXbXbX% c V 8.6.{ K bXbXbXbXbXbXbXbXbXbXbX) Y Q z S V A 6.k.6.V = bXbX",
"bXbXbXbXbX3 c V k.V.n R bXbXbXbXbXbXbXbXbXbXbXbX5 l N V V B B N V v 4 bXbX",
"bXbXbXbXbX% z V z.z.N 8 bXbXbXbXbXbXbXbXbXbXbXbX* z v v c r 4 k f x bXbXbX",
"bXbXbXbXbXbXz v C 6.S bXbXbXbXbXbXbXbXbXbXbXbXbXr x x l k bXbXbX@ bXbXbXbX",
"bXbXbXbXbXbXbX* % 9 bXbXbXbXbXbXbXbXbXbXbXbXbXbXbX4 * * bXbXbXbXbXbXbXbXbX",
"bXbXbXbXbXbXbXbXbXbXbXbXbXbXbXbXbXbXbXbXbXbXbXbXbXbXbXbXbXbXbXbXbXbXbXbXbX",
"bXbXbXbXbXbXbXbXbXbXbXbXbXbXbXbXbXbXbXbXbXbXbXbXbXbXbXbXbXbXbXbXbXbXbXbXbX",
"bXbXbXbXbXbXbXbXbXbXbXbXbXbXbXbXbXbXbXbXbXbXbXbXbXbXbXbXbXbXbXbXbXbXbXbXbX",
"bXbXbXbXbXbXbXbXbXbXbXbXbXbXbXbXbXbXbXbXbXbXbXbXbXbXbXbXbXbXbXbXbXbXbXbXbX",
"bXbXbXbXbXbXbXbXbXbXbXbXbXbXbXbXbXbXbXbXbXbXbXbXbXbXbXbXbXbXbXbXbXbXbXbXbX",
"bXbXbXbXbXbXbXbXbXbXbXbXbXbXbXbXbXbXbXbXbXbXbXbXbXbXbXbXbXbXbXbXbXbXbXbXbX",
"bXbXbXbXbXbXbXbXbXbXbXbXbXbXbXbXbXbXbXbXbXbXbXbXbXbXbXbXbXbXbXbXbXbXbXbXbX"
};
