/* XPM */
static char *result[] = {
/* columns rows colors chars-per-pixel */
"64 60 234 2 ",
"   c #000019",
".  c #000D18",
"X  c #080014",
"o  c #130014",
"O  c #1A0014",
"+  c #170018",
"@  c #190019",
"#  c #180D18",
"$  c #160C18",
"%  c #001419",
"&  c #071919",
"*  c #181418",
"=  c #181B18",
"-  c #141617",
";  c #2E000F",
":  c #230014",
">  c #2D0012",
",  c #260318",
"<  c #340013",
"1  c #380010",
"2  c #331115",
"3  c #103C0E",
"4  c #02261B",
"5  c #182B17",
"6  c #192319",
"7  c #1A2C1B",
"8  c #162716",
"9  c #053C1C",
"0  c #183417",
"q  c #153C14",
"w  c #183B17",
"e  c #183618",
"r  c #372618",
"t  c #2B361C",
"y  c #103E21",
"u  c #47000E",
"i  c #53000D",
"p  c #5C000C",
"a  c #5B0B0F",
"s  c #470112",
"d  c #530213",
"f  c #591C11",
"g  c #66050C",
"h  c #69160C",
"j  c #6D190C",
"k  c #5C3115",
"l  c #4F2B15",
"z  c #74240C",
"x  c #7D2C0B",
"c  c #77290C",
"v  c #7B360E",
"b  c #683513",
"n  c #783A12",
"m  c #6B270F",
"M  c #11470E",
"N  c #0F540A",
"B  c #12560E",
"V  c #06461C",
"C  c #164414",
"Z  c #184416",
"A  c #174D14",
"S  c #184D15",
"D  c #1D481B",
"F  c #00551A",
"G  c #185215",
"H  c #165C13",
"J  c #195C15",
"K  c #195616",
"L  c #0A4A03",
"P  c #25511F",
"I  c #0A6402",
"U  c #146B0D",
"Y  c #097000",
"T  c #14750C",
"R  c #167C0E",
"E  c #176413",
"W  c #176B12",
"Q  c #186716",
"!  c #177411",
"~  c #197313",
"^  c #177C10",
"/  c #197B13",
"(  c #1D7118",
")  c #0C7810",
"_  c #22671F",
"`  c #227A1E",
"'  c #184821",
"]  c #035A23",
"[  c #0A5023",
"{  c #224A20",
"}  c #245C22",
"|  c #235422",
" . c #006927",
".. c #187627",
"X. c #1A6B26",
"o. c #2A6C26",
"O. c #256A26",
"+. c #267726",
"@. c #396F25",
"#. c #54571D",
"$. c #4E501D",
"%. c #674817",
"&. c #714013",
"*. c #4E6B23",
"=. c #4F5F20",
"-. c #802D09",
";. c #843502",
":. c #8A3B05",
">. c #843509",
",. c #83390C",
"<. c #8B3C09",
"1. c #873805",
"2. c #913E04",
"3. c #913F09",
"4. c #8B3E10",
"5. c #954106",
"6. c #93420B",
"7. c #99470D",
"8. c #9B490F",
"9. c #9A4404",
"0. c #9C4B11",
"q. c #924916",
"w. c #8F410D",
"e. c #A24D0E",
"r. c #AA530E",
"t. c #A24E12",
"y. c #A55215",
"u. c #AA5616",
"i. c #AD5917",
"p. c #AB5719",
"a. c #AE5A19",
"s. c #B25C16",
"d. c #B25D19",
"f. c #B95F1A",
"g. c #B6611A",
"h. c #BB631A",
"j. c #BF6819",
"k. c #C3651C",
"l. c #C36B1A",
"z. c #CA6E1B",
"x. c #C26815",
"c. c #CC731A",
"v. c #D1761B",
"b. c #D57A1A",
"n. c #D97E1A",
"m. c #038503",
"M. c #17840E",
"N. c #178B0D",
"B. c #188C0F",
"V. c #128803",
"C. c #149C03",
"Z. c #17920C",
"A. c #18940E",
"S. c #179A0A",
"D. c #199C0D",
"F. c #139204",
"G. c #1A8514",
"H. c #0F9812",
"J. c #24991C",
"K. c #0EA900",
"L. c #15A401",
"P. c #14AC00",
"I. c #18A80A",
"U. c #0CBC00",
"Y. c #14B400",
"T. c #14BC00",
"R. c #19B808",
"E. c #1CA910",
"W. c #21A518",
"Q. c #22B917",
"!. c #188C28",
"~. c #14962D",
"^. c #29872A",
"/. c #289728",
"(. c #33962D",
"). c #299931",
"_. c #349C31",
"`. c #37872C",
"'. c #29A628",
"]. c #2DB726",
"[. c #32B82A",
"{. c #36A131",
"}. c #38A834",
"|. c #38B734",
" X c #2FAB32",
".X c #13A528",
"XX c #448C2C",
"oX c #41B034",
"OX c #14C100",
"+X c #1AC403",
"@X c #1ACB01",
"#X c #1ECE0C",
"$X c #15C902",
"%X c #1FD30C",
"&X c #1BD800",
"*X c #0CC300",
"=X c #20D00F",
"-X c #25C919",
";X c #2AD51E",
":X c #29DB1C",
">X c #24D515",
",X c #2CE71E",
"<X c #2DCC25",
"1X c #34CB2C",
"2X c #2EDA23",
"3X c #30DF25",
"4X c #34DA2A",
"5X c #37D62E",
"6X c #3CC537",
"7X c #3DD235",
"8X c #3DDC34",
"9X c #3BD639",
"0X c #2FE123",
"qX c #39E12F",
"wX c #33E328",
"eX c #3CE433",
"rX c #3EEB35",
"tX c #3EF534",
"yX c #41CB3A",
"uX c #44D33D",
"iX c #44DA3D",
"pX c #40EE37",
"aX c #44E53C",
"sX c #46EB3E",
"dX c #43E83A",
"fX c #42F238",
"gX c #48EE40",
"hX c #49E641",
"jX c #4AF241",
"kX c #4CFC44",
"lX c #DC811A",
"zX c #E1831B",
"xX c #EA891C",
"cX c None",
/* pixels */
"cXcXcXcX@ @ @ @ @ @ o o o o o o o o o o X o o o X o o o o @ @ @ @ @ @ @ @ @ @ + @ + + o X o o o o o X o o o o o o @ @ @ cXcXcXcX",
"cXcXcXcX@ @ @ @ @ @ + o o o o o + @ o o o o o o O o o o @ @ O @ @ @ @ @ + @ @ @ O @ + + o o o O o o o o @ O o o + @ O $ cXcXcXcX",
"cXcXcXcXG G S Z w w D | } O.} } } } } } } } } } } _ J P { w w Z A S G G G S C Z q w D | } O.} } } } } } } } } } | D w 0 cXcXcXcX",
"cXcXcXcXN.V.M.Y N J +.(._.{.{.{._.{._._.{.{.{._._.}.{.(.+.E N I T V.N.V.N.V.T I N J +.(.{.{.{._.{.{.{.{._.}.}._.^.` B L cXcXcXcX",
"cXcXcXcXT.Y.P.m.Y / /.|.uXiXiXuXuXuXuXuXuXuXuXuXiXiXuX6X'./ Y Y C.Y.T.T.T.Y.C.m.Y / /.|.uXiXiXuXyXuXyXuXuXiXiXyX[./.R I cXcXcXcX",
"cXcXcXcX%X%X#XP.A.W.[.iXsXsXgXsXsXsXsXsXsXsXsXsXgXjXsXiX[.J.Z.L.R.#X=X=X%X#XR.L.Z.J.[.8XhXgXgXgXsXdXsXsXsXsXsXaX8X[.D.V.cXcXcXcX",
"cXcXcXcX0X0XwX<X].[.1X8XpXpXpXpXrXrXpXrXdXrXpXrXdXpXdX8X5X].].Q.<X2X0X0X0X2X<X<X].].1X8XrXfXrXrXpXpXpXpXpXpXpXdX8X5X].W.cXcXcXcX",
"cXcXcXcXrXrXfXiXyX7X5X4X3X0X3X3X3X3X3X3X3X3X3X3X3X3X3X4X5XyXyXuX8XeXeXpXeXeX8X7X7X7X7X4X3X0X3X3X0X3X0X3X3XwX0X3XqXeXiXyXcXcXcXcX",
"cXcXcXcXhXgXkXjXaXaX5X2X=X@X=X=X=X=X=X=X=X=X=X=X#X$X#X;X4XiXhXhXsXaXsXaXsXsXsXhXhXiX4X;X%X@X#X%X=X=X=X=X#X#X@X-XwXfXsXhXcXcXcXcX",
"cXcXcXcXsXgXkXfXdXdX4X=XT.U.T.OXOXT.T.OXT.OXOXOXOX*X$X>X3XdXsXsXsXsXaXaXdXdXsXsXsXaX4X-XT.U.U.OXT.OXT.OXOX*XU.+X2XfXsXfXcXcXcXcX",
"cXcXcXcX8XqXtXrXqX4X<XQ.P.K.K.P.P.P.P.P.P.P.P.P.T.U.$X%X:X4XqXeXqX8X8XqXqXqXqXeXeX4X<XQ.P.K.K.P.P.P.P.P.P.K.K.R.-XwXrXrXcXcXcXcX",
"cXcXcXcX:X:X,X,X:X>XQ.E.S.F.Z.S.S.S.S.S.S.A.Z.D.P.OX@X%X>X:X:X;X;X>X:X;X:X:X:X:X:X>XQ.I.S.Z.Z.S.S.S.S.C.Z.Z.N.I.Q.:X:X:XcXcXcXcX",
"cXcXcXcX@X@X&X&X@XOXI.S.M.M.M.M.N.M.B.M.M.M.M.Z.E.R.+X@X@X@X@X@X@X@X$X@X$X+X$X@X@X+XI.S.N.M.M.N.B.M.B.M.M.M.M.B.I.+X@X@XcXcXcXcX",
"cXcXcXcXT.T.$X$XT.Y.L.Z.M.M.^ M.M.M.M.M.M.R M.N.D.I.R.R.T.Y.Y.Y.T.Y.Y.P.P.L.P.Y.Y.Y.L.Z.M.^ ^ M.M.M.M.B.M.M.R N.I.T.T.T.cXcXcXcX",
"cXcXcXcXL.L.Y.P.P.L.S.N.M.M.M.M.M.M.M.M.M.B.B.N.S.D.E.I.I.L.L.L.L.L.C.N.R T M.Z.L.L.S.N.M.M.M.M.N.N.N.N.N.M.M.M.S.I.L.L.cXcXcXcX",
"cXcXcXcXA.A.D.S.A.A.Z.B.N.N.N.B.N.N.B.N.N.N.B.Z.B.N.A.Z.A.Z.N.N.Z.A.M.W C w G ~ N.Z.Z.N.N.N.N.N.N.N.N.N.B.N.N.B.A.D.A.A.cXcXcXcX",
"cXcXcXcXM.M.B.G.^ ^ R M.B.B.B.N.N.B.N.N.N.M.R ^ M.M.M.M.M.M.M.N.N.N.! A * @ 5 H R B.N.N.B.N.N.N.M.M.M.M.M.M.M.B.B.A.M.M.cXcXcXcX",
"cXcXcXcXN.N.G.~ H E W R M.B.N.N.Z.N.N.N.M.~ W E W ! M.N.N.N.N.B.N.M.W A # @ 5 H R N.Z.B.N.N.N.N.M.! W E W ^ M.B.A.A.B.B.cXcXcXcX",
"cXcXcXcXB.B.^ E Z Z H ! M.B.N.Z.Z.Z.N.N.^ E Z Z J ! N.N.N.N.N.Z.N.M.~ G 8 # w E G.N.Z.Z.Z.Z.B.B.R E S Z G W M.Z.A.D.A.A.cXcXcXcX",
"cXcXcXcXA.B./ S = 8 G ! B.Z.N.N.B.B.Z.B.~ G 8 = S W N.N.N.N.N.N.Z.N.^ J 0 = Z E M.Z.N.N.N.B.B.A.M.E w * 0 J R B.A.D.B.M.cXcXcXcX",
"cXcXcXcXZ.B.~ Z @ = H N.C.S.N.~ ~ ^ M.N.~ S * @ Z W B.B.M.! ~ M.S.C.Z.W w = w W M.B.M.~ ! M.Z.C.Z.~ w @ 8 J ^ B.B.M.^ ~ cXcXcXcX",
"cXcXcXcXZ.B./ Z @ 0 T C.Y.L.M.J G E ^ M.T S = * S ! N.M.W K J ^ C.Y.L.M.Z * 0 E R M.! J K ! C.P.P.N.G @ 6 J R M.G.~ G S cXcXcXcX",
"cXcXcXcXZ.B./ Z # w M.P.$XP.G.D 5 G ~ N.! G 8 6 G ! M.M.H 0 w ~ L.OXT.N.S * 0 E M.R E 0 7 E S.OXT.C.E = 8 H R M.~ K 0 = cXcXcXcX",
"cXcXcXcXA.B./ Z $ D G.-X>XQ.G.7 + A R Z.N.E 5 = S ! B.R G @ = ( Q.-X=XJ.G * q ! Z.N.E 6 @ E W.-X-XW.Q = 5 W B.A./ G # @ cXcXcXcX",
"cXcXcXcXZ.M.~ q + D /.2XwX1X^.e o H F.L.S.W 0 = Z ! Z.^ A o = ` ].wX4X'.| # M V.L.L.T 8 + _ ].4X4X].O.= 3 T L.L.B.J # @ cXcXcXcX",
"cXcXcXcXN.M.~ q o D (.8XaX9X^.w - I L.T.L.^ w * Z ! N.M.B X 7 ^.6XdXeX}.} - N F.Y.R.V.3 * O.|.aXdX|.o.= 3 V.Y.Y.S.Q 6 @ cXcXcXcX",
"cXcXcXcXA.B.! 3 o { _.uXhXyX`.e 8 T R.+XR.G.Z * Z ! N.R N $ 7 `.6XsXiX}.| = B L.+X+XZ.M = o.|.iXiX|.o.= M Z.$X$XE.~ 8 @ cXcXcXcX",
"cXcXcXcXL.S.N.B - t ^.|.yX|.+.7 0 G.-X2X-XJ.Z + q ! N.R B 6 7 o.}.6X|.^.{ & ( W.;X;XW.G * | (.6X6X_.' & H W.<X2XQ.^.7 @ cXcXcXcX",
"cXcXcXcXT.Y.C.E 5 6 | ^.~...V   9 !.1XrX5X/.D + q U M.^ H 5 = ' ..^.!.X.% 4 ..].qXeX]._ * 7 X.^.^.X.4 . Q '.eXeX1X^.5 o cXcXcXcX",
"cXcXcXcX$XOXR.~ e + = y [ 9     V /.7XsXiX_.{ o 3 U M.! H 0 * = y V 9 %   4 ^.1XsXaX|.o.* X 8 V V 4   . X.|.rXhXyX^.5 o cXcXcXcX",
"cXcXcXcX>X>X-XG.w + O > > < > < P _.yXiX6X(.{ $ M R Z.N.W C @ : , > > > < t @.|.iXuX XO.$ + : > > > > 2 @.oXuXiX|.+.7 o cXcXcXcX",
"cXcXcXcXtXwX<XH.V + < u d p p a %.*.oX}.).+.7 6 B F.L.C.) V O < s d p p p k *.XX}. X!.] . : 1 i p p p k #.XX}. X).o.6 o cXcXcXcX",
"cXcXcXcXfXfX5X~.V O s h c x x v n #.@.X. .9 $ 0 W C.T.K.m.V @ s h c x -.-.n %.*.X. .] 9 . < f z x x -.v %.=.o. . .V = + cXcXcXcX",
"cXcXcXcXkXhX9X).9 > p x 5.5.5.5.,.b l =     + 0 M.R.#XU.H.F , d m 4.3.9.6.<.n l r & . % * l b ,.w.5.5.<.n m r % % - = = cXcXcXcX",
"cXcXcXcX9XyXoX`.t p h ;.5.9.9.9.1.z p u , : + V G.<X2X-XH.] : d z <.9.9.9.2.c g u 1 < 2 l m n <.5.9.9.5.>.h i < , @ - % cXcXcXcX",
"cXcXcXcX~.).`.*.b c x 1.,.5.5.5.1.-.z g i < o 9 !.<XeX1X.X] o s z 4.9.5.2.:.-.z h h f m k b v <.:.5.5.<.1.x j g s 2 . . cXcXcXcX",
"cXcXcXcX[ ' $.%.&.<.:.<.w.w.,.,.:.<.1.>.m d O V ~.9XaX9X'.] X u z >.5.2.3.<.>.>.v ,.,.,.,.,.&.w.:.:.<.<.<.<.<.v m r .   cXcXcXcX",
"cXcXcXcXX < d c <.7.5.6.w.w.5.w.6.6.7.6.>.g s t ^.|.iX9X_.} < p z <.6.6.6.6.6.6.5.5.5.<.5.5.5.w.6.6.w.w.6.5.5.<.n b r = cXcXcXcX",
"cXcXcXcXu p g -.1.5.7.8.0.0.0.0.t.e.y.e.6.x a $.*._.|.}.`.$.f h x ,.6.6.8.0.8.6.5.:.:.5.5.w.7.8.0.0.0.0.7.6.5.6.4.4.b %.cXcXcXcX",
"cXcXcXcXh j -.;.1.6.8.y.y.p.i.y.u.u.i.u.t.4.>.b $.o...O.=.&.v x >.1.6.8.y.y.y.8.5.1.1.1.:.6.0.0.y.y.y.y.0.7.<.<.q.q.q.q.cXcXcXcX",
"cXcXcXcX4.3.9.<.w.w.0.u.d.d.d.d.s.s.d.d.p.t.6.,.b r 6 r k v w.5.:.<.6.y.a.a.u.0.w.w.1.1.w.q.t.u.d.g.d.a.y.8.w.w.0.d.f.d.cXcXcXcX",
"cXcXcXcXy.r.r.t.6.q.y.u.d.d.d.g.d.d.f.d.a.u.t.6.c p s u h >.5.5.6.6.0.y.a.d.a.y.8.w.w.w.q.0.i.j.j.j.j.j.g.y.7.7.p.k.k.k.cXcXcXcX",
"cXcXcXcXx.x.x.s.y.y.y.i.d.d.a.a.d.d.d.d.i.i.u.t.4.z h h c >.6.8.0.t.y.i.d.d.a.u.y.y.0.0.y.i.g.j.c.c.c.l.j.i.y.y.f.z.v.v.cXcXcXcX",
"cXcXcXcXv.b.b.k.a.p.p.i.a.a.a.a.i.p.p.p.a.s.a.u.0.w.>.>.1.1.6.8.t.i.a.d.d.d.a.a.u.i.u.u.a.j.j.c.b.lXlXc.c.j.a.i.k.b.n.b.cXcXcXcX",
"cXcXcXcXlXzXzXc.g.a.d.d.d.g.d.d.g.g.g.d.d.g.d.d.y.8.6.:.:.:.w.q.y.d.g.d.d.d.a.d.d.d.a.a.d.j.l.lXlXlXlXlXv.l.g.g.z.n.lXlXcXcXcXcX",
"cXcXcXcXzXzXzXc.g.d.g.j.j.j.j.j.j.j.j.j.j.h.g.d.y.0.6.:.1.1.w.8.y.d.g.d.d.a.d.d.d.d.d.d.d.j.c.lXlXlXlXlXc.l.g.g.z.zXzXzXcXcXcXcX",
"cXcXcXcXzXzXzXz.g.d.j.j.c.c.c.c.c.c.c.c.z.j.h.p.t.8.<.1.;.1.<.8.y.d.g.g.d.a.d.d.d.d.a.a.d.j.j.c.lXlXlXb.v.l.d.d.z.zXzXzXcXcXcXcX",
"cXcXcXcXzXn.n.z.d.d.j.c.lXlXlXb.b.lXlXlXc.l.h.p.t.6.5.1.1.1.w.8.y.d.d.d.d.d.d.a.d.d.a.a.d.j.c.lXb.lXlXlXv.l.d.d.z.n.lXlXcXcXcXcX",
"cXcXcXcXb.b.b.k.d.g.l.c.lXlXlXlXlXlXlXlXc.l.g.a.y.0.q.6.w.w.0.t.y.d.d.d.d.d.s.s.a.d.a.a.a.j.c.v.lXlXlXlXv.j.g.d.j.b.b.b.cXcXcXcX",
"cXcXcXcXz.z.z.h.d.g.l.v.lXlXlXlXb.lXlXlXv.l.g.a.u.y.y.t.t.0.y.y.a.d.f.d.d.d.d.d.d.a.a.a.d.g.c.v.lXlXlXv.b.j.g.a.h.c.z.z.cXcXcXcX",
"cXcXcXcXf.h.k.f.s.g.l.v.v.lXb.b.lXlXn.n.v.l.g.a.i.i.u.u.p.p.a.a.d.d.d.d.d.d.f.d.d.d.a.a.a.j.c.lXlXlXlXlXv.l.f.a.f.k.h.g.cXcXcXcX",
"cXcXcXcXa.d.f.f.a.g.l.c.lXlXlXlXb.b.lXn.v.j.g.d.a.d.d.d.d.d.d.d.d.a.d.s.p.d.p.s.d.a.a.a.a.j.z.v.lXv.lXlXv.j.g.a.f.h.g.a.cXcXcXcX",
"cXcXcXcXa.f.k.f.d.j.c.b.lXzXzXlXzXzXzXzXb.z.h.d.d.g.h.f.h.h.f.f.a.i.u.u.u.u.p.s.g.g.f.g.f.k.z.v.c.v.b.v.z.l.h.f.h.k.f.a.a.cXcXcX",
"cXcXcXs.a.k.z.k.k.k.v.lXzXxXxXxXxXxXxXxXn.v.z.k.h.h.k.k.k.k.h.d.i.t.e.e.t.t.u.f.h.j.k.h.h.k.l.z.c.c.c.c.z.z.k.h.k.z.k.a.a.cXcXcX",
"cXcXcXcXd.h.k.h.d.h.z.b.lXlXzXlXlXzXzXlXn.z.h.d.d.g.g.d.f.f.g.p.t.3.3.<.<.7.0.p.d.h.g.g.d.f.f.f.g.g.g.g.f.f.f.f.k.k.h.d.cXcXcXcX",
"cXcXcXcXd.d.a.a.a.h.l.v.b.lXlXlXb.n.lXn.v.k.g.s.a.a.d.d.g.g.a.y.7.<.;.;.;.<.q.y.a.d.d.d.d.d.a.a.p.p.p.p.p.a.a.d.d.d.a.g.cXcXcXcX",
"cXcXcXcXcXd.d.a.cXcXcXcXcXcXcXcXcXcXcXcXcXcXcXcXcXcXcXcXcXcXcXcXcXcXcXcXcXcXcXcXcXcXcXcXcXcXcXcXcXcXcXcXcXcXcXcXd.d.d.cXcXcXcXcX",
"cXcXcXcXcXcXcXcXcXcXcXcXcXcXcXcXcXcXcXcXcXcXcXcXcXcXcXcXcXcXcXcXcXcXcXcXcXcXcXcXcXcXcXcXcXcXcXcXcXcXcXcXcXcXcXcXcXcXcXcXcXcXcXcX",
"cXcXcXcXcXcXcXcXcXcXcXcXcXcXcXcXcXcXcXcXcXcXcXcXcXcXcXcXcXcXcXcXcXcXcXcXcXcXcXcXcXcXcXcXcXcXcXcXcXcXcXcXcXcXcXcXcXcXcXcXcXcXcXcX",
"cXcXcXcXcXcXcXcXcXcXcXcXcXcXcXcXcXcXcXcXcXcXcXcXcXcXcXcXcXcXcXcXcXcXcXcXcXcXcXcXcXcXcXcXcXcXcXcXcXcXcXcXcXcXcXcXcXcXcXcXcXcXcXcX"
};
